M48
; DRILL file {KiCad 8.0.4} date 2024-11-13T14:24:44-0600
; FORMAT={-:-/ absolute / metric / decimal}
; #@! TF.CreationDate,2024-11-13T14:24:44-06:00
; #@! TF.GenerationSoftware,Kicad,Pcbnew,8.0.4
; #@! TF.FileFunction,Plated,1,2,PTH
FMAT,2
METRIC
; #@! TA.AperFunction,Plated,PTH,ViaDrill
T1C0.300
; #@! TA.AperFunction,Plated,PTH,ComponentDrill
T2C0.500
; #@! TA.AperFunction,Plated,PTH,ComponentDrill
T3C0.600
%
G90
G05
T1
X51.5Y-88.5
X59.5Y-75.0
X60.68Y-62.255
X62.5Y-73.5
X62.5Y-85.0
X63.342Y-64.917
X64.0Y-91.0
X65.0Y-67.5
X65.0Y-93.5
X66.0Y-104.0
X66.5Y-45.905
X66.5Y-90.0
X66.5Y-91.5
X66.5Y-94.0
X66.68Y-73.255
X67.0Y-42.68
X67.0Y-88.5
X67.0Y-88.5
X67.0Y-106.0
X67.5Y-104.4
X68.0Y-90.0
X68.346Y-84.055
X70.25Y-88.75
X70.28Y-72.5
X71.0Y-66.5
X71.0Y-94.0
X71.18Y-73.255
X71.5Y-79.0
X72.18Y-72.255
X72.48Y-75.255
X72.873Y-72.655
X73.173Y-74.855
X73.5Y-84.0
X73.773Y-72.348
X73.973Y-74.855
X74.0Y-106.5
X74.0Y-110.0
X74.68Y-72.655
X74.773Y-74.855
X75.0Y-106.0
X76.5Y-109.5
X76.68Y-75.755
X77.0Y-77.5
X77.0Y-112.5
X77.08Y-78.741
X77.18Y-90.255
X78.18Y-74.255
X78.5Y-114.0
X78.58Y-86.755
X78.68Y-91.255
X80.18Y-72.355
X81.18Y-71.755
X81.75Y-37.5
X82.0Y-82.5
X82.5Y-69.0
X83.0Y-75.0
X83.177Y-72.565
X83.19Y-71.765
X86.0Y-49.5
X89.0Y-49.68
X89.5Y-75.5
X90.18Y-98.755
X91.68Y-98.255
X92.5Y-105.25
X92.54Y-97.395
X94.18Y-97.255
X94.18Y-98.255
X94.18Y-99.255
X95.18Y-62.755
X97.0Y-62.18
X99.0Y-63.68
X99.298Y-61.137
X100.192Y-56.755
X100.292Y-63.255
X100.5Y-28.0
X101.68Y-62.255
X104.671Y-65.009
X104.68Y-62.255
X106.68Y-55.255
X106.68Y-57.755
X107.5Y-26.75
X112.5Y-60.5
T2
X58.88Y-83.455
T3
G00X115.345Y-64.86
M15
G01X116.445Y-64.86
M16
G05
G00X115.345Y-73.5
M15
G01X116.445Y-73.5
M16
G05
G00X119.775Y-64.86
M15
G01X120.375Y-64.86
M16
G05
G00X119.775Y-73.5
M15
G01X120.375Y-73.5
M16
G05
M30
