%TF.GenerationSoftware,KiCad,Pcbnew,8.0.4*%
%TF.CreationDate,2024-11-14T20:52:58-06:00*%
%TF.ProjectId,wearablesystem,77656172-6162-46c6-9573-797374656d2e,rev?*%
%TF.SameCoordinates,Original*%
%TF.FileFunction,Legend,Top*%
%TF.FilePolarity,Positive*%
%FSLAX46Y46*%
G04 Gerber Fmt 4.6, Leading zero omitted, Abs format (unit mm)*
G04 Created by KiCad (PCBNEW 8.0.4) date 2024-11-14 20:52:58*
%MOMM*%
%LPD*%
G01*
G04 APERTURE LIST*
%ADD10C,0.100000*%
%ADD11C,0.150000*%
%ADD12C,0.120000*%
%ADD13C,0.152400*%
G04 APERTURE END LIST*
D10*
X104827693Y-108590206D02*
X104732455Y-108542587D01*
X104732455Y-108542587D02*
X104589598Y-108542587D01*
X104589598Y-108542587D02*
X104446741Y-108590206D01*
X104446741Y-108590206D02*
X104351503Y-108685444D01*
X104351503Y-108685444D02*
X104303884Y-108780682D01*
X104303884Y-108780682D02*
X104256265Y-108971158D01*
X104256265Y-108971158D02*
X104256265Y-109114015D01*
X104256265Y-109114015D02*
X104303884Y-109304491D01*
X104303884Y-109304491D02*
X104351503Y-109399729D01*
X104351503Y-109399729D02*
X104446741Y-109494968D01*
X104446741Y-109494968D02*
X104589598Y-109542587D01*
X104589598Y-109542587D02*
X104684836Y-109542587D01*
X104684836Y-109542587D02*
X104827693Y-109494968D01*
X104827693Y-109494968D02*
X104875312Y-109447348D01*
X104875312Y-109447348D02*
X104875312Y-109114015D01*
X104875312Y-109114015D02*
X104684836Y-109114015D01*
X105303884Y-109542587D02*
X105303884Y-108875920D01*
X105303884Y-109066396D02*
X105351503Y-108971158D01*
X105351503Y-108971158D02*
X105399122Y-108923539D01*
X105399122Y-108923539D02*
X105494360Y-108875920D01*
X105494360Y-108875920D02*
X105589598Y-108875920D01*
X106065789Y-109542587D02*
X105970551Y-109494968D01*
X105970551Y-109494968D02*
X105922932Y-109447348D01*
X105922932Y-109447348D02*
X105875313Y-109352110D01*
X105875313Y-109352110D02*
X105875313Y-109066396D01*
X105875313Y-109066396D02*
X105922932Y-108971158D01*
X105922932Y-108971158D02*
X105970551Y-108923539D01*
X105970551Y-108923539D02*
X106065789Y-108875920D01*
X106065789Y-108875920D02*
X106208646Y-108875920D01*
X106208646Y-108875920D02*
X106303884Y-108923539D01*
X106303884Y-108923539D02*
X106351503Y-108971158D01*
X106351503Y-108971158D02*
X106399122Y-109066396D01*
X106399122Y-109066396D02*
X106399122Y-109352110D01*
X106399122Y-109352110D02*
X106351503Y-109447348D01*
X106351503Y-109447348D02*
X106303884Y-109494968D01*
X106303884Y-109494968D02*
X106208646Y-109542587D01*
X106208646Y-109542587D02*
X106065789Y-109542587D01*
X107256265Y-108875920D02*
X107256265Y-109542587D01*
X106827694Y-108875920D02*
X106827694Y-109399729D01*
X106827694Y-109399729D02*
X106875313Y-109494968D01*
X106875313Y-109494968D02*
X106970551Y-109542587D01*
X106970551Y-109542587D02*
X107113408Y-109542587D01*
X107113408Y-109542587D02*
X107208646Y-109494968D01*
X107208646Y-109494968D02*
X107256265Y-109447348D01*
X107732456Y-108875920D02*
X107732456Y-109875920D01*
X107732456Y-108923539D02*
X107827694Y-108875920D01*
X107827694Y-108875920D02*
X108018170Y-108875920D01*
X108018170Y-108875920D02*
X108113408Y-108923539D01*
X108113408Y-108923539D02*
X108161027Y-108971158D01*
X108161027Y-108971158D02*
X108208646Y-109066396D01*
X108208646Y-109066396D02*
X108208646Y-109352110D01*
X108208646Y-109352110D02*
X108161027Y-109447348D01*
X108161027Y-109447348D02*
X108113408Y-109494968D01*
X108113408Y-109494968D02*
X108018170Y-109542587D01*
X108018170Y-109542587D02*
X107827694Y-109542587D01*
X107827694Y-109542587D02*
X107732456Y-109494968D01*
X109827694Y-108875920D02*
X109827694Y-109542587D01*
X109589599Y-108494968D02*
X109351504Y-109209253D01*
X109351504Y-109209253D02*
X109970551Y-109209253D01*
X110875313Y-109542587D02*
X110303885Y-109542587D01*
X110589599Y-109542587D02*
X110589599Y-108542587D01*
X110589599Y-108542587D02*
X110494361Y-108685444D01*
X110494361Y-108685444D02*
X110399123Y-108780682D01*
X110399123Y-108780682D02*
X110303885Y-108828301D01*
X104256265Y-110866816D02*
X104732455Y-110866816D01*
X104161027Y-111152531D02*
X104494360Y-110152531D01*
X104494360Y-110152531D02*
X104827693Y-111152531D01*
X105161027Y-111152531D02*
X105161027Y-110485864D01*
X105161027Y-110581102D02*
X105208646Y-110533483D01*
X105208646Y-110533483D02*
X105303884Y-110485864D01*
X105303884Y-110485864D02*
X105446741Y-110485864D01*
X105446741Y-110485864D02*
X105541979Y-110533483D01*
X105541979Y-110533483D02*
X105589598Y-110628721D01*
X105589598Y-110628721D02*
X105589598Y-111152531D01*
X105589598Y-110628721D02*
X105637217Y-110533483D01*
X105637217Y-110533483D02*
X105732455Y-110485864D01*
X105732455Y-110485864D02*
X105875312Y-110485864D01*
X105875312Y-110485864D02*
X105970551Y-110533483D01*
X105970551Y-110533483D02*
X106018170Y-110628721D01*
X106018170Y-110628721D02*
X106018170Y-111152531D01*
X106494360Y-111152531D02*
X106494360Y-110152531D01*
X106494360Y-110533483D02*
X106589598Y-110485864D01*
X106589598Y-110485864D02*
X106780074Y-110485864D01*
X106780074Y-110485864D02*
X106875312Y-110533483D01*
X106875312Y-110533483D02*
X106922931Y-110581102D01*
X106922931Y-110581102D02*
X106970550Y-110676340D01*
X106970550Y-110676340D02*
X106970550Y-110962054D01*
X106970550Y-110962054D02*
X106922931Y-111057292D01*
X106922931Y-111057292D02*
X106875312Y-111104912D01*
X106875312Y-111104912D02*
X106780074Y-111152531D01*
X106780074Y-111152531D02*
X106589598Y-111152531D01*
X106589598Y-111152531D02*
X106494360Y-111104912D01*
X107399122Y-111152531D02*
X107399122Y-110485864D01*
X107399122Y-110152531D02*
X107351503Y-110200150D01*
X107351503Y-110200150D02*
X107399122Y-110247769D01*
X107399122Y-110247769D02*
X107446741Y-110200150D01*
X107446741Y-110200150D02*
X107399122Y-110152531D01*
X107399122Y-110152531D02*
X107399122Y-110247769D01*
X108256264Y-111104912D02*
X108161026Y-111152531D01*
X108161026Y-111152531D02*
X107970550Y-111152531D01*
X107970550Y-111152531D02*
X107875312Y-111104912D01*
X107875312Y-111104912D02*
X107827693Y-111009673D01*
X107827693Y-111009673D02*
X107827693Y-110628721D01*
X107827693Y-110628721D02*
X107875312Y-110533483D01*
X107875312Y-110533483D02*
X107970550Y-110485864D01*
X107970550Y-110485864D02*
X108161026Y-110485864D01*
X108161026Y-110485864D02*
X108256264Y-110533483D01*
X108256264Y-110533483D02*
X108303883Y-110628721D01*
X108303883Y-110628721D02*
X108303883Y-110723959D01*
X108303883Y-110723959D02*
X107827693Y-110819197D01*
X108732455Y-110485864D02*
X108732455Y-111152531D01*
X108732455Y-110581102D02*
X108780074Y-110533483D01*
X108780074Y-110533483D02*
X108875312Y-110485864D01*
X108875312Y-110485864D02*
X109018169Y-110485864D01*
X109018169Y-110485864D02*
X109113407Y-110533483D01*
X109113407Y-110533483D02*
X109161026Y-110628721D01*
X109161026Y-110628721D02*
X109161026Y-111152531D01*
X109494360Y-110485864D02*
X109875312Y-110485864D01*
X109637217Y-110152531D02*
X109637217Y-111009673D01*
X109637217Y-111009673D02*
X109684836Y-111104912D01*
X109684836Y-111104912D02*
X109780074Y-111152531D01*
X109780074Y-111152531D02*
X109875312Y-111152531D01*
X111446741Y-111152531D02*
X110970551Y-111152531D01*
X110970551Y-111152531D02*
X110970551Y-110152531D01*
X111780075Y-111152531D02*
X111780075Y-110485864D01*
X111780075Y-110152531D02*
X111732456Y-110200150D01*
X111732456Y-110200150D02*
X111780075Y-110247769D01*
X111780075Y-110247769D02*
X111827694Y-110200150D01*
X111827694Y-110200150D02*
X111780075Y-110152531D01*
X111780075Y-110152531D02*
X111780075Y-110247769D01*
X112684836Y-110485864D02*
X112684836Y-111295388D01*
X112684836Y-111295388D02*
X112637217Y-111390626D01*
X112637217Y-111390626D02*
X112589598Y-111438245D01*
X112589598Y-111438245D02*
X112494360Y-111485864D01*
X112494360Y-111485864D02*
X112351503Y-111485864D01*
X112351503Y-111485864D02*
X112256265Y-111438245D01*
X112684836Y-111104912D02*
X112589598Y-111152531D01*
X112589598Y-111152531D02*
X112399122Y-111152531D01*
X112399122Y-111152531D02*
X112303884Y-111104912D01*
X112303884Y-111104912D02*
X112256265Y-111057292D01*
X112256265Y-111057292D02*
X112208646Y-110962054D01*
X112208646Y-110962054D02*
X112208646Y-110676340D01*
X112208646Y-110676340D02*
X112256265Y-110581102D01*
X112256265Y-110581102D02*
X112303884Y-110533483D01*
X112303884Y-110533483D02*
X112399122Y-110485864D01*
X112399122Y-110485864D02*
X112589598Y-110485864D01*
X112589598Y-110485864D02*
X112684836Y-110533483D01*
X113161027Y-111152531D02*
X113161027Y-110152531D01*
X113589598Y-111152531D02*
X113589598Y-110628721D01*
X113589598Y-110628721D02*
X113541979Y-110533483D01*
X113541979Y-110533483D02*
X113446741Y-110485864D01*
X113446741Y-110485864D02*
X113303884Y-110485864D01*
X113303884Y-110485864D02*
X113208646Y-110533483D01*
X113208646Y-110533483D02*
X113161027Y-110581102D01*
X113922932Y-110485864D02*
X114303884Y-110485864D01*
X114065789Y-110152531D02*
X114065789Y-111009673D01*
X114065789Y-111009673D02*
X114113408Y-111104912D01*
X114113408Y-111104912D02*
X114208646Y-111152531D01*
X114208646Y-111152531D02*
X114303884Y-111152531D01*
X114637218Y-111152531D02*
X114637218Y-110485864D01*
X114637218Y-110152531D02*
X114589599Y-110200150D01*
X114589599Y-110200150D02*
X114637218Y-110247769D01*
X114637218Y-110247769D02*
X114684837Y-110200150D01*
X114684837Y-110200150D02*
X114637218Y-110152531D01*
X114637218Y-110152531D02*
X114637218Y-110247769D01*
X115113408Y-110485864D02*
X115113408Y-111152531D01*
X115113408Y-110581102D02*
X115161027Y-110533483D01*
X115161027Y-110533483D02*
X115256265Y-110485864D01*
X115256265Y-110485864D02*
X115399122Y-110485864D01*
X115399122Y-110485864D02*
X115494360Y-110533483D01*
X115494360Y-110533483D02*
X115541979Y-110628721D01*
X115541979Y-110628721D02*
X115541979Y-111152531D01*
X116446741Y-110485864D02*
X116446741Y-111295388D01*
X116446741Y-111295388D02*
X116399122Y-111390626D01*
X116399122Y-111390626D02*
X116351503Y-111438245D01*
X116351503Y-111438245D02*
X116256265Y-111485864D01*
X116256265Y-111485864D02*
X116113408Y-111485864D01*
X116113408Y-111485864D02*
X116018170Y-111438245D01*
X116446741Y-111104912D02*
X116351503Y-111152531D01*
X116351503Y-111152531D02*
X116161027Y-111152531D01*
X116161027Y-111152531D02*
X116065789Y-111104912D01*
X116065789Y-111104912D02*
X116018170Y-111057292D01*
X116018170Y-111057292D02*
X115970551Y-110962054D01*
X115970551Y-110962054D02*
X115970551Y-110676340D01*
X115970551Y-110676340D02*
X116018170Y-110581102D01*
X116018170Y-110581102D02*
X116065789Y-110533483D01*
X116065789Y-110533483D02*
X116161027Y-110485864D01*
X116161027Y-110485864D02*
X116351503Y-110485864D01*
X116351503Y-110485864D02*
X116446741Y-110533483D01*
X117637218Y-111104912D02*
X117780075Y-111152531D01*
X117780075Y-111152531D02*
X118018170Y-111152531D01*
X118018170Y-111152531D02*
X118113408Y-111104912D01*
X118113408Y-111104912D02*
X118161027Y-111057292D01*
X118161027Y-111057292D02*
X118208646Y-110962054D01*
X118208646Y-110962054D02*
X118208646Y-110866816D01*
X118208646Y-110866816D02*
X118161027Y-110771578D01*
X118161027Y-110771578D02*
X118113408Y-110723959D01*
X118113408Y-110723959D02*
X118018170Y-110676340D01*
X118018170Y-110676340D02*
X117827694Y-110628721D01*
X117827694Y-110628721D02*
X117732456Y-110581102D01*
X117732456Y-110581102D02*
X117684837Y-110533483D01*
X117684837Y-110533483D02*
X117637218Y-110438245D01*
X117637218Y-110438245D02*
X117637218Y-110343007D01*
X117637218Y-110343007D02*
X117684837Y-110247769D01*
X117684837Y-110247769D02*
X117732456Y-110200150D01*
X117732456Y-110200150D02*
X117827694Y-110152531D01*
X117827694Y-110152531D02*
X118065789Y-110152531D01*
X118065789Y-110152531D02*
X118208646Y-110200150D01*
X118541980Y-110485864D02*
X118780075Y-111152531D01*
X119018170Y-110485864D02*
X118780075Y-111152531D01*
X118780075Y-111152531D02*
X118684837Y-111390626D01*
X118684837Y-111390626D02*
X118637218Y-111438245D01*
X118637218Y-111438245D02*
X118541980Y-111485864D01*
X119351504Y-111104912D02*
X119446742Y-111152531D01*
X119446742Y-111152531D02*
X119637218Y-111152531D01*
X119637218Y-111152531D02*
X119732456Y-111104912D01*
X119732456Y-111104912D02*
X119780075Y-111009673D01*
X119780075Y-111009673D02*
X119780075Y-110962054D01*
X119780075Y-110962054D02*
X119732456Y-110866816D01*
X119732456Y-110866816D02*
X119637218Y-110819197D01*
X119637218Y-110819197D02*
X119494361Y-110819197D01*
X119494361Y-110819197D02*
X119399123Y-110771578D01*
X119399123Y-110771578D02*
X119351504Y-110676340D01*
X119351504Y-110676340D02*
X119351504Y-110628721D01*
X119351504Y-110628721D02*
X119399123Y-110533483D01*
X119399123Y-110533483D02*
X119494361Y-110485864D01*
X119494361Y-110485864D02*
X119637218Y-110485864D01*
X119637218Y-110485864D02*
X119732456Y-110533483D01*
X120065790Y-110485864D02*
X120446742Y-110485864D01*
X120208647Y-110152531D02*
X120208647Y-111009673D01*
X120208647Y-111009673D02*
X120256266Y-111104912D01*
X120256266Y-111104912D02*
X120351504Y-111152531D01*
X120351504Y-111152531D02*
X120446742Y-111152531D01*
X121161028Y-111104912D02*
X121065790Y-111152531D01*
X121065790Y-111152531D02*
X120875314Y-111152531D01*
X120875314Y-111152531D02*
X120780076Y-111104912D01*
X120780076Y-111104912D02*
X120732457Y-111009673D01*
X120732457Y-111009673D02*
X120732457Y-110628721D01*
X120732457Y-110628721D02*
X120780076Y-110533483D01*
X120780076Y-110533483D02*
X120875314Y-110485864D01*
X120875314Y-110485864D02*
X121065790Y-110485864D01*
X121065790Y-110485864D02*
X121161028Y-110533483D01*
X121161028Y-110533483D02*
X121208647Y-110628721D01*
X121208647Y-110628721D02*
X121208647Y-110723959D01*
X121208647Y-110723959D02*
X120732457Y-110819197D01*
X121637219Y-111152531D02*
X121637219Y-110485864D01*
X121637219Y-110581102D02*
X121684838Y-110533483D01*
X121684838Y-110533483D02*
X121780076Y-110485864D01*
X121780076Y-110485864D02*
X121922933Y-110485864D01*
X121922933Y-110485864D02*
X122018171Y-110533483D01*
X122018171Y-110533483D02*
X122065790Y-110628721D01*
X122065790Y-110628721D02*
X122065790Y-111152531D01*
X122065790Y-110628721D02*
X122113409Y-110533483D01*
X122113409Y-110533483D02*
X122208647Y-110485864D01*
X122208647Y-110485864D02*
X122351504Y-110485864D01*
X122351504Y-110485864D02*
X122446743Y-110533483D01*
X122446743Y-110533483D02*
X122494362Y-110628721D01*
X122494362Y-110628721D02*
X122494362Y-111152531D01*
X104208646Y-111762475D02*
X104446741Y-112762475D01*
X104446741Y-112762475D02*
X104637217Y-112048189D01*
X104637217Y-112048189D02*
X104827693Y-112762475D01*
X104827693Y-112762475D02*
X105065789Y-111762475D01*
X105827693Y-112714856D02*
X105732455Y-112762475D01*
X105732455Y-112762475D02*
X105541979Y-112762475D01*
X105541979Y-112762475D02*
X105446741Y-112714856D01*
X105446741Y-112714856D02*
X105399122Y-112619617D01*
X105399122Y-112619617D02*
X105399122Y-112238665D01*
X105399122Y-112238665D02*
X105446741Y-112143427D01*
X105446741Y-112143427D02*
X105541979Y-112095808D01*
X105541979Y-112095808D02*
X105732455Y-112095808D01*
X105732455Y-112095808D02*
X105827693Y-112143427D01*
X105827693Y-112143427D02*
X105875312Y-112238665D01*
X105875312Y-112238665D02*
X105875312Y-112333903D01*
X105875312Y-112333903D02*
X105399122Y-112429141D01*
X106732455Y-112762475D02*
X106732455Y-112238665D01*
X106732455Y-112238665D02*
X106684836Y-112143427D01*
X106684836Y-112143427D02*
X106589598Y-112095808D01*
X106589598Y-112095808D02*
X106399122Y-112095808D01*
X106399122Y-112095808D02*
X106303884Y-112143427D01*
X106732455Y-112714856D02*
X106637217Y-112762475D01*
X106637217Y-112762475D02*
X106399122Y-112762475D01*
X106399122Y-112762475D02*
X106303884Y-112714856D01*
X106303884Y-112714856D02*
X106256265Y-112619617D01*
X106256265Y-112619617D02*
X106256265Y-112524379D01*
X106256265Y-112524379D02*
X106303884Y-112429141D01*
X106303884Y-112429141D02*
X106399122Y-112381522D01*
X106399122Y-112381522D02*
X106637217Y-112381522D01*
X106637217Y-112381522D02*
X106732455Y-112333903D01*
X107208646Y-112762475D02*
X107208646Y-112095808D01*
X107208646Y-112286284D02*
X107256265Y-112191046D01*
X107256265Y-112191046D02*
X107303884Y-112143427D01*
X107303884Y-112143427D02*
X107399122Y-112095808D01*
X107399122Y-112095808D02*
X107494360Y-112095808D01*
X108256265Y-112762475D02*
X108256265Y-112238665D01*
X108256265Y-112238665D02*
X108208646Y-112143427D01*
X108208646Y-112143427D02*
X108113408Y-112095808D01*
X108113408Y-112095808D02*
X107922932Y-112095808D01*
X107922932Y-112095808D02*
X107827694Y-112143427D01*
X108256265Y-112714856D02*
X108161027Y-112762475D01*
X108161027Y-112762475D02*
X107922932Y-112762475D01*
X107922932Y-112762475D02*
X107827694Y-112714856D01*
X107827694Y-112714856D02*
X107780075Y-112619617D01*
X107780075Y-112619617D02*
X107780075Y-112524379D01*
X107780075Y-112524379D02*
X107827694Y-112429141D01*
X107827694Y-112429141D02*
X107922932Y-112381522D01*
X107922932Y-112381522D02*
X108161027Y-112381522D01*
X108161027Y-112381522D02*
X108256265Y-112333903D01*
X108732456Y-112762475D02*
X108732456Y-111762475D01*
X108732456Y-112143427D02*
X108827694Y-112095808D01*
X108827694Y-112095808D02*
X109018170Y-112095808D01*
X109018170Y-112095808D02*
X109113408Y-112143427D01*
X109113408Y-112143427D02*
X109161027Y-112191046D01*
X109161027Y-112191046D02*
X109208646Y-112286284D01*
X109208646Y-112286284D02*
X109208646Y-112571998D01*
X109208646Y-112571998D02*
X109161027Y-112667236D01*
X109161027Y-112667236D02*
X109113408Y-112714856D01*
X109113408Y-112714856D02*
X109018170Y-112762475D01*
X109018170Y-112762475D02*
X108827694Y-112762475D01*
X108827694Y-112762475D02*
X108732456Y-112714856D01*
X109780075Y-112762475D02*
X109684837Y-112714856D01*
X109684837Y-112714856D02*
X109637218Y-112619617D01*
X109637218Y-112619617D02*
X109637218Y-111762475D01*
X110541980Y-112714856D02*
X110446742Y-112762475D01*
X110446742Y-112762475D02*
X110256266Y-112762475D01*
X110256266Y-112762475D02*
X110161028Y-112714856D01*
X110161028Y-112714856D02*
X110113409Y-112619617D01*
X110113409Y-112619617D02*
X110113409Y-112238665D01*
X110113409Y-112238665D02*
X110161028Y-112143427D01*
X110161028Y-112143427D02*
X110256266Y-112095808D01*
X110256266Y-112095808D02*
X110446742Y-112095808D01*
X110446742Y-112095808D02*
X110541980Y-112143427D01*
X110541980Y-112143427D02*
X110589599Y-112238665D01*
X110589599Y-112238665D02*
X110589599Y-112333903D01*
X110589599Y-112333903D02*
X110113409Y-112429141D01*
X111732457Y-112714856D02*
X111875314Y-112762475D01*
X111875314Y-112762475D02*
X112113409Y-112762475D01*
X112113409Y-112762475D02*
X112208647Y-112714856D01*
X112208647Y-112714856D02*
X112256266Y-112667236D01*
X112256266Y-112667236D02*
X112303885Y-112571998D01*
X112303885Y-112571998D02*
X112303885Y-112476760D01*
X112303885Y-112476760D02*
X112256266Y-112381522D01*
X112256266Y-112381522D02*
X112208647Y-112333903D01*
X112208647Y-112333903D02*
X112113409Y-112286284D01*
X112113409Y-112286284D02*
X111922933Y-112238665D01*
X111922933Y-112238665D02*
X111827695Y-112191046D01*
X111827695Y-112191046D02*
X111780076Y-112143427D01*
X111780076Y-112143427D02*
X111732457Y-112048189D01*
X111732457Y-112048189D02*
X111732457Y-111952951D01*
X111732457Y-111952951D02*
X111780076Y-111857713D01*
X111780076Y-111857713D02*
X111827695Y-111810094D01*
X111827695Y-111810094D02*
X111922933Y-111762475D01*
X111922933Y-111762475D02*
X112161028Y-111762475D01*
X112161028Y-111762475D02*
X112303885Y-111810094D01*
X112637219Y-112095808D02*
X112875314Y-112762475D01*
X113113409Y-112095808D02*
X112875314Y-112762475D01*
X112875314Y-112762475D02*
X112780076Y-113000570D01*
X112780076Y-113000570D02*
X112732457Y-113048189D01*
X112732457Y-113048189D02*
X112637219Y-113095808D01*
X113446743Y-112714856D02*
X113541981Y-112762475D01*
X113541981Y-112762475D02*
X113732457Y-112762475D01*
X113732457Y-112762475D02*
X113827695Y-112714856D01*
X113827695Y-112714856D02*
X113875314Y-112619617D01*
X113875314Y-112619617D02*
X113875314Y-112571998D01*
X113875314Y-112571998D02*
X113827695Y-112476760D01*
X113827695Y-112476760D02*
X113732457Y-112429141D01*
X113732457Y-112429141D02*
X113589600Y-112429141D01*
X113589600Y-112429141D02*
X113494362Y-112381522D01*
X113494362Y-112381522D02*
X113446743Y-112286284D01*
X113446743Y-112286284D02*
X113446743Y-112238665D01*
X113446743Y-112238665D02*
X113494362Y-112143427D01*
X113494362Y-112143427D02*
X113589600Y-112095808D01*
X113589600Y-112095808D02*
X113732457Y-112095808D01*
X113732457Y-112095808D02*
X113827695Y-112143427D01*
X114161029Y-112095808D02*
X114541981Y-112095808D01*
X114303886Y-111762475D02*
X114303886Y-112619617D01*
X114303886Y-112619617D02*
X114351505Y-112714856D01*
X114351505Y-112714856D02*
X114446743Y-112762475D01*
X114446743Y-112762475D02*
X114541981Y-112762475D01*
X115256267Y-112714856D02*
X115161029Y-112762475D01*
X115161029Y-112762475D02*
X114970553Y-112762475D01*
X114970553Y-112762475D02*
X114875315Y-112714856D01*
X114875315Y-112714856D02*
X114827696Y-112619617D01*
X114827696Y-112619617D02*
X114827696Y-112238665D01*
X114827696Y-112238665D02*
X114875315Y-112143427D01*
X114875315Y-112143427D02*
X114970553Y-112095808D01*
X114970553Y-112095808D02*
X115161029Y-112095808D01*
X115161029Y-112095808D02*
X115256267Y-112143427D01*
X115256267Y-112143427D02*
X115303886Y-112238665D01*
X115303886Y-112238665D02*
X115303886Y-112333903D01*
X115303886Y-112333903D02*
X114827696Y-112429141D01*
X115732458Y-112762475D02*
X115732458Y-112095808D01*
X115732458Y-112191046D02*
X115780077Y-112143427D01*
X115780077Y-112143427D02*
X115875315Y-112095808D01*
X115875315Y-112095808D02*
X116018172Y-112095808D01*
X116018172Y-112095808D02*
X116113410Y-112143427D01*
X116113410Y-112143427D02*
X116161029Y-112238665D01*
X116161029Y-112238665D02*
X116161029Y-112762475D01*
X116161029Y-112238665D02*
X116208648Y-112143427D01*
X116208648Y-112143427D02*
X116303886Y-112095808D01*
X116303886Y-112095808D02*
X116446743Y-112095808D01*
X116446743Y-112095808D02*
X116541982Y-112143427D01*
X116541982Y-112143427D02*
X116589601Y-112238665D01*
X116589601Y-112238665D02*
X116589601Y-112762475D01*
X104161027Y-113372419D02*
X104494360Y-114372419D01*
X104494360Y-114372419D02*
X104827693Y-113372419D01*
X105541979Y-114324800D02*
X105446741Y-114372419D01*
X105446741Y-114372419D02*
X105256265Y-114372419D01*
X105256265Y-114372419D02*
X105161027Y-114324800D01*
X105161027Y-114324800D02*
X105113408Y-114229561D01*
X105113408Y-114229561D02*
X105113408Y-113848609D01*
X105113408Y-113848609D02*
X105161027Y-113753371D01*
X105161027Y-113753371D02*
X105256265Y-113705752D01*
X105256265Y-113705752D02*
X105446741Y-113705752D01*
X105446741Y-113705752D02*
X105541979Y-113753371D01*
X105541979Y-113753371D02*
X105589598Y-113848609D01*
X105589598Y-113848609D02*
X105589598Y-113943847D01*
X105589598Y-113943847D02*
X105113408Y-114039085D01*
X106018170Y-114372419D02*
X106018170Y-113705752D01*
X106018170Y-113896228D02*
X106065789Y-113800990D01*
X106065789Y-113800990D02*
X106113408Y-113753371D01*
X106113408Y-113753371D02*
X106208646Y-113705752D01*
X106208646Y-113705752D02*
X106303884Y-113705752D01*
X106589599Y-114324800D02*
X106684837Y-114372419D01*
X106684837Y-114372419D02*
X106875313Y-114372419D01*
X106875313Y-114372419D02*
X106970551Y-114324800D01*
X106970551Y-114324800D02*
X107018170Y-114229561D01*
X107018170Y-114229561D02*
X107018170Y-114181942D01*
X107018170Y-114181942D02*
X106970551Y-114086704D01*
X106970551Y-114086704D02*
X106875313Y-114039085D01*
X106875313Y-114039085D02*
X106732456Y-114039085D01*
X106732456Y-114039085D02*
X106637218Y-113991466D01*
X106637218Y-113991466D02*
X106589599Y-113896228D01*
X106589599Y-113896228D02*
X106589599Y-113848609D01*
X106589599Y-113848609D02*
X106637218Y-113753371D01*
X106637218Y-113753371D02*
X106732456Y-113705752D01*
X106732456Y-113705752D02*
X106875313Y-113705752D01*
X106875313Y-113705752D02*
X106970551Y-113753371D01*
X107446742Y-114372419D02*
X107446742Y-113705752D01*
X107446742Y-113372419D02*
X107399123Y-113420038D01*
X107399123Y-113420038D02*
X107446742Y-113467657D01*
X107446742Y-113467657D02*
X107494361Y-113420038D01*
X107494361Y-113420038D02*
X107446742Y-113372419D01*
X107446742Y-113372419D02*
X107446742Y-113467657D01*
X108065789Y-114372419D02*
X107970551Y-114324800D01*
X107970551Y-114324800D02*
X107922932Y-114277180D01*
X107922932Y-114277180D02*
X107875313Y-114181942D01*
X107875313Y-114181942D02*
X107875313Y-113896228D01*
X107875313Y-113896228D02*
X107922932Y-113800990D01*
X107922932Y-113800990D02*
X107970551Y-113753371D01*
X107970551Y-113753371D02*
X108065789Y-113705752D01*
X108065789Y-113705752D02*
X108208646Y-113705752D01*
X108208646Y-113705752D02*
X108303884Y-113753371D01*
X108303884Y-113753371D02*
X108351503Y-113800990D01*
X108351503Y-113800990D02*
X108399122Y-113896228D01*
X108399122Y-113896228D02*
X108399122Y-114181942D01*
X108399122Y-114181942D02*
X108351503Y-114277180D01*
X108351503Y-114277180D02*
X108303884Y-114324800D01*
X108303884Y-114324800D02*
X108208646Y-114372419D01*
X108208646Y-114372419D02*
X108065789Y-114372419D01*
X108827694Y-113705752D02*
X108827694Y-114372419D01*
X108827694Y-113800990D02*
X108875313Y-113753371D01*
X108875313Y-113753371D02*
X108970551Y-113705752D01*
X108970551Y-113705752D02*
X109113408Y-113705752D01*
X109113408Y-113705752D02*
X109208646Y-113753371D01*
X109208646Y-113753371D02*
X109256265Y-113848609D01*
X109256265Y-113848609D02*
X109256265Y-114372419D01*
X110399123Y-113372419D02*
X111018170Y-113372419D01*
X111018170Y-113372419D02*
X110684837Y-113753371D01*
X110684837Y-113753371D02*
X110827694Y-113753371D01*
X110827694Y-113753371D02*
X110922932Y-113800990D01*
X110922932Y-113800990D02*
X110970551Y-113848609D01*
X110970551Y-113848609D02*
X111018170Y-113943847D01*
X111018170Y-113943847D02*
X111018170Y-114181942D01*
X111018170Y-114181942D02*
X110970551Y-114277180D01*
X110970551Y-114277180D02*
X110922932Y-114324800D01*
X110922932Y-114324800D02*
X110827694Y-114372419D01*
X110827694Y-114372419D02*
X110541980Y-114372419D01*
X110541980Y-114372419D02*
X110446742Y-114324800D01*
X110446742Y-114324800D02*
X110399123Y-114277180D01*
D11*
X41679580Y-90392857D02*
X41727200Y-90440476D01*
X41727200Y-90440476D02*
X41774819Y-90583333D01*
X41774819Y-90583333D02*
X41774819Y-90678571D01*
X41774819Y-90678571D02*
X41727200Y-90821428D01*
X41727200Y-90821428D02*
X41631961Y-90916666D01*
X41631961Y-90916666D02*
X41536723Y-90964285D01*
X41536723Y-90964285D02*
X41346247Y-91011904D01*
X41346247Y-91011904D02*
X41203390Y-91011904D01*
X41203390Y-91011904D02*
X41012914Y-90964285D01*
X41012914Y-90964285D02*
X40917676Y-90916666D01*
X40917676Y-90916666D02*
X40822438Y-90821428D01*
X40822438Y-90821428D02*
X40774819Y-90678571D01*
X40774819Y-90678571D02*
X40774819Y-90583333D01*
X40774819Y-90583333D02*
X40822438Y-90440476D01*
X40822438Y-90440476D02*
X40870057Y-90392857D01*
X41774819Y-89440476D02*
X41774819Y-90011904D01*
X41774819Y-89726190D02*
X40774819Y-89726190D01*
X40774819Y-89726190D02*
X40917676Y-89821428D01*
X40917676Y-89821428D02*
X41012914Y-89916666D01*
X41012914Y-89916666D02*
X41060533Y-90011904D01*
X41108152Y-88583333D02*
X41774819Y-88583333D01*
X40727200Y-88821428D02*
X41441485Y-89059523D01*
X41441485Y-89059523D02*
X41441485Y-88440476D01*
X71039580Y-114129166D02*
X71087200Y-114176785D01*
X71087200Y-114176785D02*
X71134819Y-114319642D01*
X71134819Y-114319642D02*
X71134819Y-114414880D01*
X71134819Y-114414880D02*
X71087200Y-114557737D01*
X71087200Y-114557737D02*
X70991961Y-114652975D01*
X70991961Y-114652975D02*
X70896723Y-114700594D01*
X70896723Y-114700594D02*
X70706247Y-114748213D01*
X70706247Y-114748213D02*
X70563390Y-114748213D01*
X70563390Y-114748213D02*
X70372914Y-114700594D01*
X70372914Y-114700594D02*
X70277676Y-114652975D01*
X70277676Y-114652975D02*
X70182438Y-114557737D01*
X70182438Y-114557737D02*
X70134819Y-114414880D01*
X70134819Y-114414880D02*
X70134819Y-114319642D01*
X70134819Y-114319642D02*
X70182438Y-114176785D01*
X70182438Y-114176785D02*
X70230057Y-114129166D01*
X71134819Y-113652975D02*
X71134819Y-113462499D01*
X71134819Y-113462499D02*
X71087200Y-113367261D01*
X71087200Y-113367261D02*
X71039580Y-113319642D01*
X71039580Y-113319642D02*
X70896723Y-113224404D01*
X70896723Y-113224404D02*
X70706247Y-113176785D01*
X70706247Y-113176785D02*
X70325295Y-113176785D01*
X70325295Y-113176785D02*
X70230057Y-113224404D01*
X70230057Y-113224404D02*
X70182438Y-113272023D01*
X70182438Y-113272023D02*
X70134819Y-113367261D01*
X70134819Y-113367261D02*
X70134819Y-113557737D01*
X70134819Y-113557737D02*
X70182438Y-113652975D01*
X70182438Y-113652975D02*
X70230057Y-113700594D01*
X70230057Y-113700594D02*
X70325295Y-113748213D01*
X70325295Y-113748213D02*
X70563390Y-113748213D01*
X70563390Y-113748213D02*
X70658628Y-113700594D01*
X70658628Y-113700594D02*
X70706247Y-113652975D01*
X70706247Y-113652975D02*
X70753866Y-113557737D01*
X70753866Y-113557737D02*
X70753866Y-113367261D01*
X70753866Y-113367261D02*
X70706247Y-113272023D01*
X70706247Y-113272023D02*
X70658628Y-113224404D01*
X70658628Y-113224404D02*
X70563390Y-113176785D01*
X90938330Y-41984166D02*
X90985950Y-42031785D01*
X90985950Y-42031785D02*
X91033569Y-42174642D01*
X91033569Y-42174642D02*
X91033569Y-42269880D01*
X91033569Y-42269880D02*
X90985950Y-42412737D01*
X90985950Y-42412737D02*
X90890711Y-42507975D01*
X90890711Y-42507975D02*
X90795473Y-42555594D01*
X90795473Y-42555594D02*
X90604997Y-42603213D01*
X90604997Y-42603213D02*
X90462140Y-42603213D01*
X90462140Y-42603213D02*
X90271664Y-42555594D01*
X90271664Y-42555594D02*
X90176426Y-42507975D01*
X90176426Y-42507975D02*
X90081188Y-42412737D01*
X90081188Y-42412737D02*
X90033569Y-42269880D01*
X90033569Y-42269880D02*
X90033569Y-42174642D01*
X90033569Y-42174642D02*
X90081188Y-42031785D01*
X90081188Y-42031785D02*
X90128807Y-41984166D01*
X90033569Y-41127023D02*
X90033569Y-41317499D01*
X90033569Y-41317499D02*
X90081188Y-41412737D01*
X90081188Y-41412737D02*
X90128807Y-41460356D01*
X90128807Y-41460356D02*
X90271664Y-41555594D01*
X90271664Y-41555594D02*
X90462140Y-41603213D01*
X90462140Y-41603213D02*
X90843092Y-41603213D01*
X90843092Y-41603213D02*
X90938330Y-41555594D01*
X90938330Y-41555594D02*
X90985950Y-41507975D01*
X90985950Y-41507975D02*
X91033569Y-41412737D01*
X91033569Y-41412737D02*
X91033569Y-41222261D01*
X91033569Y-41222261D02*
X90985950Y-41127023D01*
X90985950Y-41127023D02*
X90938330Y-41079404D01*
X90938330Y-41079404D02*
X90843092Y-41031785D01*
X90843092Y-41031785D02*
X90604997Y-41031785D01*
X90604997Y-41031785D02*
X90509759Y-41079404D01*
X90509759Y-41079404D02*
X90462140Y-41127023D01*
X90462140Y-41127023D02*
X90414521Y-41222261D01*
X90414521Y-41222261D02*
X90414521Y-41412737D01*
X90414521Y-41412737D02*
X90462140Y-41507975D01*
X90462140Y-41507975D02*
X90509759Y-41555594D01*
X90509759Y-41555594D02*
X90604997Y-41603213D01*
X103055595Y-30884819D02*
X103055595Y-31694342D01*
X103055595Y-31694342D02*
X103103214Y-31789580D01*
X103103214Y-31789580D02*
X103150833Y-31837200D01*
X103150833Y-31837200D02*
X103246071Y-31884819D01*
X103246071Y-31884819D02*
X103436547Y-31884819D01*
X103436547Y-31884819D02*
X103531785Y-31837200D01*
X103531785Y-31837200D02*
X103579404Y-31789580D01*
X103579404Y-31789580D02*
X103627023Y-31694342D01*
X103627023Y-31694342D02*
X103627023Y-30884819D01*
X104055595Y-30980057D02*
X104103214Y-30932438D01*
X104103214Y-30932438D02*
X104198452Y-30884819D01*
X104198452Y-30884819D02*
X104436547Y-30884819D01*
X104436547Y-30884819D02*
X104531785Y-30932438D01*
X104531785Y-30932438D02*
X104579404Y-30980057D01*
X104579404Y-30980057D02*
X104627023Y-31075295D01*
X104627023Y-31075295D02*
X104627023Y-31170533D01*
X104627023Y-31170533D02*
X104579404Y-31313390D01*
X104579404Y-31313390D02*
X104007976Y-31884819D01*
X104007976Y-31884819D02*
X104627023Y-31884819D01*
X80719580Y-67935357D02*
X80767200Y-67982976D01*
X80767200Y-67982976D02*
X80814819Y-68125833D01*
X80814819Y-68125833D02*
X80814819Y-68221071D01*
X80814819Y-68221071D02*
X80767200Y-68363928D01*
X80767200Y-68363928D02*
X80671961Y-68459166D01*
X80671961Y-68459166D02*
X80576723Y-68506785D01*
X80576723Y-68506785D02*
X80386247Y-68554404D01*
X80386247Y-68554404D02*
X80243390Y-68554404D01*
X80243390Y-68554404D02*
X80052914Y-68506785D01*
X80052914Y-68506785D02*
X79957676Y-68459166D01*
X79957676Y-68459166D02*
X79862438Y-68363928D01*
X79862438Y-68363928D02*
X79814819Y-68221071D01*
X79814819Y-68221071D02*
X79814819Y-68125833D01*
X79814819Y-68125833D02*
X79862438Y-67982976D01*
X79862438Y-67982976D02*
X79910057Y-67935357D01*
X79910057Y-67554404D02*
X79862438Y-67506785D01*
X79862438Y-67506785D02*
X79814819Y-67411547D01*
X79814819Y-67411547D02*
X79814819Y-67173452D01*
X79814819Y-67173452D02*
X79862438Y-67078214D01*
X79862438Y-67078214D02*
X79910057Y-67030595D01*
X79910057Y-67030595D02*
X80005295Y-66982976D01*
X80005295Y-66982976D02*
X80100533Y-66982976D01*
X80100533Y-66982976D02*
X80243390Y-67030595D01*
X80243390Y-67030595D02*
X80814819Y-67602023D01*
X80814819Y-67602023D02*
X80814819Y-66982976D01*
X79910057Y-66602023D02*
X79862438Y-66554404D01*
X79862438Y-66554404D02*
X79814819Y-66459166D01*
X79814819Y-66459166D02*
X79814819Y-66221071D01*
X79814819Y-66221071D02*
X79862438Y-66125833D01*
X79862438Y-66125833D02*
X79910057Y-66078214D01*
X79910057Y-66078214D02*
X80005295Y-66030595D01*
X80005295Y-66030595D02*
X80100533Y-66030595D01*
X80100533Y-66030595D02*
X80243390Y-66078214D01*
X80243390Y-66078214D02*
X80814819Y-66649642D01*
X80814819Y-66649642D02*
X80814819Y-66030595D01*
X104539580Y-24142857D02*
X104587200Y-24190476D01*
X104587200Y-24190476D02*
X104634819Y-24333333D01*
X104634819Y-24333333D02*
X104634819Y-24428571D01*
X104634819Y-24428571D02*
X104587200Y-24571428D01*
X104587200Y-24571428D02*
X104491961Y-24666666D01*
X104491961Y-24666666D02*
X104396723Y-24714285D01*
X104396723Y-24714285D02*
X104206247Y-24761904D01*
X104206247Y-24761904D02*
X104063390Y-24761904D01*
X104063390Y-24761904D02*
X103872914Y-24714285D01*
X103872914Y-24714285D02*
X103777676Y-24666666D01*
X103777676Y-24666666D02*
X103682438Y-24571428D01*
X103682438Y-24571428D02*
X103634819Y-24428571D01*
X103634819Y-24428571D02*
X103634819Y-24333333D01*
X103634819Y-24333333D02*
X103682438Y-24190476D01*
X103682438Y-24190476D02*
X103730057Y-24142857D01*
X104634819Y-23190476D02*
X104634819Y-23761904D01*
X104634819Y-23476190D02*
X103634819Y-23476190D01*
X103634819Y-23476190D02*
X103777676Y-23571428D01*
X103777676Y-23571428D02*
X103872914Y-23666666D01*
X103872914Y-23666666D02*
X103920533Y-23761904D01*
X104634819Y-22714285D02*
X104634819Y-22523809D01*
X104634819Y-22523809D02*
X104587200Y-22428571D01*
X104587200Y-22428571D02*
X104539580Y-22380952D01*
X104539580Y-22380952D02*
X104396723Y-22285714D01*
X104396723Y-22285714D02*
X104206247Y-22238095D01*
X104206247Y-22238095D02*
X103825295Y-22238095D01*
X103825295Y-22238095D02*
X103730057Y-22285714D01*
X103730057Y-22285714D02*
X103682438Y-22333333D01*
X103682438Y-22333333D02*
X103634819Y-22428571D01*
X103634819Y-22428571D02*
X103634819Y-22619047D01*
X103634819Y-22619047D02*
X103682438Y-22714285D01*
X103682438Y-22714285D02*
X103730057Y-22761904D01*
X103730057Y-22761904D02*
X103825295Y-22809523D01*
X103825295Y-22809523D02*
X104063390Y-22809523D01*
X104063390Y-22809523D02*
X104158628Y-22761904D01*
X104158628Y-22761904D02*
X104206247Y-22714285D01*
X104206247Y-22714285D02*
X104253866Y-22619047D01*
X104253866Y-22619047D02*
X104253866Y-22428571D01*
X104253866Y-22428571D02*
X104206247Y-22333333D01*
X104206247Y-22333333D02*
X104158628Y-22285714D01*
X104158628Y-22285714D02*
X104063390Y-22238095D01*
X101567319Y-60067857D02*
X101091128Y-60401190D01*
X101567319Y-60639285D02*
X100567319Y-60639285D01*
X100567319Y-60639285D02*
X100567319Y-60258333D01*
X100567319Y-60258333D02*
X100614938Y-60163095D01*
X100614938Y-60163095D02*
X100662557Y-60115476D01*
X100662557Y-60115476D02*
X100757795Y-60067857D01*
X100757795Y-60067857D02*
X100900652Y-60067857D01*
X100900652Y-60067857D02*
X100995890Y-60115476D01*
X100995890Y-60115476D02*
X101043509Y-60163095D01*
X101043509Y-60163095D02*
X101091128Y-60258333D01*
X101091128Y-60258333D02*
X101091128Y-60639285D01*
X101567319Y-59115476D02*
X101567319Y-59686904D01*
X101567319Y-59401190D02*
X100567319Y-59401190D01*
X100567319Y-59401190D02*
X100710176Y-59496428D01*
X100710176Y-59496428D02*
X100805414Y-59591666D01*
X100805414Y-59591666D02*
X100853033Y-59686904D01*
X101567319Y-58163095D02*
X101567319Y-58734523D01*
X101567319Y-58448809D02*
X100567319Y-58448809D01*
X100567319Y-58448809D02*
X100710176Y-58544047D01*
X100710176Y-58544047D02*
X100805414Y-58639285D01*
X100805414Y-58639285D02*
X100853033Y-58734523D01*
X58141905Y-77259819D02*
X58141905Y-76259819D01*
X58141905Y-76259819D02*
X58380000Y-76259819D01*
X58380000Y-76259819D02*
X58522857Y-76307438D01*
X58522857Y-76307438D02*
X58618095Y-76402676D01*
X58618095Y-76402676D02*
X58665714Y-76497914D01*
X58665714Y-76497914D02*
X58713333Y-76688390D01*
X58713333Y-76688390D02*
X58713333Y-76831247D01*
X58713333Y-76831247D02*
X58665714Y-77021723D01*
X58665714Y-77021723D02*
X58618095Y-77116961D01*
X58618095Y-77116961D02*
X58522857Y-77212200D01*
X58522857Y-77212200D02*
X58380000Y-77259819D01*
X58380000Y-77259819D02*
X58141905Y-77259819D01*
X59046667Y-76259819D02*
X59665714Y-76259819D01*
X59665714Y-76259819D02*
X59332381Y-76640771D01*
X59332381Y-76640771D02*
X59475238Y-76640771D01*
X59475238Y-76640771D02*
X59570476Y-76688390D01*
X59570476Y-76688390D02*
X59618095Y-76736009D01*
X59618095Y-76736009D02*
X59665714Y-76831247D01*
X59665714Y-76831247D02*
X59665714Y-77069342D01*
X59665714Y-77069342D02*
X59618095Y-77164580D01*
X59618095Y-77164580D02*
X59570476Y-77212200D01*
X59570476Y-77212200D02*
X59475238Y-77259819D01*
X59475238Y-77259819D02*
X59189524Y-77259819D01*
X59189524Y-77259819D02*
X59094286Y-77212200D01*
X59094286Y-77212200D02*
X59046667Y-77164580D01*
X44186667Y-94107200D02*
X44329524Y-94154819D01*
X44329524Y-94154819D02*
X44567619Y-94154819D01*
X44567619Y-94154819D02*
X44662857Y-94107200D01*
X44662857Y-94107200D02*
X44710476Y-94059580D01*
X44710476Y-94059580D02*
X44758095Y-93964342D01*
X44758095Y-93964342D02*
X44758095Y-93869104D01*
X44758095Y-93869104D02*
X44710476Y-93773866D01*
X44710476Y-93773866D02*
X44662857Y-93726247D01*
X44662857Y-93726247D02*
X44567619Y-93678628D01*
X44567619Y-93678628D02*
X44377143Y-93631009D01*
X44377143Y-93631009D02*
X44281905Y-93583390D01*
X44281905Y-93583390D02*
X44234286Y-93535771D01*
X44234286Y-93535771D02*
X44186667Y-93440533D01*
X44186667Y-93440533D02*
X44186667Y-93345295D01*
X44186667Y-93345295D02*
X44234286Y-93250057D01*
X44234286Y-93250057D02*
X44281905Y-93202438D01*
X44281905Y-93202438D02*
X44377143Y-93154819D01*
X44377143Y-93154819D02*
X44615238Y-93154819D01*
X44615238Y-93154819D02*
X44758095Y-93202438D01*
X45091429Y-93154819D02*
X45329524Y-94154819D01*
X45329524Y-94154819D02*
X45520000Y-93440533D01*
X45520000Y-93440533D02*
X45710476Y-94154819D01*
X45710476Y-94154819D02*
X45948572Y-93154819D01*
X46281905Y-93250057D02*
X46329524Y-93202438D01*
X46329524Y-93202438D02*
X46424762Y-93154819D01*
X46424762Y-93154819D02*
X46662857Y-93154819D01*
X46662857Y-93154819D02*
X46758095Y-93202438D01*
X46758095Y-93202438D02*
X46805714Y-93250057D01*
X46805714Y-93250057D02*
X46853333Y-93345295D01*
X46853333Y-93345295D02*
X46853333Y-93440533D01*
X46853333Y-93440533D02*
X46805714Y-93583390D01*
X46805714Y-93583390D02*
X46234286Y-94154819D01*
X46234286Y-94154819D02*
X46853333Y-94154819D01*
X88763809Y-81638628D02*
X88763809Y-82114819D01*
X88430476Y-81114819D02*
X88763809Y-81638628D01*
X88763809Y-81638628D02*
X89097142Y-81114819D01*
X89954285Y-82114819D02*
X89382857Y-82114819D01*
X89668571Y-82114819D02*
X89668571Y-81114819D01*
X89668571Y-81114819D02*
X89573333Y-81257676D01*
X89573333Y-81257676D02*
X89478095Y-81352914D01*
X89478095Y-81352914D02*
X89382857Y-81400533D01*
X86539580Y-110605357D02*
X86587200Y-110652976D01*
X86587200Y-110652976D02*
X86634819Y-110795833D01*
X86634819Y-110795833D02*
X86634819Y-110891071D01*
X86634819Y-110891071D02*
X86587200Y-111033928D01*
X86587200Y-111033928D02*
X86491961Y-111129166D01*
X86491961Y-111129166D02*
X86396723Y-111176785D01*
X86396723Y-111176785D02*
X86206247Y-111224404D01*
X86206247Y-111224404D02*
X86063390Y-111224404D01*
X86063390Y-111224404D02*
X85872914Y-111176785D01*
X85872914Y-111176785D02*
X85777676Y-111129166D01*
X85777676Y-111129166D02*
X85682438Y-111033928D01*
X85682438Y-111033928D02*
X85634819Y-110891071D01*
X85634819Y-110891071D02*
X85634819Y-110795833D01*
X85634819Y-110795833D02*
X85682438Y-110652976D01*
X85682438Y-110652976D02*
X85730057Y-110605357D01*
X86634819Y-109652976D02*
X86634819Y-110224404D01*
X86634819Y-109938690D02*
X85634819Y-109938690D01*
X85634819Y-109938690D02*
X85777676Y-110033928D01*
X85777676Y-110033928D02*
X85872914Y-110129166D01*
X85872914Y-110129166D02*
X85920533Y-110224404D01*
X86634819Y-108700595D02*
X86634819Y-109272023D01*
X86634819Y-108986309D02*
X85634819Y-108986309D01*
X85634819Y-108986309D02*
X85777676Y-109081547D01*
X85777676Y-109081547D02*
X85872914Y-109176785D01*
X85872914Y-109176785D02*
X85920533Y-109272023D01*
X61444580Y-64110357D02*
X61492200Y-64157976D01*
X61492200Y-64157976D02*
X61539819Y-64300833D01*
X61539819Y-64300833D02*
X61539819Y-64396071D01*
X61539819Y-64396071D02*
X61492200Y-64538928D01*
X61492200Y-64538928D02*
X61396961Y-64634166D01*
X61396961Y-64634166D02*
X61301723Y-64681785D01*
X61301723Y-64681785D02*
X61111247Y-64729404D01*
X61111247Y-64729404D02*
X60968390Y-64729404D01*
X60968390Y-64729404D02*
X60777914Y-64681785D01*
X60777914Y-64681785D02*
X60682676Y-64634166D01*
X60682676Y-64634166D02*
X60587438Y-64538928D01*
X60587438Y-64538928D02*
X60539819Y-64396071D01*
X60539819Y-64396071D02*
X60539819Y-64300833D01*
X60539819Y-64300833D02*
X60587438Y-64157976D01*
X60587438Y-64157976D02*
X60635057Y-64110357D01*
X60635057Y-63729404D02*
X60587438Y-63681785D01*
X60587438Y-63681785D02*
X60539819Y-63586547D01*
X60539819Y-63586547D02*
X60539819Y-63348452D01*
X60539819Y-63348452D02*
X60587438Y-63253214D01*
X60587438Y-63253214D02*
X60635057Y-63205595D01*
X60635057Y-63205595D02*
X60730295Y-63157976D01*
X60730295Y-63157976D02*
X60825533Y-63157976D01*
X60825533Y-63157976D02*
X60968390Y-63205595D01*
X60968390Y-63205595D02*
X61539819Y-63777023D01*
X61539819Y-63777023D02*
X61539819Y-63157976D01*
X60539819Y-62300833D02*
X60539819Y-62491309D01*
X60539819Y-62491309D02*
X60587438Y-62586547D01*
X60587438Y-62586547D02*
X60635057Y-62634166D01*
X60635057Y-62634166D02*
X60777914Y-62729404D01*
X60777914Y-62729404D02*
X60968390Y-62777023D01*
X60968390Y-62777023D02*
X61349342Y-62777023D01*
X61349342Y-62777023D02*
X61444580Y-62729404D01*
X61444580Y-62729404D02*
X61492200Y-62681785D01*
X61492200Y-62681785D02*
X61539819Y-62586547D01*
X61539819Y-62586547D02*
X61539819Y-62396071D01*
X61539819Y-62396071D02*
X61492200Y-62300833D01*
X61492200Y-62300833D02*
X61444580Y-62253214D01*
X61444580Y-62253214D02*
X61349342Y-62205595D01*
X61349342Y-62205595D02*
X61111247Y-62205595D01*
X61111247Y-62205595D02*
X61016009Y-62253214D01*
X61016009Y-62253214D02*
X60968390Y-62300833D01*
X60968390Y-62300833D02*
X60920771Y-62396071D01*
X60920771Y-62396071D02*
X60920771Y-62586547D01*
X60920771Y-62586547D02*
X60968390Y-62681785D01*
X60968390Y-62681785D02*
X61016009Y-62729404D01*
X61016009Y-62729404D02*
X61111247Y-62777023D01*
X64571666Y-63959819D02*
X64571666Y-64674104D01*
X64571666Y-64674104D02*
X64524047Y-64816961D01*
X64524047Y-64816961D02*
X64428809Y-64912200D01*
X64428809Y-64912200D02*
X64285952Y-64959819D01*
X64285952Y-64959819D02*
X64190714Y-64959819D01*
X64952619Y-63959819D02*
X65571666Y-63959819D01*
X65571666Y-63959819D02*
X65238333Y-64340771D01*
X65238333Y-64340771D02*
X65381190Y-64340771D01*
X65381190Y-64340771D02*
X65476428Y-64388390D01*
X65476428Y-64388390D02*
X65524047Y-64436009D01*
X65524047Y-64436009D02*
X65571666Y-64531247D01*
X65571666Y-64531247D02*
X65571666Y-64769342D01*
X65571666Y-64769342D02*
X65524047Y-64864580D01*
X65524047Y-64864580D02*
X65476428Y-64912200D01*
X65476428Y-64912200D02*
X65381190Y-64959819D01*
X65381190Y-64959819D02*
X65095476Y-64959819D01*
X65095476Y-64959819D02*
X65000238Y-64912200D01*
X65000238Y-64912200D02*
X64952619Y-64864580D01*
X71258095Y-101984819D02*
X71258095Y-102794342D01*
X71258095Y-102794342D02*
X71305714Y-102889580D01*
X71305714Y-102889580D02*
X71353333Y-102937200D01*
X71353333Y-102937200D02*
X71448571Y-102984819D01*
X71448571Y-102984819D02*
X71639047Y-102984819D01*
X71639047Y-102984819D02*
X71734285Y-102937200D01*
X71734285Y-102937200D02*
X71781904Y-102889580D01*
X71781904Y-102889580D02*
X71829523Y-102794342D01*
X71829523Y-102794342D02*
X71829523Y-101984819D01*
X72734285Y-102318152D02*
X72734285Y-102984819D01*
X72496190Y-101937200D02*
X72258095Y-102651485D01*
X72258095Y-102651485D02*
X72877142Y-102651485D01*
X56199580Y-90242857D02*
X56247200Y-90290476D01*
X56247200Y-90290476D02*
X56294819Y-90433333D01*
X56294819Y-90433333D02*
X56294819Y-90528571D01*
X56294819Y-90528571D02*
X56247200Y-90671428D01*
X56247200Y-90671428D02*
X56151961Y-90766666D01*
X56151961Y-90766666D02*
X56056723Y-90814285D01*
X56056723Y-90814285D02*
X55866247Y-90861904D01*
X55866247Y-90861904D02*
X55723390Y-90861904D01*
X55723390Y-90861904D02*
X55532914Y-90814285D01*
X55532914Y-90814285D02*
X55437676Y-90766666D01*
X55437676Y-90766666D02*
X55342438Y-90671428D01*
X55342438Y-90671428D02*
X55294819Y-90528571D01*
X55294819Y-90528571D02*
X55294819Y-90433333D01*
X55294819Y-90433333D02*
X55342438Y-90290476D01*
X55342438Y-90290476D02*
X55390057Y-90242857D01*
X56294819Y-89290476D02*
X56294819Y-89861904D01*
X56294819Y-89576190D02*
X55294819Y-89576190D01*
X55294819Y-89576190D02*
X55437676Y-89671428D01*
X55437676Y-89671428D02*
X55532914Y-89766666D01*
X55532914Y-89766666D02*
X55580533Y-89861904D01*
X55294819Y-88957142D02*
X55294819Y-88338095D01*
X55294819Y-88338095D02*
X55675771Y-88671428D01*
X55675771Y-88671428D02*
X55675771Y-88528571D01*
X55675771Y-88528571D02*
X55723390Y-88433333D01*
X55723390Y-88433333D02*
X55771009Y-88385714D01*
X55771009Y-88385714D02*
X55866247Y-88338095D01*
X55866247Y-88338095D02*
X56104342Y-88338095D01*
X56104342Y-88338095D02*
X56199580Y-88385714D01*
X56199580Y-88385714D02*
X56247200Y-88433333D01*
X56247200Y-88433333D02*
X56294819Y-88528571D01*
X56294819Y-88528571D02*
X56294819Y-88814285D01*
X56294819Y-88814285D02*
X56247200Y-88909523D01*
X56247200Y-88909523D02*
X56199580Y-88957142D01*
X63333333Y-103804819D02*
X63000000Y-103328628D01*
X62761905Y-103804819D02*
X62761905Y-102804819D01*
X62761905Y-102804819D02*
X63142857Y-102804819D01*
X63142857Y-102804819D02*
X63238095Y-102852438D01*
X63238095Y-102852438D02*
X63285714Y-102900057D01*
X63285714Y-102900057D02*
X63333333Y-102995295D01*
X63333333Y-102995295D02*
X63333333Y-103138152D01*
X63333333Y-103138152D02*
X63285714Y-103233390D01*
X63285714Y-103233390D02*
X63238095Y-103281009D01*
X63238095Y-103281009D02*
X63142857Y-103328628D01*
X63142857Y-103328628D02*
X62761905Y-103328628D01*
X64190476Y-103138152D02*
X64190476Y-103804819D01*
X63952381Y-102757200D02*
X63714286Y-103471485D01*
X63714286Y-103471485D02*
X64333333Y-103471485D01*
X122059819Y-34446666D02*
X121583628Y-34779999D01*
X122059819Y-35018094D02*
X121059819Y-35018094D01*
X121059819Y-35018094D02*
X121059819Y-34637142D01*
X121059819Y-34637142D02*
X121107438Y-34541904D01*
X121107438Y-34541904D02*
X121155057Y-34494285D01*
X121155057Y-34494285D02*
X121250295Y-34446666D01*
X121250295Y-34446666D02*
X121393152Y-34446666D01*
X121393152Y-34446666D02*
X121488390Y-34494285D01*
X121488390Y-34494285D02*
X121536009Y-34541904D01*
X121536009Y-34541904D02*
X121583628Y-34637142D01*
X121583628Y-34637142D02*
X121583628Y-35018094D01*
X121059819Y-34113332D02*
X121059819Y-33494285D01*
X121059819Y-33494285D02*
X121440771Y-33827618D01*
X121440771Y-33827618D02*
X121440771Y-33684761D01*
X121440771Y-33684761D02*
X121488390Y-33589523D01*
X121488390Y-33589523D02*
X121536009Y-33541904D01*
X121536009Y-33541904D02*
X121631247Y-33494285D01*
X121631247Y-33494285D02*
X121869342Y-33494285D01*
X121869342Y-33494285D02*
X121964580Y-33541904D01*
X121964580Y-33541904D02*
X122012200Y-33589523D01*
X122012200Y-33589523D02*
X122059819Y-33684761D01*
X122059819Y-33684761D02*
X122059819Y-33970475D01*
X122059819Y-33970475D02*
X122012200Y-34065713D01*
X122012200Y-34065713D02*
X121964580Y-34113332D01*
X95274345Y-39397319D02*
X95274345Y-40206842D01*
X95274345Y-40206842D02*
X95321964Y-40302080D01*
X95321964Y-40302080D02*
X95369583Y-40349700D01*
X95369583Y-40349700D02*
X95464821Y-40397319D01*
X95464821Y-40397319D02*
X95655297Y-40397319D01*
X95655297Y-40397319D02*
X95750535Y-40349700D01*
X95750535Y-40349700D02*
X95798154Y-40302080D01*
X95798154Y-40302080D02*
X95845773Y-40206842D01*
X95845773Y-40206842D02*
X95845773Y-39397319D01*
X96226726Y-39397319D02*
X96845773Y-39397319D01*
X96845773Y-39397319D02*
X96512440Y-39778271D01*
X96512440Y-39778271D02*
X96655297Y-39778271D01*
X96655297Y-39778271D02*
X96750535Y-39825890D01*
X96750535Y-39825890D02*
X96798154Y-39873509D01*
X96798154Y-39873509D02*
X96845773Y-39968747D01*
X96845773Y-39968747D02*
X96845773Y-40206842D01*
X96845773Y-40206842D02*
X96798154Y-40302080D01*
X96798154Y-40302080D02*
X96750535Y-40349700D01*
X96750535Y-40349700D02*
X96655297Y-40397319D01*
X96655297Y-40397319D02*
X96369583Y-40397319D01*
X96369583Y-40397319D02*
X96274345Y-40349700D01*
X96274345Y-40349700D02*
X96226726Y-40302080D01*
X76039580Y-114605357D02*
X76087200Y-114652976D01*
X76087200Y-114652976D02*
X76134819Y-114795833D01*
X76134819Y-114795833D02*
X76134819Y-114891071D01*
X76134819Y-114891071D02*
X76087200Y-115033928D01*
X76087200Y-115033928D02*
X75991961Y-115129166D01*
X75991961Y-115129166D02*
X75896723Y-115176785D01*
X75896723Y-115176785D02*
X75706247Y-115224404D01*
X75706247Y-115224404D02*
X75563390Y-115224404D01*
X75563390Y-115224404D02*
X75372914Y-115176785D01*
X75372914Y-115176785D02*
X75277676Y-115129166D01*
X75277676Y-115129166D02*
X75182438Y-115033928D01*
X75182438Y-115033928D02*
X75134819Y-114891071D01*
X75134819Y-114891071D02*
X75134819Y-114795833D01*
X75134819Y-114795833D02*
X75182438Y-114652976D01*
X75182438Y-114652976D02*
X75230057Y-114605357D01*
X76134819Y-113652976D02*
X76134819Y-114224404D01*
X76134819Y-113938690D02*
X75134819Y-113938690D01*
X75134819Y-113938690D02*
X75277676Y-114033928D01*
X75277676Y-114033928D02*
X75372914Y-114129166D01*
X75372914Y-114129166D02*
X75420533Y-114224404D01*
X75134819Y-113033928D02*
X75134819Y-112938690D01*
X75134819Y-112938690D02*
X75182438Y-112843452D01*
X75182438Y-112843452D02*
X75230057Y-112795833D01*
X75230057Y-112795833D02*
X75325295Y-112748214D01*
X75325295Y-112748214D02*
X75515771Y-112700595D01*
X75515771Y-112700595D02*
X75753866Y-112700595D01*
X75753866Y-112700595D02*
X75944342Y-112748214D01*
X75944342Y-112748214D02*
X76039580Y-112795833D01*
X76039580Y-112795833D02*
X76087200Y-112843452D01*
X76087200Y-112843452D02*
X76134819Y-112938690D01*
X76134819Y-112938690D02*
X76134819Y-113033928D01*
X76134819Y-113033928D02*
X76087200Y-113129166D01*
X76087200Y-113129166D02*
X76039580Y-113176785D01*
X76039580Y-113176785D02*
X75944342Y-113224404D01*
X75944342Y-113224404D02*
X75753866Y-113272023D01*
X75753866Y-113272023D02*
X75515771Y-113272023D01*
X75515771Y-113272023D02*
X75325295Y-113224404D01*
X75325295Y-113224404D02*
X75230057Y-113176785D01*
X75230057Y-113176785D02*
X75182438Y-113129166D01*
X75182438Y-113129166D02*
X75134819Y-113033928D01*
X116994580Y-34484166D02*
X117042200Y-34531785D01*
X117042200Y-34531785D02*
X117089819Y-34674642D01*
X117089819Y-34674642D02*
X117089819Y-34769880D01*
X117089819Y-34769880D02*
X117042200Y-34912737D01*
X117042200Y-34912737D02*
X116946961Y-35007975D01*
X116946961Y-35007975D02*
X116851723Y-35055594D01*
X116851723Y-35055594D02*
X116661247Y-35103213D01*
X116661247Y-35103213D02*
X116518390Y-35103213D01*
X116518390Y-35103213D02*
X116327914Y-35055594D01*
X116327914Y-35055594D02*
X116232676Y-35007975D01*
X116232676Y-35007975D02*
X116137438Y-34912737D01*
X116137438Y-34912737D02*
X116089819Y-34769880D01*
X116089819Y-34769880D02*
X116089819Y-34674642D01*
X116089819Y-34674642D02*
X116137438Y-34531785D01*
X116137438Y-34531785D02*
X116185057Y-34484166D01*
X116089819Y-33579404D02*
X116089819Y-34055594D01*
X116089819Y-34055594D02*
X116566009Y-34103213D01*
X116566009Y-34103213D02*
X116518390Y-34055594D01*
X116518390Y-34055594D02*
X116470771Y-33960356D01*
X116470771Y-33960356D02*
X116470771Y-33722261D01*
X116470771Y-33722261D02*
X116518390Y-33627023D01*
X116518390Y-33627023D02*
X116566009Y-33579404D01*
X116566009Y-33579404D02*
X116661247Y-33531785D01*
X116661247Y-33531785D02*
X116899342Y-33531785D01*
X116899342Y-33531785D02*
X116994580Y-33579404D01*
X116994580Y-33579404D02*
X117042200Y-33627023D01*
X117042200Y-33627023D02*
X117089819Y-33722261D01*
X117089819Y-33722261D02*
X117089819Y-33960356D01*
X117089819Y-33960356D02*
X117042200Y-34055594D01*
X117042200Y-34055594D02*
X116994580Y-34103213D01*
X85713333Y-27584819D02*
X85237143Y-27584819D01*
X85237143Y-27584819D02*
X85237143Y-26584819D01*
X86570476Y-27584819D02*
X85999048Y-27584819D01*
X86284762Y-27584819D02*
X86284762Y-26584819D01*
X86284762Y-26584819D02*
X86189524Y-26727676D01*
X86189524Y-26727676D02*
X86094286Y-26822914D01*
X86094286Y-26822914D02*
X85999048Y-26870533D01*
X58141905Y-71259819D02*
X58141905Y-70259819D01*
X58141905Y-70259819D02*
X58380000Y-70259819D01*
X58380000Y-70259819D02*
X58522857Y-70307438D01*
X58522857Y-70307438D02*
X58618095Y-70402676D01*
X58618095Y-70402676D02*
X58665714Y-70497914D01*
X58665714Y-70497914D02*
X58713333Y-70688390D01*
X58713333Y-70688390D02*
X58713333Y-70831247D01*
X58713333Y-70831247D02*
X58665714Y-71021723D01*
X58665714Y-71021723D02*
X58618095Y-71116961D01*
X58618095Y-71116961D02*
X58522857Y-71212200D01*
X58522857Y-71212200D02*
X58380000Y-71259819D01*
X58380000Y-71259819D02*
X58141905Y-71259819D01*
X59570476Y-70593152D02*
X59570476Y-71259819D01*
X59332381Y-70212200D02*
X59094286Y-70926485D01*
X59094286Y-70926485D02*
X59713333Y-70926485D01*
X53712142Y-74559819D02*
X53378809Y-74083628D01*
X53140714Y-74559819D02*
X53140714Y-73559819D01*
X53140714Y-73559819D02*
X53521666Y-73559819D01*
X53521666Y-73559819D02*
X53616904Y-73607438D01*
X53616904Y-73607438D02*
X53664523Y-73655057D01*
X53664523Y-73655057D02*
X53712142Y-73750295D01*
X53712142Y-73750295D02*
X53712142Y-73893152D01*
X53712142Y-73893152D02*
X53664523Y-73988390D01*
X53664523Y-73988390D02*
X53616904Y-74036009D01*
X53616904Y-74036009D02*
X53521666Y-74083628D01*
X53521666Y-74083628D02*
X53140714Y-74083628D01*
X54664523Y-74559819D02*
X54093095Y-74559819D01*
X54378809Y-74559819D02*
X54378809Y-73559819D01*
X54378809Y-73559819D02*
X54283571Y-73702676D01*
X54283571Y-73702676D02*
X54188333Y-73797914D01*
X54188333Y-73797914D02*
X54093095Y-73845533D01*
X55569285Y-73559819D02*
X55093095Y-73559819D01*
X55093095Y-73559819D02*
X55045476Y-74036009D01*
X55045476Y-74036009D02*
X55093095Y-73988390D01*
X55093095Y-73988390D02*
X55188333Y-73940771D01*
X55188333Y-73940771D02*
X55426428Y-73940771D01*
X55426428Y-73940771D02*
X55521666Y-73988390D01*
X55521666Y-73988390D02*
X55569285Y-74036009D01*
X55569285Y-74036009D02*
X55616904Y-74131247D01*
X55616904Y-74131247D02*
X55616904Y-74369342D01*
X55616904Y-74369342D02*
X55569285Y-74464580D01*
X55569285Y-74464580D02*
X55521666Y-74512200D01*
X55521666Y-74512200D02*
X55426428Y-74559819D01*
X55426428Y-74559819D02*
X55188333Y-74559819D01*
X55188333Y-74559819D02*
X55093095Y-74512200D01*
X55093095Y-74512200D02*
X55045476Y-74464580D01*
X98969580Y-33921666D02*
X99017200Y-33969285D01*
X99017200Y-33969285D02*
X99064819Y-34112142D01*
X99064819Y-34112142D02*
X99064819Y-34207380D01*
X99064819Y-34207380D02*
X99017200Y-34350237D01*
X99017200Y-34350237D02*
X98921961Y-34445475D01*
X98921961Y-34445475D02*
X98826723Y-34493094D01*
X98826723Y-34493094D02*
X98636247Y-34540713D01*
X98636247Y-34540713D02*
X98493390Y-34540713D01*
X98493390Y-34540713D02*
X98302914Y-34493094D01*
X98302914Y-34493094D02*
X98207676Y-34445475D01*
X98207676Y-34445475D02*
X98112438Y-34350237D01*
X98112438Y-34350237D02*
X98064819Y-34207380D01*
X98064819Y-34207380D02*
X98064819Y-34112142D01*
X98064819Y-34112142D02*
X98112438Y-33969285D01*
X98112438Y-33969285D02*
X98160057Y-33921666D01*
X98064819Y-33588332D02*
X98064819Y-32969285D01*
X98064819Y-32969285D02*
X98445771Y-33302618D01*
X98445771Y-33302618D02*
X98445771Y-33159761D01*
X98445771Y-33159761D02*
X98493390Y-33064523D01*
X98493390Y-33064523D02*
X98541009Y-33016904D01*
X98541009Y-33016904D02*
X98636247Y-32969285D01*
X98636247Y-32969285D02*
X98874342Y-32969285D01*
X98874342Y-32969285D02*
X98969580Y-33016904D01*
X98969580Y-33016904D02*
X99017200Y-33064523D01*
X99017200Y-33064523D02*
X99064819Y-33159761D01*
X99064819Y-33159761D02*
X99064819Y-33445475D01*
X99064819Y-33445475D02*
X99017200Y-33540713D01*
X99017200Y-33540713D02*
X98969580Y-33588332D01*
X109438330Y-42446666D02*
X109485950Y-42494285D01*
X109485950Y-42494285D02*
X109533569Y-42637142D01*
X109533569Y-42637142D02*
X109533569Y-42732380D01*
X109533569Y-42732380D02*
X109485950Y-42875237D01*
X109485950Y-42875237D02*
X109390711Y-42970475D01*
X109390711Y-42970475D02*
X109295473Y-43018094D01*
X109295473Y-43018094D02*
X109104997Y-43065713D01*
X109104997Y-43065713D02*
X108962140Y-43065713D01*
X108962140Y-43065713D02*
X108771664Y-43018094D01*
X108771664Y-43018094D02*
X108676426Y-42970475D01*
X108676426Y-42970475D02*
X108581188Y-42875237D01*
X108581188Y-42875237D02*
X108533569Y-42732380D01*
X108533569Y-42732380D02*
X108533569Y-42637142D01*
X108533569Y-42637142D02*
X108581188Y-42494285D01*
X108581188Y-42494285D02*
X108628807Y-42446666D01*
X108962140Y-41875237D02*
X108914521Y-41970475D01*
X108914521Y-41970475D02*
X108866902Y-42018094D01*
X108866902Y-42018094D02*
X108771664Y-42065713D01*
X108771664Y-42065713D02*
X108724045Y-42065713D01*
X108724045Y-42065713D02*
X108628807Y-42018094D01*
X108628807Y-42018094D02*
X108581188Y-41970475D01*
X108581188Y-41970475D02*
X108533569Y-41875237D01*
X108533569Y-41875237D02*
X108533569Y-41684761D01*
X108533569Y-41684761D02*
X108581188Y-41589523D01*
X108581188Y-41589523D02*
X108628807Y-41541904D01*
X108628807Y-41541904D02*
X108724045Y-41494285D01*
X108724045Y-41494285D02*
X108771664Y-41494285D01*
X108771664Y-41494285D02*
X108866902Y-41541904D01*
X108866902Y-41541904D02*
X108914521Y-41589523D01*
X108914521Y-41589523D02*
X108962140Y-41684761D01*
X108962140Y-41684761D02*
X108962140Y-41875237D01*
X108962140Y-41875237D02*
X109009759Y-41970475D01*
X109009759Y-41970475D02*
X109057378Y-42018094D01*
X109057378Y-42018094D02*
X109152616Y-42065713D01*
X109152616Y-42065713D02*
X109343092Y-42065713D01*
X109343092Y-42065713D02*
X109438330Y-42018094D01*
X109438330Y-42018094D02*
X109485950Y-41970475D01*
X109485950Y-41970475D02*
X109533569Y-41875237D01*
X109533569Y-41875237D02*
X109533569Y-41684761D01*
X109533569Y-41684761D02*
X109485950Y-41589523D01*
X109485950Y-41589523D02*
X109438330Y-41541904D01*
X109438330Y-41541904D02*
X109343092Y-41494285D01*
X109343092Y-41494285D02*
X109152616Y-41494285D01*
X109152616Y-41494285D02*
X109057378Y-41541904D01*
X109057378Y-41541904D02*
X109009759Y-41589523D01*
X109009759Y-41589523D02*
X108962140Y-41684761D01*
X86219580Y-67935357D02*
X86267200Y-67982976D01*
X86267200Y-67982976D02*
X86314819Y-68125833D01*
X86314819Y-68125833D02*
X86314819Y-68221071D01*
X86314819Y-68221071D02*
X86267200Y-68363928D01*
X86267200Y-68363928D02*
X86171961Y-68459166D01*
X86171961Y-68459166D02*
X86076723Y-68506785D01*
X86076723Y-68506785D02*
X85886247Y-68554404D01*
X85886247Y-68554404D02*
X85743390Y-68554404D01*
X85743390Y-68554404D02*
X85552914Y-68506785D01*
X85552914Y-68506785D02*
X85457676Y-68459166D01*
X85457676Y-68459166D02*
X85362438Y-68363928D01*
X85362438Y-68363928D02*
X85314819Y-68221071D01*
X85314819Y-68221071D02*
X85314819Y-68125833D01*
X85314819Y-68125833D02*
X85362438Y-67982976D01*
X85362438Y-67982976D02*
X85410057Y-67935357D01*
X85410057Y-67554404D02*
X85362438Y-67506785D01*
X85362438Y-67506785D02*
X85314819Y-67411547D01*
X85314819Y-67411547D02*
X85314819Y-67173452D01*
X85314819Y-67173452D02*
X85362438Y-67078214D01*
X85362438Y-67078214D02*
X85410057Y-67030595D01*
X85410057Y-67030595D02*
X85505295Y-66982976D01*
X85505295Y-66982976D02*
X85600533Y-66982976D01*
X85600533Y-66982976D02*
X85743390Y-67030595D01*
X85743390Y-67030595D02*
X86314819Y-67602023D01*
X86314819Y-67602023D02*
X86314819Y-66982976D01*
X85648152Y-66125833D02*
X86314819Y-66125833D01*
X85267200Y-66363928D02*
X85981485Y-66602023D01*
X85981485Y-66602023D02*
X85981485Y-65982976D01*
X79574642Y-79934580D02*
X79527023Y-79982200D01*
X79527023Y-79982200D02*
X79384166Y-80029819D01*
X79384166Y-80029819D02*
X79288928Y-80029819D01*
X79288928Y-80029819D02*
X79146071Y-79982200D01*
X79146071Y-79982200D02*
X79050833Y-79886961D01*
X79050833Y-79886961D02*
X79003214Y-79791723D01*
X79003214Y-79791723D02*
X78955595Y-79601247D01*
X78955595Y-79601247D02*
X78955595Y-79458390D01*
X78955595Y-79458390D02*
X79003214Y-79267914D01*
X79003214Y-79267914D02*
X79050833Y-79172676D01*
X79050833Y-79172676D02*
X79146071Y-79077438D01*
X79146071Y-79077438D02*
X79288928Y-79029819D01*
X79288928Y-79029819D02*
X79384166Y-79029819D01*
X79384166Y-79029819D02*
X79527023Y-79077438D01*
X79527023Y-79077438D02*
X79574642Y-79125057D01*
X80527023Y-80029819D02*
X79955595Y-80029819D01*
X80241309Y-80029819D02*
X80241309Y-79029819D01*
X80241309Y-79029819D02*
X80146071Y-79172676D01*
X80146071Y-79172676D02*
X80050833Y-79267914D01*
X80050833Y-79267914D02*
X79955595Y-79315533D01*
X81098452Y-79458390D02*
X81003214Y-79410771D01*
X81003214Y-79410771D02*
X80955595Y-79363152D01*
X80955595Y-79363152D02*
X80907976Y-79267914D01*
X80907976Y-79267914D02*
X80907976Y-79220295D01*
X80907976Y-79220295D02*
X80955595Y-79125057D01*
X80955595Y-79125057D02*
X81003214Y-79077438D01*
X81003214Y-79077438D02*
X81098452Y-79029819D01*
X81098452Y-79029819D02*
X81288928Y-79029819D01*
X81288928Y-79029819D02*
X81384166Y-79077438D01*
X81384166Y-79077438D02*
X81431785Y-79125057D01*
X81431785Y-79125057D02*
X81479404Y-79220295D01*
X81479404Y-79220295D02*
X81479404Y-79267914D01*
X81479404Y-79267914D02*
X81431785Y-79363152D01*
X81431785Y-79363152D02*
X81384166Y-79410771D01*
X81384166Y-79410771D02*
X81288928Y-79458390D01*
X81288928Y-79458390D02*
X81098452Y-79458390D01*
X81098452Y-79458390D02*
X81003214Y-79506009D01*
X81003214Y-79506009D02*
X80955595Y-79553628D01*
X80955595Y-79553628D02*
X80907976Y-79648866D01*
X80907976Y-79648866D02*
X80907976Y-79839342D01*
X80907976Y-79839342D02*
X80955595Y-79934580D01*
X80955595Y-79934580D02*
X81003214Y-79982200D01*
X81003214Y-79982200D02*
X81098452Y-80029819D01*
X81098452Y-80029819D02*
X81288928Y-80029819D01*
X81288928Y-80029819D02*
X81384166Y-79982200D01*
X81384166Y-79982200D02*
X81431785Y-79934580D01*
X81431785Y-79934580D02*
X81479404Y-79839342D01*
X81479404Y-79839342D02*
X81479404Y-79648866D01*
X81479404Y-79648866D02*
X81431785Y-79553628D01*
X81431785Y-79553628D02*
X81384166Y-79506009D01*
X81384166Y-79506009D02*
X81288928Y-79458390D01*
X64662319Y-89766666D02*
X64186128Y-90099999D01*
X64662319Y-90338094D02*
X63662319Y-90338094D01*
X63662319Y-90338094D02*
X63662319Y-89957142D01*
X63662319Y-89957142D02*
X63709938Y-89861904D01*
X63709938Y-89861904D02*
X63757557Y-89814285D01*
X63757557Y-89814285D02*
X63852795Y-89766666D01*
X63852795Y-89766666D02*
X63995652Y-89766666D01*
X63995652Y-89766666D02*
X64090890Y-89814285D01*
X64090890Y-89814285D02*
X64138509Y-89861904D01*
X64138509Y-89861904D02*
X64186128Y-89957142D01*
X64186128Y-89957142D02*
X64186128Y-90338094D01*
X63662319Y-89433332D02*
X63662319Y-88766666D01*
X63662319Y-88766666D02*
X64662319Y-89195237D01*
X86037142Y-74934580D02*
X85989523Y-74982200D01*
X85989523Y-74982200D02*
X85846666Y-75029819D01*
X85846666Y-75029819D02*
X85751428Y-75029819D01*
X85751428Y-75029819D02*
X85608571Y-74982200D01*
X85608571Y-74982200D02*
X85513333Y-74886961D01*
X85513333Y-74886961D02*
X85465714Y-74791723D01*
X85465714Y-74791723D02*
X85418095Y-74601247D01*
X85418095Y-74601247D02*
X85418095Y-74458390D01*
X85418095Y-74458390D02*
X85465714Y-74267914D01*
X85465714Y-74267914D02*
X85513333Y-74172676D01*
X85513333Y-74172676D02*
X85608571Y-74077438D01*
X85608571Y-74077438D02*
X85751428Y-74029819D01*
X85751428Y-74029819D02*
X85846666Y-74029819D01*
X85846666Y-74029819D02*
X85989523Y-74077438D01*
X85989523Y-74077438D02*
X86037142Y-74125057D01*
X86989523Y-75029819D02*
X86418095Y-75029819D01*
X86703809Y-75029819D02*
X86703809Y-74029819D01*
X86703809Y-74029819D02*
X86608571Y-74172676D01*
X86608571Y-74172676D02*
X86513333Y-74267914D01*
X86513333Y-74267914D02*
X86418095Y-74315533D01*
X87322857Y-74029819D02*
X87989523Y-74029819D01*
X87989523Y-74029819D02*
X87560952Y-75029819D01*
X90423904Y-94652180D02*
X90423904Y-93842657D01*
X90423904Y-93842657D02*
X90376285Y-93747419D01*
X90376285Y-93747419D02*
X90328666Y-93699800D01*
X90328666Y-93699800D02*
X90233428Y-93652180D01*
X90233428Y-93652180D02*
X90042952Y-93652180D01*
X90042952Y-93652180D02*
X89947714Y-93699800D01*
X89947714Y-93699800D02*
X89900095Y-93747419D01*
X89900095Y-93747419D02*
X89852476Y-93842657D01*
X89852476Y-93842657D02*
X89852476Y-94652180D01*
X88900095Y-94652180D02*
X89376285Y-94652180D01*
X89376285Y-94652180D02*
X89423904Y-94175990D01*
X89423904Y-94175990D02*
X89376285Y-94223609D01*
X89376285Y-94223609D02*
X89281047Y-94271228D01*
X89281047Y-94271228D02*
X89042952Y-94271228D01*
X89042952Y-94271228D02*
X88947714Y-94223609D01*
X88947714Y-94223609D02*
X88900095Y-94175990D01*
X88900095Y-94175990D02*
X88852476Y-94080752D01*
X88852476Y-94080752D02*
X88852476Y-93842657D01*
X88852476Y-93842657D02*
X88900095Y-93747419D01*
X88900095Y-93747419D02*
X88947714Y-93699800D01*
X88947714Y-93699800D02*
X89042952Y-93652180D01*
X89042952Y-93652180D02*
X89281047Y-93652180D01*
X89281047Y-93652180D02*
X89376285Y-93699800D01*
X89376285Y-93699800D02*
X89423904Y-93747419D01*
X94259580Y-102010357D02*
X94307200Y-102057976D01*
X94307200Y-102057976D02*
X94354819Y-102200833D01*
X94354819Y-102200833D02*
X94354819Y-102296071D01*
X94354819Y-102296071D02*
X94307200Y-102438928D01*
X94307200Y-102438928D02*
X94211961Y-102534166D01*
X94211961Y-102534166D02*
X94116723Y-102581785D01*
X94116723Y-102581785D02*
X93926247Y-102629404D01*
X93926247Y-102629404D02*
X93783390Y-102629404D01*
X93783390Y-102629404D02*
X93592914Y-102581785D01*
X93592914Y-102581785D02*
X93497676Y-102534166D01*
X93497676Y-102534166D02*
X93402438Y-102438928D01*
X93402438Y-102438928D02*
X93354819Y-102296071D01*
X93354819Y-102296071D02*
X93354819Y-102200833D01*
X93354819Y-102200833D02*
X93402438Y-102057976D01*
X93402438Y-102057976D02*
X93450057Y-102010357D01*
X94354819Y-101057976D02*
X94354819Y-101629404D01*
X94354819Y-101343690D02*
X93354819Y-101343690D01*
X93354819Y-101343690D02*
X93497676Y-101438928D01*
X93497676Y-101438928D02*
X93592914Y-101534166D01*
X93592914Y-101534166D02*
X93640533Y-101629404D01*
X93354819Y-100153214D02*
X93354819Y-100629404D01*
X93354819Y-100629404D02*
X93831009Y-100677023D01*
X93831009Y-100677023D02*
X93783390Y-100629404D01*
X93783390Y-100629404D02*
X93735771Y-100534166D01*
X93735771Y-100534166D02*
X93735771Y-100296071D01*
X93735771Y-100296071D02*
X93783390Y-100200833D01*
X93783390Y-100200833D02*
X93831009Y-100153214D01*
X93831009Y-100153214D02*
X93926247Y-100105595D01*
X93926247Y-100105595D02*
X94164342Y-100105595D01*
X94164342Y-100105595D02*
X94259580Y-100153214D01*
X94259580Y-100153214D02*
X94307200Y-100200833D01*
X94307200Y-100200833D02*
X94354819Y-100296071D01*
X94354819Y-100296071D02*
X94354819Y-100534166D01*
X94354819Y-100534166D02*
X94307200Y-100629404D01*
X94307200Y-100629404D02*
X94259580Y-100677023D01*
X72666905Y-90259819D02*
X72666905Y-89259819D01*
X72666905Y-89259819D02*
X72905000Y-89259819D01*
X72905000Y-89259819D02*
X73047857Y-89307438D01*
X73047857Y-89307438D02*
X73143095Y-89402676D01*
X73143095Y-89402676D02*
X73190714Y-89497914D01*
X73190714Y-89497914D02*
X73238333Y-89688390D01*
X73238333Y-89688390D02*
X73238333Y-89831247D01*
X73238333Y-89831247D02*
X73190714Y-90021723D01*
X73190714Y-90021723D02*
X73143095Y-90116961D01*
X73143095Y-90116961D02*
X73047857Y-90212200D01*
X73047857Y-90212200D02*
X72905000Y-90259819D01*
X72905000Y-90259819D02*
X72666905Y-90259819D01*
X73619286Y-89355057D02*
X73666905Y-89307438D01*
X73666905Y-89307438D02*
X73762143Y-89259819D01*
X73762143Y-89259819D02*
X74000238Y-89259819D01*
X74000238Y-89259819D02*
X74095476Y-89307438D01*
X74095476Y-89307438D02*
X74143095Y-89355057D01*
X74143095Y-89355057D02*
X74190714Y-89450295D01*
X74190714Y-89450295D02*
X74190714Y-89545533D01*
X74190714Y-89545533D02*
X74143095Y-89688390D01*
X74143095Y-89688390D02*
X73571667Y-90259819D01*
X73571667Y-90259819D02*
X74190714Y-90259819D01*
X96542319Y-60067857D02*
X96066128Y-60401190D01*
X96542319Y-60639285D02*
X95542319Y-60639285D01*
X95542319Y-60639285D02*
X95542319Y-60258333D01*
X95542319Y-60258333D02*
X95589938Y-60163095D01*
X95589938Y-60163095D02*
X95637557Y-60115476D01*
X95637557Y-60115476D02*
X95732795Y-60067857D01*
X95732795Y-60067857D02*
X95875652Y-60067857D01*
X95875652Y-60067857D02*
X95970890Y-60115476D01*
X95970890Y-60115476D02*
X96018509Y-60163095D01*
X96018509Y-60163095D02*
X96066128Y-60258333D01*
X96066128Y-60258333D02*
X96066128Y-60639285D01*
X96542319Y-59115476D02*
X96542319Y-59686904D01*
X96542319Y-59401190D02*
X95542319Y-59401190D01*
X95542319Y-59401190D02*
X95685176Y-59496428D01*
X95685176Y-59496428D02*
X95780414Y-59591666D01*
X95780414Y-59591666D02*
X95828033Y-59686904D01*
X95542319Y-58496428D02*
X95542319Y-58401190D01*
X95542319Y-58401190D02*
X95589938Y-58305952D01*
X95589938Y-58305952D02*
X95637557Y-58258333D01*
X95637557Y-58258333D02*
X95732795Y-58210714D01*
X95732795Y-58210714D02*
X95923271Y-58163095D01*
X95923271Y-58163095D02*
X96161366Y-58163095D01*
X96161366Y-58163095D02*
X96351842Y-58210714D01*
X96351842Y-58210714D02*
X96447080Y-58258333D01*
X96447080Y-58258333D02*
X96494700Y-58305952D01*
X96494700Y-58305952D02*
X96542319Y-58401190D01*
X96542319Y-58401190D02*
X96542319Y-58496428D01*
X96542319Y-58496428D02*
X96494700Y-58591666D01*
X96494700Y-58591666D02*
X96447080Y-58639285D01*
X96447080Y-58639285D02*
X96351842Y-58686904D01*
X96351842Y-58686904D02*
X96161366Y-58734523D01*
X96161366Y-58734523D02*
X95923271Y-58734523D01*
X95923271Y-58734523D02*
X95732795Y-58686904D01*
X95732795Y-58686904D02*
X95637557Y-58639285D01*
X95637557Y-58639285D02*
X95589938Y-58591666D01*
X95589938Y-58591666D02*
X95542319Y-58496428D01*
X56164580Y-64110357D02*
X56212200Y-64157976D01*
X56212200Y-64157976D02*
X56259819Y-64300833D01*
X56259819Y-64300833D02*
X56259819Y-64396071D01*
X56259819Y-64396071D02*
X56212200Y-64538928D01*
X56212200Y-64538928D02*
X56116961Y-64634166D01*
X56116961Y-64634166D02*
X56021723Y-64681785D01*
X56021723Y-64681785D02*
X55831247Y-64729404D01*
X55831247Y-64729404D02*
X55688390Y-64729404D01*
X55688390Y-64729404D02*
X55497914Y-64681785D01*
X55497914Y-64681785D02*
X55402676Y-64634166D01*
X55402676Y-64634166D02*
X55307438Y-64538928D01*
X55307438Y-64538928D02*
X55259819Y-64396071D01*
X55259819Y-64396071D02*
X55259819Y-64300833D01*
X55259819Y-64300833D02*
X55307438Y-64157976D01*
X55307438Y-64157976D02*
X55355057Y-64110357D01*
X55355057Y-63729404D02*
X55307438Y-63681785D01*
X55307438Y-63681785D02*
X55259819Y-63586547D01*
X55259819Y-63586547D02*
X55259819Y-63348452D01*
X55259819Y-63348452D02*
X55307438Y-63253214D01*
X55307438Y-63253214D02*
X55355057Y-63205595D01*
X55355057Y-63205595D02*
X55450295Y-63157976D01*
X55450295Y-63157976D02*
X55545533Y-63157976D01*
X55545533Y-63157976D02*
X55688390Y-63205595D01*
X55688390Y-63205595D02*
X56259819Y-63777023D01*
X56259819Y-63777023D02*
X56259819Y-63157976D01*
X55259819Y-62824642D02*
X55259819Y-62157976D01*
X55259819Y-62157976D02*
X56259819Y-62586547D01*
X70068095Y-48109819D02*
X70068095Y-48919342D01*
X70068095Y-48919342D02*
X70115714Y-49014580D01*
X70115714Y-49014580D02*
X70163333Y-49062200D01*
X70163333Y-49062200D02*
X70258571Y-49109819D01*
X70258571Y-49109819D02*
X70449047Y-49109819D01*
X70449047Y-49109819D02*
X70544285Y-49062200D01*
X70544285Y-49062200D02*
X70591904Y-49014580D01*
X70591904Y-49014580D02*
X70639523Y-48919342D01*
X70639523Y-48919342D02*
X70639523Y-48109819D01*
X71020476Y-48109819D02*
X71687142Y-48109819D01*
X71687142Y-48109819D02*
X71258571Y-49109819D01*
X68237142Y-93559819D02*
X67903809Y-93083628D01*
X67665714Y-93559819D02*
X67665714Y-92559819D01*
X67665714Y-92559819D02*
X68046666Y-92559819D01*
X68046666Y-92559819D02*
X68141904Y-92607438D01*
X68141904Y-92607438D02*
X68189523Y-92655057D01*
X68189523Y-92655057D02*
X68237142Y-92750295D01*
X68237142Y-92750295D02*
X68237142Y-92893152D01*
X68237142Y-92893152D02*
X68189523Y-92988390D01*
X68189523Y-92988390D02*
X68141904Y-93036009D01*
X68141904Y-93036009D02*
X68046666Y-93083628D01*
X68046666Y-93083628D02*
X67665714Y-93083628D01*
X69189523Y-93559819D02*
X68618095Y-93559819D01*
X68903809Y-93559819D02*
X68903809Y-92559819D01*
X68903809Y-92559819D02*
X68808571Y-92702676D01*
X68808571Y-92702676D02*
X68713333Y-92797914D01*
X68713333Y-92797914D02*
X68618095Y-92845533D01*
X70046666Y-92559819D02*
X69856190Y-92559819D01*
X69856190Y-92559819D02*
X69760952Y-92607438D01*
X69760952Y-92607438D02*
X69713333Y-92655057D01*
X69713333Y-92655057D02*
X69618095Y-92797914D01*
X69618095Y-92797914D02*
X69570476Y-92988390D01*
X69570476Y-92988390D02*
X69570476Y-93369342D01*
X69570476Y-93369342D02*
X69618095Y-93464580D01*
X69618095Y-93464580D02*
X69665714Y-93512200D01*
X69665714Y-93512200D02*
X69760952Y-93559819D01*
X69760952Y-93559819D02*
X69951428Y-93559819D01*
X69951428Y-93559819D02*
X70046666Y-93512200D01*
X70046666Y-93512200D02*
X70094285Y-93464580D01*
X70094285Y-93464580D02*
X70141904Y-93369342D01*
X70141904Y-93369342D02*
X70141904Y-93131247D01*
X70141904Y-93131247D02*
X70094285Y-93036009D01*
X70094285Y-93036009D02*
X70046666Y-92988390D01*
X70046666Y-92988390D02*
X69951428Y-92940771D01*
X69951428Y-92940771D02*
X69760952Y-92940771D01*
X69760952Y-92940771D02*
X69665714Y-92988390D01*
X69665714Y-92988390D02*
X69618095Y-93036009D01*
X69618095Y-93036009D02*
X69570476Y-93131247D01*
X54238333Y-57809819D02*
X53762143Y-57809819D01*
X53762143Y-57809819D02*
X53762143Y-56809819D01*
X54476429Y-56809819D02*
X55095476Y-56809819D01*
X55095476Y-56809819D02*
X54762143Y-57190771D01*
X54762143Y-57190771D02*
X54905000Y-57190771D01*
X54905000Y-57190771D02*
X55000238Y-57238390D01*
X55000238Y-57238390D02*
X55047857Y-57286009D01*
X55047857Y-57286009D02*
X55095476Y-57381247D01*
X55095476Y-57381247D02*
X55095476Y-57619342D01*
X55095476Y-57619342D02*
X55047857Y-57714580D01*
X55047857Y-57714580D02*
X55000238Y-57762200D01*
X55000238Y-57762200D02*
X54905000Y-57809819D01*
X54905000Y-57809819D02*
X54619286Y-57809819D01*
X54619286Y-57809819D02*
X54524048Y-57762200D01*
X54524048Y-57762200D02*
X54476429Y-57714580D01*
X104438330Y-42409166D02*
X104485950Y-42456785D01*
X104485950Y-42456785D02*
X104533569Y-42599642D01*
X104533569Y-42599642D02*
X104533569Y-42694880D01*
X104533569Y-42694880D02*
X104485950Y-42837737D01*
X104485950Y-42837737D02*
X104390711Y-42932975D01*
X104390711Y-42932975D02*
X104295473Y-42980594D01*
X104295473Y-42980594D02*
X104104997Y-43028213D01*
X104104997Y-43028213D02*
X103962140Y-43028213D01*
X103962140Y-43028213D02*
X103771664Y-42980594D01*
X103771664Y-42980594D02*
X103676426Y-42932975D01*
X103676426Y-42932975D02*
X103581188Y-42837737D01*
X103581188Y-42837737D02*
X103533569Y-42694880D01*
X103533569Y-42694880D02*
X103533569Y-42599642D01*
X103533569Y-42599642D02*
X103581188Y-42456785D01*
X103581188Y-42456785D02*
X103628807Y-42409166D01*
X103533569Y-42075832D02*
X103533569Y-41409166D01*
X103533569Y-41409166D02*
X104533569Y-41837737D01*
X82029580Y-110680357D02*
X82077200Y-110727976D01*
X82077200Y-110727976D02*
X82124819Y-110870833D01*
X82124819Y-110870833D02*
X82124819Y-110966071D01*
X82124819Y-110966071D02*
X82077200Y-111108928D01*
X82077200Y-111108928D02*
X81981961Y-111204166D01*
X81981961Y-111204166D02*
X81886723Y-111251785D01*
X81886723Y-111251785D02*
X81696247Y-111299404D01*
X81696247Y-111299404D02*
X81553390Y-111299404D01*
X81553390Y-111299404D02*
X81362914Y-111251785D01*
X81362914Y-111251785D02*
X81267676Y-111204166D01*
X81267676Y-111204166D02*
X81172438Y-111108928D01*
X81172438Y-111108928D02*
X81124819Y-110966071D01*
X81124819Y-110966071D02*
X81124819Y-110870833D01*
X81124819Y-110870833D02*
X81172438Y-110727976D01*
X81172438Y-110727976D02*
X81220057Y-110680357D01*
X82124819Y-109727976D02*
X82124819Y-110299404D01*
X82124819Y-110013690D02*
X81124819Y-110013690D01*
X81124819Y-110013690D02*
X81267676Y-110108928D01*
X81267676Y-110108928D02*
X81362914Y-110204166D01*
X81362914Y-110204166D02*
X81410533Y-110299404D01*
X81220057Y-109347023D02*
X81172438Y-109299404D01*
X81172438Y-109299404D02*
X81124819Y-109204166D01*
X81124819Y-109204166D02*
X81124819Y-108966071D01*
X81124819Y-108966071D02*
X81172438Y-108870833D01*
X81172438Y-108870833D02*
X81220057Y-108823214D01*
X81220057Y-108823214D02*
X81315295Y-108775595D01*
X81315295Y-108775595D02*
X81410533Y-108775595D01*
X81410533Y-108775595D02*
X81553390Y-108823214D01*
X81553390Y-108823214D02*
X82124819Y-109394642D01*
X82124819Y-109394642D02*
X82124819Y-108775595D01*
X111994580Y-34409166D02*
X112042200Y-34456785D01*
X112042200Y-34456785D02*
X112089819Y-34599642D01*
X112089819Y-34599642D02*
X112089819Y-34694880D01*
X112089819Y-34694880D02*
X112042200Y-34837737D01*
X112042200Y-34837737D02*
X111946961Y-34932975D01*
X111946961Y-34932975D02*
X111851723Y-34980594D01*
X111851723Y-34980594D02*
X111661247Y-35028213D01*
X111661247Y-35028213D02*
X111518390Y-35028213D01*
X111518390Y-35028213D02*
X111327914Y-34980594D01*
X111327914Y-34980594D02*
X111232676Y-34932975D01*
X111232676Y-34932975D02*
X111137438Y-34837737D01*
X111137438Y-34837737D02*
X111089819Y-34694880D01*
X111089819Y-34694880D02*
X111089819Y-34599642D01*
X111089819Y-34599642D02*
X111137438Y-34456785D01*
X111137438Y-34456785D02*
X111185057Y-34409166D01*
X111423152Y-33552023D02*
X112089819Y-33552023D01*
X111042200Y-33790118D02*
X111756485Y-34028213D01*
X111756485Y-34028213D02*
X111756485Y-33409166D01*
X75719580Y-67972857D02*
X75767200Y-68020476D01*
X75767200Y-68020476D02*
X75814819Y-68163333D01*
X75814819Y-68163333D02*
X75814819Y-68258571D01*
X75814819Y-68258571D02*
X75767200Y-68401428D01*
X75767200Y-68401428D02*
X75671961Y-68496666D01*
X75671961Y-68496666D02*
X75576723Y-68544285D01*
X75576723Y-68544285D02*
X75386247Y-68591904D01*
X75386247Y-68591904D02*
X75243390Y-68591904D01*
X75243390Y-68591904D02*
X75052914Y-68544285D01*
X75052914Y-68544285D02*
X74957676Y-68496666D01*
X74957676Y-68496666D02*
X74862438Y-68401428D01*
X74862438Y-68401428D02*
X74814819Y-68258571D01*
X74814819Y-68258571D02*
X74814819Y-68163333D01*
X74814819Y-68163333D02*
X74862438Y-68020476D01*
X74862438Y-68020476D02*
X74910057Y-67972857D01*
X74910057Y-67591904D02*
X74862438Y-67544285D01*
X74862438Y-67544285D02*
X74814819Y-67449047D01*
X74814819Y-67449047D02*
X74814819Y-67210952D01*
X74814819Y-67210952D02*
X74862438Y-67115714D01*
X74862438Y-67115714D02*
X74910057Y-67068095D01*
X74910057Y-67068095D02*
X75005295Y-67020476D01*
X75005295Y-67020476D02*
X75100533Y-67020476D01*
X75100533Y-67020476D02*
X75243390Y-67068095D01*
X75243390Y-67068095D02*
X75814819Y-67639523D01*
X75814819Y-67639523D02*
X75814819Y-67020476D01*
X74814819Y-66401428D02*
X74814819Y-66306190D01*
X74814819Y-66306190D02*
X74862438Y-66210952D01*
X74862438Y-66210952D02*
X74910057Y-66163333D01*
X74910057Y-66163333D02*
X75005295Y-66115714D01*
X75005295Y-66115714D02*
X75195771Y-66068095D01*
X75195771Y-66068095D02*
X75433866Y-66068095D01*
X75433866Y-66068095D02*
X75624342Y-66115714D01*
X75624342Y-66115714D02*
X75719580Y-66163333D01*
X75719580Y-66163333D02*
X75767200Y-66210952D01*
X75767200Y-66210952D02*
X75814819Y-66306190D01*
X75814819Y-66306190D02*
X75814819Y-66401428D01*
X75814819Y-66401428D02*
X75767200Y-66496666D01*
X75767200Y-66496666D02*
X75719580Y-66544285D01*
X75719580Y-66544285D02*
X75624342Y-66591904D01*
X75624342Y-66591904D02*
X75433866Y-66639523D01*
X75433866Y-66639523D02*
X75195771Y-66639523D01*
X75195771Y-66639523D02*
X75005295Y-66591904D01*
X75005295Y-66591904D02*
X74910057Y-66544285D01*
X74910057Y-66544285D02*
X74862438Y-66496666D01*
X74862438Y-66496666D02*
X74814819Y-66401428D01*
X58686667Y-94107200D02*
X58829524Y-94154819D01*
X58829524Y-94154819D02*
X59067619Y-94154819D01*
X59067619Y-94154819D02*
X59162857Y-94107200D01*
X59162857Y-94107200D02*
X59210476Y-94059580D01*
X59210476Y-94059580D02*
X59258095Y-93964342D01*
X59258095Y-93964342D02*
X59258095Y-93869104D01*
X59258095Y-93869104D02*
X59210476Y-93773866D01*
X59210476Y-93773866D02*
X59162857Y-93726247D01*
X59162857Y-93726247D02*
X59067619Y-93678628D01*
X59067619Y-93678628D02*
X58877143Y-93631009D01*
X58877143Y-93631009D02*
X58781905Y-93583390D01*
X58781905Y-93583390D02*
X58734286Y-93535771D01*
X58734286Y-93535771D02*
X58686667Y-93440533D01*
X58686667Y-93440533D02*
X58686667Y-93345295D01*
X58686667Y-93345295D02*
X58734286Y-93250057D01*
X58734286Y-93250057D02*
X58781905Y-93202438D01*
X58781905Y-93202438D02*
X58877143Y-93154819D01*
X58877143Y-93154819D02*
X59115238Y-93154819D01*
X59115238Y-93154819D02*
X59258095Y-93202438D01*
X59591429Y-93154819D02*
X59829524Y-94154819D01*
X59829524Y-94154819D02*
X60020000Y-93440533D01*
X60020000Y-93440533D02*
X60210476Y-94154819D01*
X60210476Y-94154819D02*
X60448572Y-93154819D01*
X61353333Y-94154819D02*
X60781905Y-94154819D01*
X61067619Y-94154819D02*
X61067619Y-93154819D01*
X61067619Y-93154819D02*
X60972381Y-93297676D01*
X60972381Y-93297676D02*
X60877143Y-93392914D01*
X60877143Y-93392914D02*
X60781905Y-93440533D01*
X57618095Y-81349819D02*
X58189523Y-81349819D01*
X57903809Y-82349819D02*
X57903809Y-81349819D01*
X58522857Y-82349819D02*
X58522857Y-81349819D01*
X58522857Y-81349819D02*
X58903809Y-81349819D01*
X58903809Y-81349819D02*
X58999047Y-81397438D01*
X58999047Y-81397438D02*
X59046666Y-81445057D01*
X59046666Y-81445057D02*
X59094285Y-81540295D01*
X59094285Y-81540295D02*
X59094285Y-81683152D01*
X59094285Y-81683152D02*
X59046666Y-81778390D01*
X59046666Y-81778390D02*
X58999047Y-81826009D01*
X58999047Y-81826009D02*
X58903809Y-81873628D01*
X58903809Y-81873628D02*
X58522857Y-81873628D01*
X60046666Y-82349819D02*
X59475238Y-82349819D01*
X59760952Y-82349819D02*
X59760952Y-81349819D01*
X59760952Y-81349819D02*
X59665714Y-81492676D01*
X59665714Y-81492676D02*
X59570476Y-81587914D01*
X59570476Y-81587914D02*
X59475238Y-81635533D01*
X90419580Y-33409166D02*
X90467200Y-33456785D01*
X90467200Y-33456785D02*
X90514819Y-33599642D01*
X90514819Y-33599642D02*
X90514819Y-33694880D01*
X90514819Y-33694880D02*
X90467200Y-33837737D01*
X90467200Y-33837737D02*
X90371961Y-33932975D01*
X90371961Y-33932975D02*
X90276723Y-33980594D01*
X90276723Y-33980594D02*
X90086247Y-34028213D01*
X90086247Y-34028213D02*
X89943390Y-34028213D01*
X89943390Y-34028213D02*
X89752914Y-33980594D01*
X89752914Y-33980594D02*
X89657676Y-33932975D01*
X89657676Y-33932975D02*
X89562438Y-33837737D01*
X89562438Y-33837737D02*
X89514819Y-33694880D01*
X89514819Y-33694880D02*
X89514819Y-33599642D01*
X89514819Y-33599642D02*
X89562438Y-33456785D01*
X89562438Y-33456785D02*
X89610057Y-33409166D01*
X89610057Y-33028213D02*
X89562438Y-32980594D01*
X89562438Y-32980594D02*
X89514819Y-32885356D01*
X89514819Y-32885356D02*
X89514819Y-32647261D01*
X89514819Y-32647261D02*
X89562438Y-32552023D01*
X89562438Y-32552023D02*
X89610057Y-32504404D01*
X89610057Y-32504404D02*
X89705295Y-32456785D01*
X89705295Y-32456785D02*
X89800533Y-32456785D01*
X89800533Y-32456785D02*
X89943390Y-32504404D01*
X89943390Y-32504404D02*
X90514819Y-33075832D01*
X90514819Y-33075832D02*
X90514819Y-32456785D01*
X71368095Y-74659819D02*
X71368095Y-75469342D01*
X71368095Y-75469342D02*
X71415714Y-75564580D01*
X71415714Y-75564580D02*
X71463333Y-75612200D01*
X71463333Y-75612200D02*
X71558571Y-75659819D01*
X71558571Y-75659819D02*
X71749047Y-75659819D01*
X71749047Y-75659819D02*
X71844285Y-75612200D01*
X71844285Y-75612200D02*
X71891904Y-75564580D01*
X71891904Y-75564580D02*
X71939523Y-75469342D01*
X71939523Y-75469342D02*
X71939523Y-74659819D01*
X72939523Y-75659819D02*
X72368095Y-75659819D01*
X72653809Y-75659819D02*
X72653809Y-74659819D01*
X72653809Y-74659819D02*
X72558571Y-74802676D01*
X72558571Y-74802676D02*
X72463333Y-74897914D01*
X72463333Y-74897914D02*
X72368095Y-74945533D01*
X78333333Y-107454819D02*
X78000000Y-106978628D01*
X77761905Y-107454819D02*
X77761905Y-106454819D01*
X77761905Y-106454819D02*
X78142857Y-106454819D01*
X78142857Y-106454819D02*
X78238095Y-106502438D01*
X78238095Y-106502438D02*
X78285714Y-106550057D01*
X78285714Y-106550057D02*
X78333333Y-106645295D01*
X78333333Y-106645295D02*
X78333333Y-106788152D01*
X78333333Y-106788152D02*
X78285714Y-106883390D01*
X78285714Y-106883390D02*
X78238095Y-106931009D01*
X78238095Y-106931009D02*
X78142857Y-106978628D01*
X78142857Y-106978628D02*
X77761905Y-106978628D01*
X79190476Y-106454819D02*
X79000000Y-106454819D01*
X79000000Y-106454819D02*
X78904762Y-106502438D01*
X78904762Y-106502438D02*
X78857143Y-106550057D01*
X78857143Y-106550057D02*
X78761905Y-106692914D01*
X78761905Y-106692914D02*
X78714286Y-106883390D01*
X78714286Y-106883390D02*
X78714286Y-107264342D01*
X78714286Y-107264342D02*
X78761905Y-107359580D01*
X78761905Y-107359580D02*
X78809524Y-107407200D01*
X78809524Y-107407200D02*
X78904762Y-107454819D01*
X78904762Y-107454819D02*
X79095238Y-107454819D01*
X79095238Y-107454819D02*
X79190476Y-107407200D01*
X79190476Y-107407200D02*
X79238095Y-107359580D01*
X79238095Y-107359580D02*
X79285714Y-107264342D01*
X79285714Y-107264342D02*
X79285714Y-107026247D01*
X79285714Y-107026247D02*
X79238095Y-106931009D01*
X79238095Y-106931009D02*
X79190476Y-106883390D01*
X79190476Y-106883390D02*
X79095238Y-106835771D01*
X79095238Y-106835771D02*
X78904762Y-106835771D01*
X78904762Y-106835771D02*
X78809524Y-106883390D01*
X78809524Y-106883390D02*
X78761905Y-106931009D01*
X78761905Y-106931009D02*
X78714286Y-107026247D01*
X80013333Y-75059819D02*
X79680000Y-74583628D01*
X79441905Y-75059819D02*
X79441905Y-74059819D01*
X79441905Y-74059819D02*
X79822857Y-74059819D01*
X79822857Y-74059819D02*
X79918095Y-74107438D01*
X79918095Y-74107438D02*
X79965714Y-74155057D01*
X79965714Y-74155057D02*
X80013333Y-74250295D01*
X80013333Y-74250295D02*
X80013333Y-74393152D01*
X80013333Y-74393152D02*
X79965714Y-74488390D01*
X79965714Y-74488390D02*
X79918095Y-74536009D01*
X79918095Y-74536009D02*
X79822857Y-74583628D01*
X79822857Y-74583628D02*
X79441905Y-74583628D01*
X80489524Y-75059819D02*
X80680000Y-75059819D01*
X80680000Y-75059819D02*
X80775238Y-75012200D01*
X80775238Y-75012200D02*
X80822857Y-74964580D01*
X80822857Y-74964580D02*
X80918095Y-74821723D01*
X80918095Y-74821723D02*
X80965714Y-74631247D01*
X80965714Y-74631247D02*
X80965714Y-74250295D01*
X80965714Y-74250295D02*
X80918095Y-74155057D01*
X80918095Y-74155057D02*
X80870476Y-74107438D01*
X80870476Y-74107438D02*
X80775238Y-74059819D01*
X80775238Y-74059819D02*
X80584762Y-74059819D01*
X80584762Y-74059819D02*
X80489524Y-74107438D01*
X80489524Y-74107438D02*
X80441905Y-74155057D01*
X80441905Y-74155057D02*
X80394286Y-74250295D01*
X80394286Y-74250295D02*
X80394286Y-74488390D01*
X80394286Y-74488390D02*
X80441905Y-74583628D01*
X80441905Y-74583628D02*
X80489524Y-74631247D01*
X80489524Y-74631247D02*
X80584762Y-74678866D01*
X80584762Y-74678866D02*
X80775238Y-74678866D01*
X80775238Y-74678866D02*
X80870476Y-74631247D01*
X80870476Y-74631247D02*
X80918095Y-74583628D01*
X80918095Y-74583628D02*
X80965714Y-74488390D01*
X108000595Y-57479819D02*
X108000595Y-58289342D01*
X108000595Y-58289342D02*
X108048214Y-58384580D01*
X108048214Y-58384580D02*
X108095833Y-58432200D01*
X108095833Y-58432200D02*
X108191071Y-58479819D01*
X108191071Y-58479819D02*
X108381547Y-58479819D01*
X108381547Y-58479819D02*
X108476785Y-58432200D01*
X108476785Y-58432200D02*
X108524404Y-58384580D01*
X108524404Y-58384580D02*
X108572023Y-58289342D01*
X108572023Y-58289342D02*
X108572023Y-57479819D01*
X109476785Y-57479819D02*
X109286309Y-57479819D01*
X109286309Y-57479819D02*
X109191071Y-57527438D01*
X109191071Y-57527438D02*
X109143452Y-57575057D01*
X109143452Y-57575057D02*
X109048214Y-57717914D01*
X109048214Y-57717914D02*
X109000595Y-57908390D01*
X109000595Y-57908390D02*
X109000595Y-58289342D01*
X109000595Y-58289342D02*
X109048214Y-58384580D01*
X109048214Y-58384580D02*
X109095833Y-58432200D01*
X109095833Y-58432200D02*
X109191071Y-58479819D01*
X109191071Y-58479819D02*
X109381547Y-58479819D01*
X109381547Y-58479819D02*
X109476785Y-58432200D01*
X109476785Y-58432200D02*
X109524404Y-58384580D01*
X109524404Y-58384580D02*
X109572023Y-58289342D01*
X109572023Y-58289342D02*
X109572023Y-58051247D01*
X109572023Y-58051247D02*
X109524404Y-57956009D01*
X109524404Y-57956009D02*
X109476785Y-57908390D01*
X109476785Y-57908390D02*
X109381547Y-57860771D01*
X109381547Y-57860771D02*
X109191071Y-57860771D01*
X109191071Y-57860771D02*
X109095833Y-57908390D01*
X109095833Y-57908390D02*
X109048214Y-57956009D01*
X109048214Y-57956009D02*
X109000595Y-58051247D01*
X85919580Y-33446666D02*
X85967200Y-33494285D01*
X85967200Y-33494285D02*
X86014819Y-33637142D01*
X86014819Y-33637142D02*
X86014819Y-33732380D01*
X86014819Y-33732380D02*
X85967200Y-33875237D01*
X85967200Y-33875237D02*
X85871961Y-33970475D01*
X85871961Y-33970475D02*
X85776723Y-34018094D01*
X85776723Y-34018094D02*
X85586247Y-34065713D01*
X85586247Y-34065713D02*
X85443390Y-34065713D01*
X85443390Y-34065713D02*
X85252914Y-34018094D01*
X85252914Y-34018094D02*
X85157676Y-33970475D01*
X85157676Y-33970475D02*
X85062438Y-33875237D01*
X85062438Y-33875237D02*
X85014819Y-33732380D01*
X85014819Y-33732380D02*
X85014819Y-33637142D01*
X85014819Y-33637142D02*
X85062438Y-33494285D01*
X85062438Y-33494285D02*
X85110057Y-33446666D01*
X86014819Y-32494285D02*
X86014819Y-33065713D01*
X86014819Y-32779999D02*
X85014819Y-32779999D01*
X85014819Y-32779999D02*
X85157676Y-32875237D01*
X85157676Y-32875237D02*
X85252914Y-32970475D01*
X85252914Y-32970475D02*
X85300533Y-33065713D01*
X122039580Y-24105357D02*
X122087200Y-24152976D01*
X122087200Y-24152976D02*
X122134819Y-24295833D01*
X122134819Y-24295833D02*
X122134819Y-24391071D01*
X122134819Y-24391071D02*
X122087200Y-24533928D01*
X122087200Y-24533928D02*
X121991961Y-24629166D01*
X121991961Y-24629166D02*
X121896723Y-24676785D01*
X121896723Y-24676785D02*
X121706247Y-24724404D01*
X121706247Y-24724404D02*
X121563390Y-24724404D01*
X121563390Y-24724404D02*
X121372914Y-24676785D01*
X121372914Y-24676785D02*
X121277676Y-24629166D01*
X121277676Y-24629166D02*
X121182438Y-24533928D01*
X121182438Y-24533928D02*
X121134819Y-24391071D01*
X121134819Y-24391071D02*
X121134819Y-24295833D01*
X121134819Y-24295833D02*
X121182438Y-24152976D01*
X121182438Y-24152976D02*
X121230057Y-24105357D01*
X121230057Y-23724404D02*
X121182438Y-23676785D01*
X121182438Y-23676785D02*
X121134819Y-23581547D01*
X121134819Y-23581547D02*
X121134819Y-23343452D01*
X121134819Y-23343452D02*
X121182438Y-23248214D01*
X121182438Y-23248214D02*
X121230057Y-23200595D01*
X121230057Y-23200595D02*
X121325295Y-23152976D01*
X121325295Y-23152976D02*
X121420533Y-23152976D01*
X121420533Y-23152976D02*
X121563390Y-23200595D01*
X121563390Y-23200595D02*
X122134819Y-23772023D01*
X122134819Y-23772023D02*
X122134819Y-23152976D01*
X121134819Y-22248214D02*
X121134819Y-22724404D01*
X121134819Y-22724404D02*
X121611009Y-22772023D01*
X121611009Y-22772023D02*
X121563390Y-22724404D01*
X121563390Y-22724404D02*
X121515771Y-22629166D01*
X121515771Y-22629166D02*
X121515771Y-22391071D01*
X121515771Y-22391071D02*
X121563390Y-22295833D01*
X121563390Y-22295833D02*
X121611009Y-22248214D01*
X121611009Y-22248214D02*
X121706247Y-22200595D01*
X121706247Y-22200595D02*
X121944342Y-22200595D01*
X121944342Y-22200595D02*
X122039580Y-22248214D01*
X122039580Y-22248214D02*
X122087200Y-22295833D01*
X122087200Y-22295833D02*
X122134819Y-22391071D01*
X122134819Y-22391071D02*
X122134819Y-22629166D01*
X122134819Y-22629166D02*
X122087200Y-22724404D01*
X122087200Y-22724404D02*
X122039580Y-22772023D01*
X89759580Y-101935357D02*
X89807200Y-101982976D01*
X89807200Y-101982976D02*
X89854819Y-102125833D01*
X89854819Y-102125833D02*
X89854819Y-102221071D01*
X89854819Y-102221071D02*
X89807200Y-102363928D01*
X89807200Y-102363928D02*
X89711961Y-102459166D01*
X89711961Y-102459166D02*
X89616723Y-102506785D01*
X89616723Y-102506785D02*
X89426247Y-102554404D01*
X89426247Y-102554404D02*
X89283390Y-102554404D01*
X89283390Y-102554404D02*
X89092914Y-102506785D01*
X89092914Y-102506785D02*
X88997676Y-102459166D01*
X88997676Y-102459166D02*
X88902438Y-102363928D01*
X88902438Y-102363928D02*
X88854819Y-102221071D01*
X88854819Y-102221071D02*
X88854819Y-102125833D01*
X88854819Y-102125833D02*
X88902438Y-101982976D01*
X88902438Y-101982976D02*
X88950057Y-101935357D01*
X89854819Y-100982976D02*
X89854819Y-101554404D01*
X89854819Y-101268690D02*
X88854819Y-101268690D01*
X88854819Y-101268690D02*
X88997676Y-101363928D01*
X88997676Y-101363928D02*
X89092914Y-101459166D01*
X89092914Y-101459166D02*
X89140533Y-101554404D01*
X88854819Y-100125833D02*
X88854819Y-100316309D01*
X88854819Y-100316309D02*
X88902438Y-100411547D01*
X88902438Y-100411547D02*
X88950057Y-100459166D01*
X88950057Y-100459166D02*
X89092914Y-100554404D01*
X89092914Y-100554404D02*
X89283390Y-100602023D01*
X89283390Y-100602023D02*
X89664342Y-100602023D01*
X89664342Y-100602023D02*
X89759580Y-100554404D01*
X89759580Y-100554404D02*
X89807200Y-100506785D01*
X89807200Y-100506785D02*
X89854819Y-100411547D01*
X89854819Y-100411547D02*
X89854819Y-100221071D01*
X89854819Y-100221071D02*
X89807200Y-100125833D01*
X89807200Y-100125833D02*
X89759580Y-100078214D01*
X89759580Y-100078214D02*
X89664342Y-100030595D01*
X89664342Y-100030595D02*
X89426247Y-100030595D01*
X89426247Y-100030595D02*
X89331009Y-100078214D01*
X89331009Y-100078214D02*
X89283390Y-100125833D01*
X89283390Y-100125833D02*
X89235771Y-100221071D01*
X89235771Y-100221071D02*
X89235771Y-100411547D01*
X89235771Y-100411547D02*
X89283390Y-100506785D01*
X89283390Y-100506785D02*
X89331009Y-100554404D01*
X89331009Y-100554404D02*
X89426247Y-100602023D01*
X63333333Y-108804819D02*
X63000000Y-108328628D01*
X62761905Y-108804819D02*
X62761905Y-107804819D01*
X62761905Y-107804819D02*
X63142857Y-107804819D01*
X63142857Y-107804819D02*
X63238095Y-107852438D01*
X63238095Y-107852438D02*
X63285714Y-107900057D01*
X63285714Y-107900057D02*
X63333333Y-107995295D01*
X63333333Y-107995295D02*
X63333333Y-108138152D01*
X63333333Y-108138152D02*
X63285714Y-108233390D01*
X63285714Y-108233390D02*
X63238095Y-108281009D01*
X63238095Y-108281009D02*
X63142857Y-108328628D01*
X63142857Y-108328628D02*
X62761905Y-108328628D01*
X64238095Y-107804819D02*
X63761905Y-107804819D01*
X63761905Y-107804819D02*
X63714286Y-108281009D01*
X63714286Y-108281009D02*
X63761905Y-108233390D01*
X63761905Y-108233390D02*
X63857143Y-108185771D01*
X63857143Y-108185771D02*
X64095238Y-108185771D01*
X64095238Y-108185771D02*
X64190476Y-108233390D01*
X64190476Y-108233390D02*
X64238095Y-108281009D01*
X64238095Y-108281009D02*
X64285714Y-108376247D01*
X64285714Y-108376247D02*
X64285714Y-108614342D01*
X64285714Y-108614342D02*
X64238095Y-108709580D01*
X64238095Y-108709580D02*
X64190476Y-108757200D01*
X64190476Y-108757200D02*
X64095238Y-108804819D01*
X64095238Y-108804819D02*
X63857143Y-108804819D01*
X63857143Y-108804819D02*
X63761905Y-108757200D01*
X63761905Y-108757200D02*
X63714286Y-108709580D01*
X77524642Y-42759819D02*
X77191309Y-42283628D01*
X76953214Y-42759819D02*
X76953214Y-41759819D01*
X76953214Y-41759819D02*
X77334166Y-41759819D01*
X77334166Y-41759819D02*
X77429404Y-41807438D01*
X77429404Y-41807438D02*
X77477023Y-41855057D01*
X77477023Y-41855057D02*
X77524642Y-41950295D01*
X77524642Y-41950295D02*
X77524642Y-42093152D01*
X77524642Y-42093152D02*
X77477023Y-42188390D01*
X77477023Y-42188390D02*
X77429404Y-42236009D01*
X77429404Y-42236009D02*
X77334166Y-42283628D01*
X77334166Y-42283628D02*
X76953214Y-42283628D01*
X78477023Y-42759819D02*
X77905595Y-42759819D01*
X78191309Y-42759819D02*
X78191309Y-41759819D01*
X78191309Y-41759819D02*
X78096071Y-41902676D01*
X78096071Y-41902676D02*
X78000833Y-41997914D01*
X78000833Y-41997914D02*
X77905595Y-42045533D01*
X78857976Y-41855057D02*
X78905595Y-41807438D01*
X78905595Y-41807438D02*
X79000833Y-41759819D01*
X79000833Y-41759819D02*
X79238928Y-41759819D01*
X79238928Y-41759819D02*
X79334166Y-41807438D01*
X79334166Y-41807438D02*
X79381785Y-41855057D01*
X79381785Y-41855057D02*
X79429404Y-41950295D01*
X79429404Y-41950295D02*
X79429404Y-42045533D01*
X79429404Y-42045533D02*
X79381785Y-42188390D01*
X79381785Y-42188390D02*
X78810357Y-42759819D01*
X78810357Y-42759819D02*
X79429404Y-42759819D01*
X80988333Y-61134819D02*
X80512143Y-61134819D01*
X80512143Y-61134819D02*
X80512143Y-60134819D01*
X81274048Y-60230057D02*
X81321667Y-60182438D01*
X81321667Y-60182438D02*
X81416905Y-60134819D01*
X81416905Y-60134819D02*
X81655000Y-60134819D01*
X81655000Y-60134819D02*
X81750238Y-60182438D01*
X81750238Y-60182438D02*
X81797857Y-60230057D01*
X81797857Y-60230057D02*
X81845476Y-60325295D01*
X81845476Y-60325295D02*
X81845476Y-60420533D01*
X81845476Y-60420533D02*
X81797857Y-60563390D01*
X81797857Y-60563390D02*
X81226429Y-61134819D01*
X81226429Y-61134819D02*
X81845476Y-61134819D01*
X110539580Y-24142857D02*
X110587200Y-24190476D01*
X110587200Y-24190476D02*
X110634819Y-24333333D01*
X110634819Y-24333333D02*
X110634819Y-24428571D01*
X110634819Y-24428571D02*
X110587200Y-24571428D01*
X110587200Y-24571428D02*
X110491961Y-24666666D01*
X110491961Y-24666666D02*
X110396723Y-24714285D01*
X110396723Y-24714285D02*
X110206247Y-24761904D01*
X110206247Y-24761904D02*
X110063390Y-24761904D01*
X110063390Y-24761904D02*
X109872914Y-24714285D01*
X109872914Y-24714285D02*
X109777676Y-24666666D01*
X109777676Y-24666666D02*
X109682438Y-24571428D01*
X109682438Y-24571428D02*
X109634819Y-24428571D01*
X109634819Y-24428571D02*
X109634819Y-24333333D01*
X109634819Y-24333333D02*
X109682438Y-24190476D01*
X109682438Y-24190476D02*
X109730057Y-24142857D01*
X109730057Y-23761904D02*
X109682438Y-23714285D01*
X109682438Y-23714285D02*
X109634819Y-23619047D01*
X109634819Y-23619047D02*
X109634819Y-23380952D01*
X109634819Y-23380952D02*
X109682438Y-23285714D01*
X109682438Y-23285714D02*
X109730057Y-23238095D01*
X109730057Y-23238095D02*
X109825295Y-23190476D01*
X109825295Y-23190476D02*
X109920533Y-23190476D01*
X109920533Y-23190476D02*
X110063390Y-23238095D01*
X110063390Y-23238095D02*
X110634819Y-23809523D01*
X110634819Y-23809523D02*
X110634819Y-23190476D01*
X110634819Y-22238095D02*
X110634819Y-22809523D01*
X110634819Y-22523809D02*
X109634819Y-22523809D01*
X109634819Y-22523809D02*
X109777676Y-22619047D01*
X109777676Y-22619047D02*
X109872914Y-22714285D01*
X109872914Y-22714285D02*
X109920533Y-22809523D01*
X61734166Y-39959819D02*
X61734166Y-40674104D01*
X61734166Y-40674104D02*
X61686547Y-40816961D01*
X61686547Y-40816961D02*
X61591309Y-40912200D01*
X61591309Y-40912200D02*
X61448452Y-40959819D01*
X61448452Y-40959819D02*
X61353214Y-40959819D01*
X62162738Y-40055057D02*
X62210357Y-40007438D01*
X62210357Y-40007438D02*
X62305595Y-39959819D01*
X62305595Y-39959819D02*
X62543690Y-39959819D01*
X62543690Y-39959819D02*
X62638928Y-40007438D01*
X62638928Y-40007438D02*
X62686547Y-40055057D01*
X62686547Y-40055057D02*
X62734166Y-40150295D01*
X62734166Y-40150295D02*
X62734166Y-40245533D01*
X62734166Y-40245533D02*
X62686547Y-40388390D01*
X62686547Y-40388390D02*
X62115119Y-40959819D01*
X62115119Y-40959819D02*
X62734166Y-40959819D01*
X114716905Y-30884819D02*
X114716905Y-29884819D01*
X114716905Y-29884819D02*
X114955000Y-29884819D01*
X114955000Y-29884819D02*
X115097857Y-29932438D01*
X115097857Y-29932438D02*
X115193095Y-30027676D01*
X115193095Y-30027676D02*
X115240714Y-30122914D01*
X115240714Y-30122914D02*
X115288333Y-30313390D01*
X115288333Y-30313390D02*
X115288333Y-30456247D01*
X115288333Y-30456247D02*
X115240714Y-30646723D01*
X115240714Y-30646723D02*
X115193095Y-30741961D01*
X115193095Y-30741961D02*
X115097857Y-30837200D01*
X115097857Y-30837200D02*
X114955000Y-30884819D01*
X114955000Y-30884819D02*
X114716905Y-30884819D01*
X116240714Y-30884819D02*
X115669286Y-30884819D01*
X115955000Y-30884819D02*
X115955000Y-29884819D01*
X115955000Y-29884819D02*
X115859762Y-30027676D01*
X115859762Y-30027676D02*
X115764524Y-30122914D01*
X115764524Y-30122914D02*
X115669286Y-30170533D01*
X50104819Y-89916666D02*
X49628628Y-90249999D01*
X50104819Y-90488094D02*
X49104819Y-90488094D01*
X49104819Y-90488094D02*
X49104819Y-90107142D01*
X49104819Y-90107142D02*
X49152438Y-90011904D01*
X49152438Y-90011904D02*
X49200057Y-89964285D01*
X49200057Y-89964285D02*
X49295295Y-89916666D01*
X49295295Y-89916666D02*
X49438152Y-89916666D01*
X49438152Y-89916666D02*
X49533390Y-89964285D01*
X49533390Y-89964285D02*
X49581009Y-90011904D01*
X49581009Y-90011904D02*
X49628628Y-90107142D01*
X49628628Y-90107142D02*
X49628628Y-90488094D01*
X49533390Y-89345237D02*
X49485771Y-89440475D01*
X49485771Y-89440475D02*
X49438152Y-89488094D01*
X49438152Y-89488094D02*
X49342914Y-89535713D01*
X49342914Y-89535713D02*
X49295295Y-89535713D01*
X49295295Y-89535713D02*
X49200057Y-89488094D01*
X49200057Y-89488094D02*
X49152438Y-89440475D01*
X49152438Y-89440475D02*
X49104819Y-89345237D01*
X49104819Y-89345237D02*
X49104819Y-89154761D01*
X49104819Y-89154761D02*
X49152438Y-89059523D01*
X49152438Y-89059523D02*
X49200057Y-89011904D01*
X49200057Y-89011904D02*
X49295295Y-88964285D01*
X49295295Y-88964285D02*
X49342914Y-88964285D01*
X49342914Y-88964285D02*
X49438152Y-89011904D01*
X49438152Y-89011904D02*
X49485771Y-89059523D01*
X49485771Y-89059523D02*
X49533390Y-89154761D01*
X49533390Y-89154761D02*
X49533390Y-89345237D01*
X49533390Y-89345237D02*
X49581009Y-89440475D01*
X49581009Y-89440475D02*
X49628628Y-89488094D01*
X49628628Y-89488094D02*
X49723866Y-89535713D01*
X49723866Y-89535713D02*
X49914342Y-89535713D01*
X49914342Y-89535713D02*
X50009580Y-89488094D01*
X50009580Y-89488094D02*
X50057200Y-89440475D01*
X50057200Y-89440475D02*
X50104819Y-89345237D01*
X50104819Y-89345237D02*
X50104819Y-89154761D01*
X50104819Y-89154761D02*
X50057200Y-89059523D01*
X50057200Y-89059523D02*
X50009580Y-89011904D01*
X50009580Y-89011904D02*
X49914342Y-88964285D01*
X49914342Y-88964285D02*
X49723866Y-88964285D01*
X49723866Y-88964285D02*
X49628628Y-89011904D01*
X49628628Y-89011904D02*
X49581009Y-89059523D01*
X49581009Y-89059523D02*
X49533390Y-89154761D01*
X116039580Y-24105357D02*
X116087200Y-24152976D01*
X116087200Y-24152976D02*
X116134819Y-24295833D01*
X116134819Y-24295833D02*
X116134819Y-24391071D01*
X116134819Y-24391071D02*
X116087200Y-24533928D01*
X116087200Y-24533928D02*
X115991961Y-24629166D01*
X115991961Y-24629166D02*
X115896723Y-24676785D01*
X115896723Y-24676785D02*
X115706247Y-24724404D01*
X115706247Y-24724404D02*
X115563390Y-24724404D01*
X115563390Y-24724404D02*
X115372914Y-24676785D01*
X115372914Y-24676785D02*
X115277676Y-24629166D01*
X115277676Y-24629166D02*
X115182438Y-24533928D01*
X115182438Y-24533928D02*
X115134819Y-24391071D01*
X115134819Y-24391071D02*
X115134819Y-24295833D01*
X115134819Y-24295833D02*
X115182438Y-24152976D01*
X115182438Y-24152976D02*
X115230057Y-24105357D01*
X115230057Y-23724404D02*
X115182438Y-23676785D01*
X115182438Y-23676785D02*
X115134819Y-23581547D01*
X115134819Y-23581547D02*
X115134819Y-23343452D01*
X115134819Y-23343452D02*
X115182438Y-23248214D01*
X115182438Y-23248214D02*
X115230057Y-23200595D01*
X115230057Y-23200595D02*
X115325295Y-23152976D01*
X115325295Y-23152976D02*
X115420533Y-23152976D01*
X115420533Y-23152976D02*
X115563390Y-23200595D01*
X115563390Y-23200595D02*
X116134819Y-23772023D01*
X116134819Y-23772023D02*
X116134819Y-23152976D01*
X115134819Y-22819642D02*
X115134819Y-22200595D01*
X115134819Y-22200595D02*
X115515771Y-22533928D01*
X115515771Y-22533928D02*
X115515771Y-22391071D01*
X115515771Y-22391071D02*
X115563390Y-22295833D01*
X115563390Y-22295833D02*
X115611009Y-22248214D01*
X115611009Y-22248214D02*
X115706247Y-22200595D01*
X115706247Y-22200595D02*
X115944342Y-22200595D01*
X115944342Y-22200595D02*
X116039580Y-22248214D01*
X116039580Y-22248214D02*
X116087200Y-22295833D01*
X116087200Y-22295833D02*
X116134819Y-22391071D01*
X116134819Y-22391071D02*
X116134819Y-22676785D01*
X116134819Y-22676785D02*
X116087200Y-22772023D01*
X116087200Y-22772023D02*
X116039580Y-22819642D01*
X53712142Y-80559819D02*
X53378809Y-80083628D01*
X53140714Y-80559819D02*
X53140714Y-79559819D01*
X53140714Y-79559819D02*
X53521666Y-79559819D01*
X53521666Y-79559819D02*
X53616904Y-79607438D01*
X53616904Y-79607438D02*
X53664523Y-79655057D01*
X53664523Y-79655057D02*
X53712142Y-79750295D01*
X53712142Y-79750295D02*
X53712142Y-79893152D01*
X53712142Y-79893152D02*
X53664523Y-79988390D01*
X53664523Y-79988390D02*
X53616904Y-80036009D01*
X53616904Y-80036009D02*
X53521666Y-80083628D01*
X53521666Y-80083628D02*
X53140714Y-80083628D01*
X54664523Y-80559819D02*
X54093095Y-80559819D01*
X54378809Y-80559819D02*
X54378809Y-79559819D01*
X54378809Y-79559819D02*
X54283571Y-79702676D01*
X54283571Y-79702676D02*
X54188333Y-79797914D01*
X54188333Y-79797914D02*
X54093095Y-79845533D01*
X55521666Y-79893152D02*
X55521666Y-80559819D01*
X55283571Y-79512200D02*
X55045476Y-80226485D01*
X55045476Y-80226485D02*
X55664523Y-80226485D01*
X67213333Y-85359819D02*
X66880000Y-84883628D01*
X66641905Y-85359819D02*
X66641905Y-84359819D01*
X66641905Y-84359819D02*
X67022857Y-84359819D01*
X67022857Y-84359819D02*
X67118095Y-84407438D01*
X67118095Y-84407438D02*
X67165714Y-84455057D01*
X67165714Y-84455057D02*
X67213333Y-84550295D01*
X67213333Y-84550295D02*
X67213333Y-84693152D01*
X67213333Y-84693152D02*
X67165714Y-84788390D01*
X67165714Y-84788390D02*
X67118095Y-84836009D01*
X67118095Y-84836009D02*
X67022857Y-84883628D01*
X67022857Y-84883628D02*
X66641905Y-84883628D01*
X67594286Y-84455057D02*
X67641905Y-84407438D01*
X67641905Y-84407438D02*
X67737143Y-84359819D01*
X67737143Y-84359819D02*
X67975238Y-84359819D01*
X67975238Y-84359819D02*
X68070476Y-84407438D01*
X68070476Y-84407438D02*
X68118095Y-84455057D01*
X68118095Y-84455057D02*
X68165714Y-84550295D01*
X68165714Y-84550295D02*
X68165714Y-84645533D01*
X68165714Y-84645533D02*
X68118095Y-84788390D01*
X68118095Y-84788390D02*
X67546667Y-85359819D01*
X67546667Y-85359819D02*
X68165714Y-85359819D01*
X63713333Y-69759819D02*
X63380000Y-69283628D01*
X63141905Y-69759819D02*
X63141905Y-68759819D01*
X63141905Y-68759819D02*
X63522857Y-68759819D01*
X63522857Y-68759819D02*
X63618095Y-68807438D01*
X63618095Y-68807438D02*
X63665714Y-68855057D01*
X63665714Y-68855057D02*
X63713333Y-68950295D01*
X63713333Y-68950295D02*
X63713333Y-69093152D01*
X63713333Y-69093152D02*
X63665714Y-69188390D01*
X63665714Y-69188390D02*
X63618095Y-69236009D01*
X63618095Y-69236009D02*
X63522857Y-69283628D01*
X63522857Y-69283628D02*
X63141905Y-69283628D01*
X64665714Y-69759819D02*
X64094286Y-69759819D01*
X64380000Y-69759819D02*
X64380000Y-68759819D01*
X64380000Y-68759819D02*
X64284762Y-68902676D01*
X64284762Y-68902676D02*
X64189524Y-68997914D01*
X64189524Y-68997914D02*
X64094286Y-69045533D01*
X77524642Y-48609819D02*
X77191309Y-48133628D01*
X76953214Y-48609819D02*
X76953214Y-47609819D01*
X76953214Y-47609819D02*
X77334166Y-47609819D01*
X77334166Y-47609819D02*
X77429404Y-47657438D01*
X77429404Y-47657438D02*
X77477023Y-47705057D01*
X77477023Y-47705057D02*
X77524642Y-47800295D01*
X77524642Y-47800295D02*
X77524642Y-47943152D01*
X77524642Y-47943152D02*
X77477023Y-48038390D01*
X77477023Y-48038390D02*
X77429404Y-48086009D01*
X77429404Y-48086009D02*
X77334166Y-48133628D01*
X77334166Y-48133628D02*
X76953214Y-48133628D01*
X78477023Y-48609819D02*
X77905595Y-48609819D01*
X78191309Y-48609819D02*
X78191309Y-47609819D01*
X78191309Y-47609819D02*
X78096071Y-47752676D01*
X78096071Y-47752676D02*
X78000833Y-47847914D01*
X78000833Y-47847914D02*
X77905595Y-47895533D01*
X78810357Y-47609819D02*
X79429404Y-47609819D01*
X79429404Y-47609819D02*
X79096071Y-47990771D01*
X79096071Y-47990771D02*
X79238928Y-47990771D01*
X79238928Y-47990771D02*
X79334166Y-48038390D01*
X79334166Y-48038390D02*
X79381785Y-48086009D01*
X79381785Y-48086009D02*
X79429404Y-48181247D01*
X79429404Y-48181247D02*
X79429404Y-48419342D01*
X79429404Y-48419342D02*
X79381785Y-48514580D01*
X79381785Y-48514580D02*
X79334166Y-48562200D01*
X79334166Y-48562200D02*
X79238928Y-48609819D01*
X79238928Y-48609819D02*
X78953214Y-48609819D01*
X78953214Y-48609819D02*
X78857976Y-48562200D01*
X78857976Y-48562200D02*
X78810357Y-48514580D01*
D12*
%TO.C,C14*%
X42265000Y-90011252D02*
X42265000Y-89488748D01*
X43735000Y-90011252D02*
X43735000Y-89488748D01*
%TO.C,C9*%
X68265000Y-113701248D02*
X68265000Y-114223752D01*
X69735000Y-113701248D02*
X69735000Y-114223752D01*
%TO.C,C6*%
X88163750Y-41556248D02*
X88163750Y-42078752D01*
X89633750Y-41556248D02*
X89633750Y-42078752D01*
%TO.C,U2*%
X103817500Y-32270000D02*
X103017500Y-32270000D01*
X103817500Y-32270000D02*
X104617500Y-32270000D01*
X103817500Y-35390000D02*
X103017500Y-35390000D01*
X103817500Y-35390000D02*
X104617500Y-35390000D01*
X102517500Y-32320000D02*
X102277500Y-31990000D01*
X102757500Y-31990000D01*
X102517500Y-32320000D01*
G36*
X102517500Y-32320000D02*
G01*
X102277500Y-31990000D01*
X102757500Y-31990000D01*
X102517500Y-32320000D01*
G37*
%TO.C,C22*%
X77945000Y-67031248D02*
X77945000Y-67553752D01*
X79415000Y-67031248D02*
X79415000Y-67553752D01*
%TO.C,C19*%
X101765000Y-23238748D02*
X101765000Y-23761252D01*
X103235000Y-23238748D02*
X103235000Y-23761252D01*
%TO.C,R11*%
X102027500Y-59652064D02*
X102027500Y-59197936D01*
X103497500Y-59652064D02*
X103497500Y-59197936D01*
%TO.C,D3*%
X57020000Y-77495000D02*
X57020000Y-79415000D01*
X57020000Y-79415000D02*
X59880000Y-79415000D01*
X59880000Y-77495000D02*
X57020000Y-77495000D01*
%TO.C,SW2*%
X42290000Y-94520000D02*
X48750000Y-94520000D01*
X42290000Y-94550000D02*
X42290000Y-94520000D01*
X42290000Y-96450000D02*
X42290000Y-99050000D01*
X42290000Y-100980000D02*
X42290000Y-100950000D01*
X42290000Y-100980000D02*
X48750000Y-100980000D01*
X48750000Y-94520000D02*
X48750000Y-94550000D01*
X48750000Y-96450000D02*
X48750000Y-99050000D01*
X48750000Y-100980000D02*
X48750000Y-100950000D01*
%TO.C,Y1*%
X83690000Y-85710000D02*
X85540000Y-85710000D01*
X83690000Y-87650000D02*
X85540000Y-87650000D01*
X85540000Y-82660000D02*
X92940000Y-82660000D01*
X85540000Y-83070000D02*
X85540000Y-82660000D01*
X85540000Y-85710000D02*
X85540000Y-85010000D01*
X85540000Y-87650000D02*
X85540000Y-88060000D01*
X85540000Y-88060000D02*
X92940000Y-88060000D01*
X92940000Y-82660000D02*
X92940000Y-83070000D01*
X92940000Y-85010000D02*
X92940000Y-85710000D01*
X92940000Y-88060000D02*
X92940000Y-87650000D01*
%TO.C,C11*%
X83765000Y-109701248D02*
X83765000Y-110223752D01*
X85235000Y-109701248D02*
X85235000Y-110223752D01*
%TO.C,C26*%
X58670000Y-63206248D02*
X58670000Y-63728752D01*
X60140000Y-63206248D02*
X60140000Y-63728752D01*
%TO.C,J3*%
X63405000Y-59505000D02*
X64205000Y-59505000D01*
X63405000Y-59705000D02*
X63405000Y-59505000D01*
X63605000Y-62505000D02*
X63405000Y-62305000D01*
X64205000Y-62505000D02*
X63605000Y-62505000D01*
X64205000Y-62505000D02*
X64205000Y-63005000D01*
X65605000Y-59505000D02*
X66405000Y-59505000D01*
X65605000Y-62505000D02*
X65605000Y-63005000D01*
X66405000Y-59505000D02*
X66405000Y-59705000D01*
X66405000Y-62305000D02*
X66405000Y-62505000D01*
X66405000Y-62505000D02*
X65605000Y-62505000D01*
%TO.C,U4*%
X70550000Y-103680000D02*
X73440000Y-103680000D01*
X73460000Y-109500000D02*
X70150000Y-109500000D01*
X70110000Y-103750000D02*
X69830000Y-103750000D01*
X70110000Y-103470000D01*
X70110000Y-103750000D01*
G36*
X70110000Y-103750000D02*
G01*
X69830000Y-103750000D01*
X70110000Y-103470000D01*
X70110000Y-103750000D01*
G37*
%TO.C,C13*%
X56785000Y-89861252D02*
X56785000Y-89338748D01*
X58255000Y-89861252D02*
X58255000Y-89338748D01*
%TO.C,R4*%
X63272936Y-104265000D02*
X63727064Y-104265000D01*
X63272936Y-105735000D02*
X63727064Y-105735000D01*
%TO.C,R3*%
X119220000Y-34052936D02*
X119220000Y-34507064D01*
X120690000Y-34052936D02*
X120690000Y-34507064D01*
%TO.C,U3*%
X96036250Y-40782500D02*
X95236250Y-40782500D01*
X96036250Y-40782500D02*
X96836250Y-40782500D01*
X96036250Y-43902500D02*
X95236250Y-43902500D01*
X96036250Y-43902500D02*
X96836250Y-43902500D01*
X94736250Y-40832500D02*
X94496250Y-40502500D01*
X94976250Y-40502500D01*
X94736250Y-40832500D01*
G36*
X94736250Y-40832500D02*
G01*
X94496250Y-40502500D01*
X94976250Y-40502500D01*
X94736250Y-40832500D01*
G37*
%TO.C,C10*%
X73265000Y-113701248D02*
X73265000Y-114223752D01*
X74735000Y-113701248D02*
X74735000Y-114223752D01*
%TO.C,C5*%
X114220000Y-34056248D02*
X114220000Y-34578752D01*
X115690000Y-34056248D02*
X115690000Y-34578752D01*
%TO.C,L1*%
X85618748Y-28070000D02*
X86141252Y-28070000D01*
X85618748Y-29490000D02*
X86141252Y-29490000D01*
%TO.C,D4*%
X57020000Y-71495000D02*
X57020000Y-73415000D01*
X57020000Y-73415000D02*
X59880000Y-73415000D01*
X59880000Y-71495000D02*
X57020000Y-71495000D01*
%TO.C,R15*%
X54582064Y-71720000D02*
X54127936Y-71720000D01*
X54582064Y-73190000D02*
X54127936Y-73190000D01*
%TO.C,C3*%
X96195000Y-33493748D02*
X96195000Y-34016252D01*
X97665000Y-33493748D02*
X97665000Y-34016252D01*
%TO.C,C8*%
X106663750Y-42018748D02*
X106663750Y-42541252D01*
X108133750Y-42018748D02*
X108133750Y-42541252D01*
%TO.C,C24*%
X83445000Y-67031248D02*
X83445000Y-67553752D01*
X84915000Y-67031248D02*
X84915000Y-67553752D01*
%TO.C,C18*%
X79956248Y-80520000D02*
X80478752Y-80520000D01*
X79956248Y-81990000D02*
X80478752Y-81990000D01*
%TO.C,R7*%
X61822500Y-89372936D02*
X61822500Y-89827064D01*
X63292500Y-89372936D02*
X63292500Y-89827064D01*
%TO.C,C17*%
X86418748Y-75520000D02*
X86941252Y-75520000D01*
X86418748Y-76990000D02*
X86941252Y-76990000D01*
D13*
%TO.C,U5*%
X88761455Y-97686101D02*
X90574145Y-97686101D01*
X90574145Y-95323901D02*
X88761455Y-95323901D01*
X92174400Y-97255001D02*
G75*
G02*
X91971200Y-97255001I-101600J0D01*
G01*
X91971200Y-97255001D02*
G75*
G02*
X92174400Y-97255001I101600J0D01*
G01*
D12*
%TO.C,C15*%
X91485000Y-101106248D02*
X91485000Y-101628752D01*
X92955000Y-101106248D02*
X92955000Y-101628752D01*
%TO.C,D2*%
X71545000Y-90495000D02*
X71545000Y-92415000D01*
X71545000Y-92415000D02*
X74405000Y-92415000D01*
X74405000Y-90495000D02*
X71545000Y-90495000D01*
%TO.C,R10*%
X97002500Y-59652064D02*
X97002500Y-59197936D01*
X98472500Y-59652064D02*
X98472500Y-59197936D01*
%TO.C,C27*%
X53390000Y-63206248D02*
X53390000Y-63728752D01*
X54860000Y-63206248D02*
X54860000Y-63728752D01*
%TO.C,U7*%
X70830000Y-44695000D02*
X70030000Y-44695000D01*
X70830000Y-44695000D02*
X71630000Y-44695000D01*
X70830000Y-47815000D02*
X70030000Y-47815000D01*
X70830000Y-47815000D02*
X71630000Y-47815000D01*
X72370000Y-48095000D02*
X71890000Y-48095000D01*
X72130000Y-47765000D01*
X72370000Y-48095000D01*
G36*
X72370000Y-48095000D02*
G01*
X71890000Y-48095000D01*
X72130000Y-47765000D01*
X72370000Y-48095000D01*
G37*
%TO.C,R16*%
X69107064Y-90720000D02*
X68652936Y-90720000D01*
X69107064Y-92190000D02*
X68652936Y-92190000D01*
%TO.C,L3*%
X54143748Y-58295000D02*
X54666252Y-58295000D01*
X54143748Y-59715000D02*
X54666252Y-59715000D01*
%TO.C,C7*%
X101663750Y-41981248D02*
X101663750Y-42503752D01*
X103133750Y-41981248D02*
X103133750Y-42503752D01*
%TO.C,C12*%
X79255000Y-109776248D02*
X79255000Y-110298752D01*
X80725000Y-109776248D02*
X80725000Y-110298752D01*
%TO.C,C4*%
X109220000Y-33981248D02*
X109220000Y-34503752D01*
X110690000Y-33981248D02*
X110690000Y-34503752D01*
%TO.C,C20*%
X72945000Y-67068748D02*
X72945000Y-67591252D01*
X74415000Y-67068748D02*
X74415000Y-67591252D01*
%TO.C,SW1*%
X56790000Y-94520000D02*
X63250000Y-94520000D01*
X56790000Y-94550000D02*
X56790000Y-94520000D01*
X56790000Y-96450000D02*
X56790000Y-99050000D01*
X56790000Y-100980000D02*
X56790000Y-100950000D01*
X56790000Y-100980000D02*
X63250000Y-100980000D01*
X63250000Y-94520000D02*
X63250000Y-94550000D01*
X63250000Y-96450000D02*
X63250000Y-99050000D01*
X63250000Y-100980000D02*
X63250000Y-100950000D01*
%TO.C,TP1*%
X58185000Y-82770000D02*
X58880000Y-82770000D01*
X58185000Y-83455000D02*
X58185000Y-82770000D01*
X58185000Y-84140000D02*
X58185000Y-84015000D01*
X58185000Y-84140000D02*
X58271724Y-84140000D01*
X58185000Y-84140000D02*
X59575000Y-84140000D01*
X59488276Y-84140000D02*
X59575000Y-84140000D01*
X59575000Y-84140000D02*
X59575000Y-84015000D01*
%TO.C,C2*%
X87645000Y-32981248D02*
X87645000Y-33503752D01*
X89115000Y-32981248D02*
X89115000Y-33503752D01*
%TO.C,U1*%
X69520000Y-76870000D02*
X69520000Y-76635000D01*
X69520000Y-81615000D02*
X69520000Y-81140000D01*
X69995000Y-76395000D02*
X69820000Y-76395000D01*
X69995000Y-81615000D02*
X69520000Y-81615000D01*
X74265000Y-76395000D02*
X74740000Y-76395000D01*
X74265000Y-81615000D02*
X74740000Y-81615000D01*
X74740000Y-76395000D02*
X74740000Y-76870000D01*
X74740000Y-81615000D02*
X74740000Y-81140000D01*
X69520000Y-76395000D02*
X69280000Y-76065000D01*
X69760000Y-76065000D01*
X69520000Y-76395000D01*
G36*
X69520000Y-76395000D02*
G01*
X69280000Y-76065000D01*
X69760000Y-76065000D01*
X69520000Y-76395000D01*
G37*
%TO.C,R6*%
X78727064Y-104765000D02*
X78272936Y-104765000D01*
X78727064Y-106235000D02*
X78272936Y-106235000D01*
%TO.C,R9*%
X79952936Y-75520000D02*
X80407064Y-75520000D01*
X79952936Y-76990000D02*
X80407064Y-76990000D01*
%TO.C,U6*%
X108762500Y-58865000D02*
X107962500Y-58865000D01*
X108762500Y-58865000D02*
X109562500Y-58865000D01*
X108762500Y-61985000D02*
X107962500Y-61985000D01*
X108762500Y-61985000D02*
X109562500Y-61985000D01*
X107462500Y-58915000D02*
X107222500Y-58585000D01*
X107702500Y-58585000D01*
X107462500Y-58915000D01*
G36*
X107462500Y-58915000D02*
G01*
X107222500Y-58585000D01*
X107702500Y-58585000D01*
X107462500Y-58915000D01*
G37*
%TO.C,C1*%
X83145000Y-33018748D02*
X83145000Y-33541252D01*
X84615000Y-33018748D02*
X84615000Y-33541252D01*
%TO.C,C25*%
X119265000Y-23201248D02*
X119265000Y-23723752D01*
X120735000Y-23201248D02*
X120735000Y-23723752D01*
%TO.C,C16*%
X86985000Y-101031248D02*
X86985000Y-101553752D01*
X88455000Y-101031248D02*
X88455000Y-101553752D01*
%TO.C,R5*%
X63272936Y-109265000D02*
X63727064Y-109265000D01*
X63272936Y-110735000D02*
X63727064Y-110735000D01*
%TO.C,R12*%
X77940436Y-43220000D02*
X78394564Y-43220000D01*
X77940436Y-44690000D02*
X78394564Y-44690000D01*
%TO.C,L2*%
X80893748Y-61620000D02*
X81416252Y-61620000D01*
X80893748Y-63040000D02*
X81416252Y-63040000D01*
%TO.C,C21*%
X107765000Y-23238748D02*
X107765000Y-23761252D01*
X109235000Y-23238748D02*
X109235000Y-23761252D01*
%TO.C,J2*%
X60757500Y-41945000D02*
X60757500Y-44595000D01*
X60757500Y-41945000D02*
X63377500Y-41945000D01*
X60757500Y-46015000D02*
X60757500Y-48595000D01*
X60757500Y-50015000D02*
X60757500Y-50665000D01*
X60757500Y-50665000D02*
X63377500Y-50665000D01*
X63377500Y-41945000D02*
X63377500Y-42595000D01*
X63377500Y-42595000D02*
X64607500Y-42595000D01*
X63377500Y-44015000D02*
X63377500Y-46595000D01*
X63377500Y-48015000D02*
X63377500Y-50665000D01*
%TO.C,D1*%
X114455000Y-29740000D02*
X117315000Y-29740000D01*
X117315000Y-27820000D02*
X114455000Y-27820000D01*
X117315000Y-29740000D02*
X117315000Y-27820000D01*
%TO.C,R8*%
X47265000Y-89522936D02*
X47265000Y-89977064D01*
X48735000Y-89522936D02*
X48735000Y-89977064D01*
%TO.C,C23*%
X113265000Y-23201248D02*
X113265000Y-23723752D01*
X114735000Y-23201248D02*
X114735000Y-23723752D01*
%TO.C,R14*%
X54582064Y-77720000D02*
X54127936Y-77720000D01*
X54582064Y-79190000D02*
X54127936Y-79190000D01*
%TO.C,J1*%
X117150000Y-73760000D02*
X119070000Y-73760000D01*
X119070000Y-64600000D02*
X117150000Y-64600000D01*
X121080000Y-64600000D02*
X122785000Y-64600000D01*
X122785000Y-64600000D02*
X122785000Y-73760000D01*
X122785000Y-73760000D02*
X121080000Y-73760000D01*
%TO.C,R2*%
X67152936Y-85820000D02*
X67607064Y-85820000D01*
X67152936Y-87290000D02*
X67607064Y-87290000D01*
%TO.C,R1*%
X63652936Y-70220000D02*
X64107064Y-70220000D01*
X63652936Y-71690000D02*
X64107064Y-71690000D01*
%TO.C,R13*%
X77940436Y-49070000D02*
X78394564Y-49070000D01*
X77940436Y-50540000D02*
X78394564Y-50540000D01*
%TD*%
M02*
