%TF.GenerationSoftware,KiCad,Pcbnew,8.0.4*%
%TF.CreationDate,2024-11-06T01:03:29-06:00*%
%TF.ProjectId,wearablesystem,77656172-6162-46c6-9573-797374656d2e,rev?*%
%TF.SameCoordinates,Original*%
%TF.FileFunction,Paste,Top*%
%TF.FilePolarity,Positive*%
%FSLAX46Y46*%
G04 Gerber Fmt 4.6, Leading zero omitted, Abs format (unit mm)*
G04 Created by KiCad (PCBNEW 8.0.4) date 2024-11-06 01:03:29*
%MOMM*%
%LPD*%
G01*
G04 APERTURE LIST*
G04 Aperture macros list*
%AMRoundRect*
0 Rectangle with rounded corners*
0 $1 Rounding radius*
0 $2 $3 $4 $5 $6 $7 $8 $9 X,Y pos of 4 corners*
0 Add a 4 corners polygon primitive as box body*
4,1,4,$2,$3,$4,$5,$6,$7,$8,$9,$2,$3,0*
0 Add four circle primitives for the rounded corners*
1,1,$1+$1,$2,$3*
1,1,$1+$1,$4,$5*
1,1,$1+$1,$6,$7*
1,1,$1+$1,$8,$9*
0 Add four rect primitives between the rounded corners*
20,1,$1+$1,$2,$3,$4,$5,0*
20,1,$1+$1,$4,$5,$6,$7,0*
20,1,$1+$1,$6,$7,$8,$9,0*
20,1,$1+$1,$8,$9,$2,$3,0*%
G04 Aperture macros list end*
%ADD10R,3.300000X1.540000*%
%ADD11RoundRect,0.150000X0.512500X0.150000X-0.512500X0.150000X-0.512500X-0.150000X0.512500X-0.150000X0*%
%ADD12RoundRect,0.150000X-0.512500X-0.150000X0.512500X-0.150000X0.512500X0.150000X-0.512500X0.150000X0*%
%ADD13R,0.812800X0.254000*%
%ADD14R,0.254000X1.651000*%
%ADD15RoundRect,0.087500X-0.287500X-0.087500X0.287500X-0.087500X0.287500X0.087500X-0.287500X0.087500X0*%
%ADD16RoundRect,0.062500X-0.062500X-0.337500X0.062500X-0.337500X0.062500X0.337500X-0.062500X0.337500X0*%
%ADD17RoundRect,0.062500X-0.337500X-0.062500X0.337500X-0.062500X0.337500X0.062500X-0.337500X0.062500X0*%
%ADD18RoundRect,0.250000X-0.495000X-0.495000X0.495000X-0.495000X0.495000X0.495000X-0.495000X0.495000X0*%
%ADD19R,1.550000X1.300000*%
%ADD20RoundRect,0.250000X0.350000X0.450000X-0.350000X0.450000X-0.350000X-0.450000X0.350000X-0.450000X0*%
%ADD21RoundRect,0.250000X-0.350000X-0.450000X0.350000X-0.450000X0.350000X0.450000X-0.350000X0.450000X0*%
%ADD22RoundRect,0.250000X0.450000X-0.350000X0.450000X0.350000X-0.450000X0.350000X-0.450000X-0.350000X0*%
%ADD23RoundRect,0.250000X-0.450000X0.350000X-0.450000X-0.350000X0.450000X-0.350000X0.450000X0.350000X0*%
%ADD24RoundRect,0.250000X-0.325000X-0.450000X0.325000X-0.450000X0.325000X0.450000X-0.325000X0.450000X0*%
%ADD25R,1.050000X2.200000*%
%ADD26R,1.000000X1.000000*%
%ADD27R,2.000000X0.900000*%
%ADD28RoundRect,0.250000X0.325000X0.450000X-0.325000X0.450000X-0.325000X-0.450000X0.325000X-0.450000X0*%
%ADD29RoundRect,0.250000X-0.475000X0.337500X-0.475000X-0.337500X0.475000X-0.337500X0.475000X0.337500X0*%
%ADD30RoundRect,0.250000X-0.337500X-0.475000X0.337500X-0.475000X0.337500X0.475000X-0.337500X0.475000X0*%
%ADD31RoundRect,0.250000X0.475000X-0.337500X0.475000X0.337500X-0.475000X0.337500X-0.475000X-0.337500X0*%
%ADD32R,1.150000X0.300000*%
G04 APERTURE END LIST*
D10*
%TO.C,Y1*%
X85540000Y-84040000D03*
X92940000Y-84040000D03*
X92940000Y-86680000D03*
X85540000Y-86680000D03*
%TD*%
D11*
%TO.C,U7*%
X71967500Y-47205000D03*
X71967500Y-46255000D03*
X71967500Y-45305000D03*
X69692500Y-45305000D03*
X69692500Y-46255000D03*
X69692500Y-47205000D03*
%TD*%
D12*
%TO.C,U6*%
X107625000Y-59475000D03*
X107625000Y-60425000D03*
X107625000Y-61375000D03*
X109900000Y-61375000D03*
X109900000Y-60425000D03*
X109900000Y-59475000D03*
%TD*%
D13*
%TO.C,U5*%
X91115600Y-97255002D03*
X91115600Y-96755001D03*
X91115600Y-96255001D03*
X91115600Y-95755000D03*
X88220000Y-95755000D03*
X88220000Y-96255001D03*
X88220000Y-96755001D03*
X88220000Y-97255002D03*
D14*
X89667800Y-96505001D03*
%TD*%
D15*
%TO.C,U4*%
X73000000Y-104200000D03*
X73000000Y-105000000D03*
X73000000Y-105800000D03*
X73000000Y-106600000D03*
X73000000Y-107400000D03*
X73000000Y-108200000D03*
X73000000Y-109000000D03*
X70600000Y-109000000D03*
X70600000Y-108200000D03*
X70600000Y-107400000D03*
X70600000Y-106600000D03*
X70600000Y-105800000D03*
X70600000Y-105000000D03*
X70600000Y-104200000D03*
%TD*%
D12*
%TO.C,U3*%
X97173750Y-41392500D03*
X97173750Y-43292500D03*
X94898750Y-43292500D03*
X94898750Y-42342500D03*
X94898750Y-41392500D03*
%TD*%
%TO.C,U2*%
X104955000Y-32880000D03*
X104955000Y-34780000D03*
X102680000Y-34780000D03*
X102680000Y-33830000D03*
X102680000Y-32880000D03*
%TD*%
D16*
%TO.C,U1*%
X70380000Y-76555000D03*
X70880000Y-76555000D03*
X71380000Y-76555000D03*
X71880000Y-76555000D03*
X72380000Y-76555000D03*
X72880000Y-76555000D03*
X73380000Y-76555000D03*
X73880000Y-76555000D03*
D17*
X74580000Y-77255000D03*
X74580000Y-77755000D03*
X74580000Y-78255000D03*
X74580000Y-78755000D03*
X74580000Y-79255000D03*
X74580000Y-79755000D03*
X74580000Y-80255000D03*
X74580000Y-80755000D03*
D16*
X73880000Y-81455000D03*
X73380000Y-81455000D03*
X72880000Y-81455000D03*
X72380000Y-81455000D03*
X71880000Y-81455000D03*
X71380000Y-81455000D03*
X70880000Y-81455000D03*
X70380000Y-81455000D03*
D17*
X69680000Y-80755000D03*
X69680000Y-80255000D03*
X69680000Y-79755000D03*
X69680000Y-79255000D03*
X69680000Y-78755000D03*
X69680000Y-78255000D03*
X69680000Y-77755000D03*
X69680000Y-77255000D03*
D18*
X73055000Y-79930000D03*
X73055000Y-78080000D03*
X71205000Y-79930000D03*
X71205000Y-78080000D03*
%TD*%
D19*
%TO.C,SW2*%
X49500000Y-100000000D03*
X41540000Y-100000000D03*
X49500000Y-95500000D03*
X41540000Y-95500000D03*
%TD*%
%TO.C,SW1*%
X64000000Y-100000000D03*
X56040000Y-100000000D03*
X64000000Y-95500000D03*
X56040000Y-95500000D03*
%TD*%
D20*
%TO.C,R16*%
X67880000Y-91455000D03*
X69880000Y-91455000D03*
%TD*%
%TO.C,R15*%
X53355000Y-72455000D03*
X55355000Y-72455000D03*
%TD*%
%TO.C,R14*%
X53355000Y-78455000D03*
X55355000Y-78455000D03*
%TD*%
D21*
%TO.C,R13*%
X77167500Y-49805000D03*
X79167500Y-49805000D03*
%TD*%
%TO.C,R12*%
X77167500Y-43955000D03*
X79167500Y-43955000D03*
%TD*%
D22*
%TO.C,R11*%
X102762500Y-58425000D03*
X102762500Y-60425000D03*
%TD*%
%TO.C,R10*%
X97737500Y-58425000D03*
X97737500Y-60425000D03*
%TD*%
D21*
%TO.C,R9*%
X81180000Y-76255000D03*
X79180000Y-76255000D03*
%TD*%
D23*
%TO.C,R8*%
X48000000Y-90750000D03*
X48000000Y-88750000D03*
%TD*%
%TO.C,R7*%
X62557500Y-90600000D03*
X62557500Y-88600000D03*
%TD*%
D20*
%TO.C,R6*%
X77500000Y-105500000D03*
X79500000Y-105500000D03*
%TD*%
D21*
%TO.C,R5*%
X64500000Y-110000000D03*
X62500000Y-110000000D03*
%TD*%
%TO.C,R4*%
X64500000Y-105000000D03*
X62500000Y-105000000D03*
%TD*%
D23*
%TO.C,R3*%
X119955000Y-35280000D03*
X119955000Y-33280000D03*
%TD*%
D21*
%TO.C,R2*%
X68380000Y-86555000D03*
X66380000Y-86555000D03*
%TD*%
%TO.C,R1*%
X64880000Y-70955000D03*
X62880000Y-70955000D03*
%TD*%
D24*
%TO.C,L3*%
X55430000Y-59005000D03*
X53380000Y-59005000D03*
%TD*%
%TO.C,L2*%
X82180000Y-62330000D03*
X80130000Y-62330000D03*
%TD*%
%TO.C,L1*%
X86905000Y-28780000D03*
X84855000Y-28780000D03*
%TD*%
D25*
%TO.C,J3*%
X66380000Y-61005000D03*
D26*
X64905000Y-59505000D03*
D25*
X63430000Y-61005000D03*
D26*
X64905000Y-62505000D03*
%TD*%
D27*
%TO.C,J2*%
X63667500Y-43305000D03*
X60467500Y-45305000D03*
X63667500Y-47305000D03*
X60467500Y-49305000D03*
%TD*%
D24*
%TO.C,D4*%
X59905000Y-72455000D03*
X57855000Y-72455000D03*
%TD*%
%TO.C,D3*%
X59905000Y-78455000D03*
X57855000Y-78455000D03*
%TD*%
%TO.C,D2*%
X74430000Y-91455000D03*
X72380000Y-91455000D03*
%TD*%
D28*
%TO.C,D1*%
X114430000Y-28780000D03*
X116480000Y-28780000D03*
%TD*%
D29*
%TO.C,C27*%
X54125000Y-64505000D03*
X54125000Y-62430000D03*
%TD*%
%TO.C,C26*%
X59405000Y-64505000D03*
X59405000Y-62430000D03*
%TD*%
%TO.C,C25*%
X120000000Y-24500000D03*
X120000000Y-22425000D03*
%TD*%
%TO.C,C24*%
X84180000Y-68330000D03*
X84180000Y-66255000D03*
%TD*%
%TO.C,C23*%
X114000000Y-24500000D03*
X114000000Y-22425000D03*
%TD*%
%TO.C,C22*%
X78680000Y-68330000D03*
X78680000Y-66255000D03*
%TD*%
%TO.C,C21*%
X108500000Y-24537500D03*
X108500000Y-22462500D03*
%TD*%
%TO.C,C20*%
X73680000Y-68367500D03*
X73680000Y-66292500D03*
%TD*%
%TO.C,C19*%
X102500000Y-24537500D03*
X102500000Y-22462500D03*
%TD*%
D30*
%TO.C,C18*%
X81255000Y-81255000D03*
X79180000Y-81255000D03*
%TD*%
%TO.C,C17*%
X87717500Y-76255000D03*
X85642500Y-76255000D03*
%TD*%
D29*
%TO.C,C16*%
X87720000Y-100255000D03*
X87720000Y-102330000D03*
%TD*%
%TO.C,C15*%
X92220000Y-100330000D03*
X92220000Y-102405000D03*
%TD*%
D31*
%TO.C,C14*%
X43000000Y-88712500D03*
X43000000Y-90787500D03*
%TD*%
%TO.C,C13*%
X57520000Y-88562500D03*
X57520000Y-90637500D03*
%TD*%
D29*
%TO.C,C12*%
X79990000Y-111075000D03*
X79990000Y-109000000D03*
%TD*%
%TO.C,C11*%
X84500000Y-111000000D03*
X84500000Y-108925000D03*
%TD*%
%TO.C,C10*%
X74000000Y-115000000D03*
X74000000Y-112925000D03*
%TD*%
%TO.C,C9*%
X69000000Y-115000000D03*
X69000000Y-112925000D03*
%TD*%
%TO.C,C8*%
X107398750Y-43317500D03*
X107398750Y-41242500D03*
%TD*%
%TO.C,C7*%
X102398750Y-43280000D03*
X102398750Y-41205000D03*
%TD*%
%TO.C,C6*%
X88898750Y-42855000D03*
X88898750Y-40780000D03*
%TD*%
%TO.C,C5*%
X114955000Y-35355000D03*
X114955000Y-33280000D03*
%TD*%
%TO.C,C4*%
X109955000Y-35280000D03*
X109955000Y-33205000D03*
%TD*%
%TO.C,C3*%
X96930000Y-34792500D03*
X96930000Y-32717500D03*
%TD*%
%TO.C,C2*%
X88380000Y-34280000D03*
X88380000Y-32205000D03*
%TD*%
%TO.C,C1*%
X83880000Y-34317500D03*
X83880000Y-32242500D03*
%TD*%
D32*
%TO.C,J1*%
X115330000Y-72230000D03*
X115330000Y-71430000D03*
X115330000Y-70930000D03*
X115330000Y-69930000D03*
X115330000Y-68430000D03*
X115330000Y-67430000D03*
X115330000Y-66930000D03*
X115330000Y-66130000D03*
X115330000Y-65830000D03*
X115330000Y-66630000D03*
X115330000Y-67930000D03*
X115330000Y-68930000D03*
X115330000Y-69430000D03*
X115330000Y-70430000D03*
X115330000Y-71730000D03*
X115330000Y-72530000D03*
%TD*%
M02*
