M48
; DRILL file {KiCad 8.0.4} date 2024-11-14T17:48:08-0600
; FORMAT={-:-/ absolute / metric / decimal}
; #@! TF.CreationDate,2024-11-14T17:48:08-06:00
; #@! TF.GenerationSoftware,Kicad,Pcbnew,8.0.4
; #@! TF.FileFunction,Plated,1,2,PTH
FMAT,2
METRIC
; #@! TA.AperFunction,Plated,PTH,ViaDrill
T1C0.300
; #@! TA.AperFunction,Plated,PTH,ComponentDrill
T2C0.600
; #@! TA.AperFunction,Plated,PTH,ComponentDrill
T3C0.800
; #@! TA.AperFunction,Plated,PTH,ComponentDrill
T4C0.840
; #@! TA.AperFunction,Plated,PTH,ComponentDrill
T5C1.500
%
G90
G05
T1
X53.557Y-116.443
X59.319Y-116.819
X59.944Y-107.442
X65.532Y-70.612
X66.802Y-74.93
X67.437Y-105.537
X68.108Y-98.763
X69.124Y-71.204
X69.251Y-62.441
X70.394Y-59.901
X71.755Y-57.531
X80.589Y-82.161
X81.153Y-56.769
X82.042Y-64.008
X82.313Y-59.419
X83.636Y-66.088
X83.729Y-65.108
X84.25Y-77.5
X84.836Y-82.804
X85.725Y-60.198
X87.0Y-84.5
X87.158Y-53.932
X87.285Y-64.6
X87.884Y-49.276
X88.011Y-65.405
X89.698Y-59.773
X90.17Y-66.675
X92.266Y-66.985
X92.582Y-61.769
X92.837Y-56.564
X93.254Y-67.902
X93.289Y-65.786
X93.599Y-57.191
X94.488Y-52.959
X95.377Y-65.786
X97.953Y-78.697
X98.425Y-54.229
X100.175Y-79.141
X100.965Y-58.166
X101.092Y-58.801
X101.473Y-52.959
X101.473Y-57.912
X103.81Y-36.764
X106.5Y-61.25
X114.717Y-69.553
X115.479Y-78.951
X115.5Y-64.0
X116.332Y-73.533
X116.459Y-70.866
X118.11Y-69.088
X119.126Y-73.406
X119.888Y-68.326
X120.051Y-79.332
X120.904Y-70.739
X124.587Y-73.787
X127.0Y-77.089
X127.5Y-65.5
X127.866Y-74.367
X128.27Y-70.061
X128.75Y-63.25
T3
X117.765Y-77.586
X117.765Y-79.586
X117.765Y-81.586
X117.765Y-83.586
T4
X62.393Y-46.82
X62.393Y-49.36
X63.663Y-48.09
X64.933Y-46.82
X64.933Y-49.36
T5
X49.53Y-98.574
X49.53Y-104.024
X49.53Y-109.474
X56.769Y-98.701
X56.769Y-104.151
X56.769Y-109.601
X63.754Y-98.806
X63.754Y-104.256
X63.754Y-109.706
T2
G00X130.812Y-65.391
M15
G01X131.912Y-65.391
M16
G05
G00X130.812Y-74.031
M15
G01X131.912Y-74.031
M16
G05
G00X135.242Y-65.391
M15
G01X135.842Y-65.391
M16
G05
G00X135.242Y-74.031
M15
G01X135.842Y-74.031
M16
G05
M30
