%TF.GenerationSoftware,KiCad,Pcbnew,8.0.4*%
%TF.CreationDate,2024-11-06T12:59:20-06:00*%
%TF.ProjectId,mounted_system,6d6f756e-7465-4645-9f73-797374656d2e,rev?*%
%TF.SameCoordinates,Original*%
%TF.FileFunction,Paste,Top*%
%TF.FilePolarity,Positive*%
%FSLAX46Y46*%
G04 Gerber Fmt 4.6, Leading zero omitted, Abs format (unit mm)*
G04 Created by KiCad (PCBNEW 8.0.4) date 2024-11-06 12:59:20*
%MOMM*%
%LPD*%
G01*
G04 APERTURE LIST*
G04 Aperture macros list*
%AMRoundRect*
0 Rectangle with rounded corners*
0 $1 Rounding radius*
0 $2 $3 $4 $5 $6 $7 $8 $9 X,Y pos of 4 corners*
0 Add a 4 corners polygon primitive as box body*
4,1,4,$2,$3,$4,$5,$6,$7,$8,$9,$2,$3,0*
0 Add four circle primitives for the rounded corners*
1,1,$1+$1,$2,$3*
1,1,$1+$1,$4,$5*
1,1,$1+$1,$6,$7*
1,1,$1+$1,$8,$9*
0 Add four rect primitives between the rounded corners*
20,1,$1+$1,$2,$3,$4,$5,0*
20,1,$1+$1,$4,$5,$6,$7,0*
20,1,$1+$1,$6,$7,$8,$9,0*
20,1,$1+$1,$8,$9,$2,$3,0*%
G04 Aperture macros list end*
%ADD10RoundRect,0.250000X0.337500X0.475000X-0.337500X0.475000X-0.337500X-0.475000X0.337500X-0.475000X0*%
%ADD11R,1.300000X1.550000*%
%ADD12RoundRect,0.250000X0.350000X0.450000X-0.350000X0.450000X-0.350000X-0.450000X0.350000X-0.450000X0*%
%ADD13RoundRect,0.250000X-0.450000X0.325000X-0.450000X-0.325000X0.450000X-0.325000X0.450000X0.325000X0*%
%ADD14RoundRect,0.250000X-0.450000X0.350000X-0.450000X-0.350000X0.450000X-0.350000X0.450000X0.350000X0*%
%ADD15RoundRect,0.250000X0.475000X-0.337500X0.475000X0.337500X-0.475000X0.337500X-0.475000X-0.337500X0*%
%ADD16RoundRect,0.150000X-0.512500X-0.150000X0.512500X-0.150000X0.512500X0.150000X-0.512500X0.150000X0*%
%ADD17RoundRect,0.250000X-0.475000X0.337500X-0.475000X-0.337500X0.475000X-0.337500X0.475000X0.337500X0*%
%ADD18RoundRect,0.250000X-0.350000X-0.450000X0.350000X-0.450000X0.350000X0.450000X-0.350000X0.450000X0*%
%ADD19RoundRect,0.250000X0.325000X0.450000X-0.325000X0.450000X-0.325000X-0.450000X0.325000X-0.450000X0*%
%ADD20RoundRect,0.150000X-0.150000X0.512500X-0.150000X-0.512500X0.150000X-0.512500X0.150000X0.512500X0*%
%ADD21RoundRect,0.250000X-0.337500X-0.475000X0.337500X-0.475000X0.337500X0.475000X-0.337500X0.475000X0*%
%ADD22RoundRect,0.250000X0.450000X-0.350000X0.450000X0.350000X-0.450000X0.350000X-0.450000X-0.350000X0*%
%ADD23R,1.540000X3.300000*%
%ADD24RoundRect,0.150000X0.150000X-0.512500X0.150000X0.512500X-0.150000X0.512500X-0.150000X-0.512500X0*%
%ADD25R,0.900000X2.000000*%
%ADD26RoundRect,0.250000X-0.495000X-0.495000X0.495000X-0.495000X0.495000X0.495000X-0.495000X0.495000X0*%
%ADD27RoundRect,0.062500X-0.337500X-0.062500X0.337500X-0.062500X0.337500X0.062500X-0.337500X0.062500X0*%
%ADD28RoundRect,0.062500X-0.062500X-0.337500X0.062500X-0.337500X0.062500X0.337500X-0.062500X0.337500X0*%
%ADD29RoundRect,0.250000X-0.325000X-0.450000X0.325000X-0.450000X0.325000X0.450000X-0.325000X0.450000X0*%
%ADD30RoundRect,0.250000X0.450000X-0.325000X0.450000X0.325000X-0.450000X0.325000X-0.450000X-0.325000X0*%
%ADD31R,0.254000X0.812800*%
%ADD32R,1.651000X0.254000*%
%ADD33R,1.150000X0.300000*%
%ADD34R,2.000000X0.900000*%
G04 APERTURE END LIST*
D10*
%TO.C,C6*%
X109159500Y-38184000D03*
X107084500Y-38184000D03*
%TD*%
D11*
%TO.C,SW2*%
X51018000Y-53805000D03*
X51018000Y-61765000D03*
X46518000Y-53805000D03*
X46518000Y-61765000D03*
%TD*%
D12*
%TO.C,R12*%
X124623000Y-70950000D03*
X122623000Y-70950000D03*
%TD*%
D13*
%TO.C,D2*%
X87412000Y-74644000D03*
X87412000Y-76694000D03*
%TD*%
D12*
%TO.C,R6*%
X103509000Y-81205000D03*
X101509000Y-81205000D03*
%TD*%
D14*
%TO.C,R4*%
X54138000Y-70569000D03*
X54138000Y-72569000D03*
%TD*%
D15*
%TO.C,C7*%
X111923000Y-35263000D03*
X111923000Y-33188000D03*
%TD*%
D16*
%TO.C,U3*%
X109896500Y-78731000D03*
X109896500Y-79681000D03*
X109896500Y-80631000D03*
X112171500Y-80631000D03*
X112171500Y-79681000D03*
X112171500Y-78731000D03*
%TD*%
D17*
%TO.C,C18*%
X103668000Y-67478000D03*
X103668000Y-69553000D03*
%TD*%
D15*
%TO.C,C12*%
X102032000Y-49832500D03*
X102032000Y-47757500D03*
%TD*%
D18*
%TO.C,R1*%
X71569000Y-58758000D03*
X73569000Y-58758000D03*
%TD*%
D19*
%TO.C,L3*%
X70908000Y-55526000D03*
X68858000Y-55526000D03*
%TD*%
D17*
%TO.C,C13*%
X94397000Y-93821000D03*
X94397000Y-95896000D03*
%TD*%
D15*
%TO.C,C3*%
X51217000Y-47795000D03*
X51217000Y-45720000D03*
%TD*%
%TO.C,C8*%
X109398000Y-49870000D03*
X109398000Y-47795000D03*
%TD*%
D17*
%TO.C,C2*%
X54773000Y-92159000D03*
X54773000Y-94234000D03*
%TD*%
D18*
%TO.C,R3*%
X77334000Y-49162000D03*
X79334000Y-49162000D03*
%TD*%
D12*
%TO.C,R7*%
X103636000Y-76252000D03*
X101636000Y-76252000D03*
%TD*%
D20*
%TO.C,U7*%
X116876000Y-65627000D03*
X115926000Y-65627000D03*
X114976000Y-65627000D03*
X114976000Y-67902000D03*
X115926000Y-67902000D03*
X116876000Y-67902000D03*
%TD*%
D17*
%TO.C,C11*%
X88936000Y-93948000D03*
X88936000Y-96023000D03*
%TD*%
D21*
%TO.C,C20*%
X81527000Y-73882000D03*
X83602000Y-73882000D03*
%TD*%
D15*
%TO.C,C9*%
X120178000Y-35687000D03*
X120178000Y-33612000D03*
%TD*%
D22*
%TO.C,R2*%
X86269000Y-68705000D03*
X86269000Y-66705000D03*
%TD*%
D17*
%TO.C,C14*%
X98969000Y-67732000D03*
X98969000Y-69807000D03*
%TD*%
D15*
%TO.C,C10*%
X103810000Y-35227500D03*
X103810000Y-33152500D03*
%TD*%
D21*
%TO.C,C16*%
X74530000Y-55526000D03*
X76605000Y-55526000D03*
%TD*%
D23*
%TO.C,Y1*%
X83806000Y-38494000D03*
X83806000Y-45894000D03*
X86446000Y-45894000D03*
X86446000Y-38494000D03*
%TD*%
D15*
%TO.C,C5*%
X120701000Y-49959500D03*
X120701000Y-47884500D03*
%TD*%
D22*
%TO.C,R5*%
X51090000Y-67591000D03*
X51090000Y-65591000D03*
%TD*%
D18*
%TO.C,R8*%
X90746000Y-72104000D03*
X92746000Y-72104000D03*
%TD*%
D24*
%TO.C,U5*%
X86909000Y-82634000D03*
X87859000Y-82634000D03*
X88809000Y-82634000D03*
X88809000Y-80359000D03*
X86909000Y-80359000D03*
%TD*%
D25*
%TO.C,J5*%
X64135000Y-122682000D03*
X62135000Y-119482000D03*
X60135000Y-122682000D03*
X58135000Y-119482000D03*
X56135000Y-122682000D03*
X54135000Y-119482000D03*
%TD*%
D15*
%TO.C,C21*%
X93508000Y-78094500D03*
X93508000Y-76019500D03*
%TD*%
D26*
%TO.C,U1*%
X84800000Y-59140000D03*
X84800000Y-60990000D03*
X86650000Y-59140000D03*
X86650000Y-60990000D03*
D27*
X83275000Y-58315000D03*
X83275000Y-58815000D03*
X83275000Y-59315000D03*
X83275000Y-59815000D03*
X83275000Y-60315000D03*
X83275000Y-60815000D03*
X83275000Y-61315000D03*
X83275000Y-61815000D03*
D28*
X83975000Y-62515000D03*
X84475000Y-62515000D03*
X84975000Y-62515000D03*
X85475000Y-62515000D03*
X85975000Y-62515000D03*
X86475000Y-62515000D03*
X86975000Y-62515000D03*
X87475000Y-62515000D03*
D27*
X88175000Y-61815000D03*
X88175000Y-61315000D03*
X88175000Y-60815000D03*
X88175000Y-60315000D03*
X88175000Y-59815000D03*
X88175000Y-59315000D03*
X88175000Y-58815000D03*
X88175000Y-58315000D03*
D28*
X87475000Y-57615000D03*
X86975000Y-57615000D03*
X86475000Y-57615000D03*
X85975000Y-57615000D03*
X85475000Y-57615000D03*
X84975000Y-57615000D03*
X84475000Y-57615000D03*
X83975000Y-57615000D03*
%TD*%
D17*
%TO.C,C19*%
X63651000Y-55399000D03*
X63651000Y-57474000D03*
%TD*%
D15*
%TO.C,C22*%
X76236000Y-71639000D03*
X76236000Y-69564000D03*
%TD*%
D29*
%TO.C,L2*%
X92220000Y-88106000D03*
X94270000Y-88106000D03*
%TD*%
D30*
%TO.C,L1*%
X114732000Y-49736000D03*
X114732000Y-47686000D03*
%TD*%
D31*
%TO.C,U2*%
X103783001Y-58779400D03*
X103283000Y-58779400D03*
X102783000Y-58779400D03*
X102282999Y-58779400D03*
X102282999Y-61675000D03*
X102783000Y-61675000D03*
X103283000Y-61675000D03*
X103783001Y-61675000D03*
D32*
X103033000Y-60227200D03*
%TD*%
D17*
%TO.C,C17*%
X75093000Y-84677000D03*
X75093000Y-86752000D03*
%TD*%
D10*
%TO.C,C1*%
X84922000Y-33541000D03*
X82847000Y-33541000D03*
%TD*%
D17*
%TO.C,C15*%
X98334000Y-89079000D03*
X98334000Y-91154000D03*
%TD*%
%TO.C,C23*%
X86650000Y-87979000D03*
X86650000Y-90054000D03*
%TD*%
D11*
%TO.C,SW1*%
X54337000Y-85165000D03*
X54337000Y-77205000D03*
X58837000Y-85165000D03*
X58837000Y-77205000D03*
%TD*%
D12*
%TO.C,R13*%
X123988000Y-64727000D03*
X121988000Y-64727000D03*
%TD*%
D33*
%TO.C,J3*%
X130797000Y-73061000D03*
X130797000Y-72261000D03*
X130797000Y-70961000D03*
X130797000Y-69961000D03*
X130797000Y-69461000D03*
X130797000Y-68461000D03*
X130797000Y-67161000D03*
X130797000Y-66361000D03*
X130797000Y-66661000D03*
X130797000Y-67461000D03*
X130797000Y-67961000D03*
X130797000Y-68961000D03*
X130797000Y-70461000D03*
X130797000Y-71461000D03*
X130797000Y-71961000D03*
X130797000Y-72761000D03*
%TD*%
D21*
%TO.C,C4*%
X90848000Y-44844000D03*
X92923000Y-44844000D03*
%TD*%
D24*
%TO.C,U4*%
X76495000Y-79967000D03*
X77445000Y-79967000D03*
X78395000Y-79967000D03*
X78395000Y-77692000D03*
X76495000Y-77692000D03*
%TD*%
D34*
%TO.C,J4*%
X134442000Y-32322000D03*
X131242000Y-34322000D03*
X134442000Y-36322000D03*
X131242000Y-38322000D03*
X134442000Y-40322000D03*
%TD*%
M02*
