%TF.GenerationSoftware,KiCad,Pcbnew,8.0.4*%
%TF.CreationDate,2024-11-14T20:51:04-06:00*%
%TF.ProjectId,mounted_system,6d6f756e-7465-4645-9f73-797374656d2e,rev?*%
%TF.SameCoordinates,Original*%
%TF.FileFunction,Copper,L2,Bot*%
%TF.FilePolarity,Positive*%
%FSLAX46Y46*%
G04 Gerber Fmt 4.6, Leading zero omitted, Abs format (unit mm)*
G04 Created by KiCad (PCBNEW 8.0.4) date 2024-11-14 20:51:04*
%MOMM*%
%LPD*%
G01*
G04 APERTURE LIST*
%TA.AperFunction,ComponentPad*%
%ADD10R,4.500000X2.500000*%
%TD*%
%TA.AperFunction,ComponentPad*%
%ADD11O,4.500000X2.500000*%
%TD*%
%TA.AperFunction,ComponentPad*%
%ADD12C,1.240000*%
%TD*%
%TA.AperFunction,ComponentPad*%
%ADD13R,1.350000X1.350000*%
%TD*%
%TA.AperFunction,ComponentPad*%
%ADD14O,1.350000X1.350000*%
%TD*%
%TA.AperFunction,ComponentPad*%
%ADD15O,2.100000X1.000000*%
%TD*%
%TA.AperFunction,ComponentPad*%
%ADD16O,1.600000X1.000000*%
%TD*%
%TA.AperFunction,ViaPad*%
%ADD17C,0.600000*%
%TD*%
%TA.AperFunction,Conductor*%
%ADD18C,0.254000*%
%TD*%
%TA.AperFunction,Conductor*%
%ADD19C,0.200000*%
%TD*%
G04 APERTURE END LIST*
D10*
%TO.P,Q1,1,D*%
%TO.N,/R*%
X63754000Y-98806000D03*
D11*
%TO.P,Q1,2,G*%
%TO.N,/LED1*%
X63754000Y-104256000D03*
%TO.P,Q1,3,S*%
%TO.N,/B-*%
X63754000Y-109706000D03*
%TD*%
D12*
%TO.P,J2,1,In*%
%TO.N,Net-(J2-In)*%
X63663000Y-48090000D03*
%TO.P,J2,2,Ext*%
%TO.N,GND*%
X64933000Y-49360000D03*
X64933000Y-46820000D03*
X62393000Y-49360000D03*
X62393000Y-46820000D03*
%TD*%
D10*
%TO.P,Q2,1,D*%
%TO.N,/G*%
X56769000Y-98701000D03*
D11*
%TO.P,Q2,2,G*%
%TO.N,/LED2*%
X56769000Y-104151000D03*
%TO.P,Q2,3,S*%
%TO.N,/B-*%
X56769000Y-109601000D03*
%TD*%
D13*
%TO.P,J1,1,Pin_1*%
%TO.N,GND*%
X117765000Y-83586000D03*
D14*
%TO.P,J1,2,Pin_2*%
%TO.N,Net-(J1-Pin_2)*%
X117765000Y-81586000D03*
%TO.P,J1,3,Pin_3*%
%TO.N,Net-(J1-Pin_3)*%
X117765000Y-79586000D03*
%TO.P,J1,4,Pin_4*%
%TO.N,/VDD_BUSF*%
X117765000Y-77586000D03*
%TD*%
D10*
%TO.P,Q3,1,D*%
%TO.N,/B*%
X49530000Y-98574000D03*
D11*
%TO.P,Q3,2,G*%
%TO.N,/LED3*%
X49530000Y-104024000D03*
%TO.P,Q3,3,S*%
%TO.N,/B-*%
X49530000Y-109474000D03*
%TD*%
D15*
%TO.P,J3,S1,SHIELD*%
%TO.N,unconnected-(J3-SHIELD-PadS1)_1*%
X131362000Y-74031000D03*
D16*
%TO.N,unconnected-(J3-SHIELD-PadS1)*%
X135542000Y-74031000D03*
D15*
%TO.N,unconnected-(J3-SHIELD-PadS1)_2*%
X131362000Y-65391000D03*
D16*
%TO.N,unconnected-(J3-SHIELD-PadS1)_3*%
X135542000Y-65391000D03*
%TD*%
D17*
%TO.N,GND*%
X128750000Y-63250000D03*
X87000000Y-84500000D03*
X120904000Y-70739000D03*
X101092000Y-58801000D03*
X119888000Y-68326000D03*
X106500000Y-61250000D03*
X115500000Y-64000000D03*
X85725000Y-60198000D03*
X84250000Y-77500000D03*
X101473000Y-57912000D03*
X124587000Y-73787000D03*
X127000000Y-77089000D03*
X101473000Y-52959000D03*
X100965000Y-58166000D03*
%TO.N,/BOOT*%
X87285000Y-64600000D03*
X83729000Y-65108000D03*
%TO.N,+3.3V*%
X98425000Y-54229000D03*
X70394000Y-59901000D03*
X81153000Y-56769000D03*
X95377000Y-65786000D03*
X83635735Y-66087978D03*
X90170000Y-66675000D03*
X71755000Y-57531000D03*
X69251000Y-62441000D03*
X87884000Y-49276000D03*
X93289000Y-65786000D03*
%TO.N,/VDD_RF*%
X103810000Y-36764000D03*
X82313072Y-59418928D03*
%TO.N,VBUS*%
X127866500Y-74366500D03*
X116459000Y-70866000D03*
X119126000Y-73406000D03*
X127500000Y-65500000D03*
%TO.N,/VDD_BUSF*%
X80589000Y-82161000D03*
X84836000Y-82804000D03*
%TO.N,Net-(J1-Pin_3)*%
X120051000Y-79332000D03*
X115479000Y-78951000D03*
%TO.N,Net-(J3-D+-PadA6)*%
X118110000Y-69088000D03*
X128270000Y-70061000D03*
%TO.N,Net-(J3-D--PadA7)*%
X116332000Y-73533000D03*
X114717000Y-69553000D03*
%TO.N,/MICOUT*%
X68108000Y-98763000D03*
X69124000Y-71204000D03*
%TO.N,/B*%
X53557000Y-116443000D03*
%TO.N,/G*%
X59319000Y-116819000D03*
%TO.N,/LED1*%
X65532000Y-70612000D03*
X67437000Y-105537000D03*
%TO.N,/LED2*%
X59944000Y-107442000D03*
X88011000Y-65405000D03*
%TO.N,/LED3*%
X82042000Y-64008000D03*
X66802000Y-74930000D03*
%TO.N,/UART0_TX*%
X94488000Y-52959000D03*
X100175500Y-79141500D03*
%TO.N,/UART0_RX*%
X92581784Y-61769216D03*
X93254000Y-67902000D03*
X97953000Y-78697000D03*
X87158000Y-53932000D03*
%TO.N,/SPI_CS0*%
X89698000Y-59773072D03*
X92837000Y-56564000D03*
%TO.N,/SPI_WP*%
X93599000Y-57191000D03*
X92265700Y-66985300D03*
%TD*%
D18*
%TO.N,/BOOT*%
X84237000Y-64600000D02*
X87285000Y-64600000D01*
X83729000Y-65108000D02*
X84237000Y-64600000D01*
%TO.N,+3.3V*%
X69251000Y-62441000D02*
X69251000Y-61044000D01*
X87503000Y-50419000D02*
X81153000Y-56769000D01*
X91059000Y-65786000D02*
X90170000Y-66675000D01*
X87884000Y-49276000D02*
X87503000Y-49657000D01*
X79780144Y-56769000D02*
X81153000Y-56769000D01*
D19*
X71857856Y-57428144D02*
X79121000Y-57428144D01*
X82642000Y-65116000D02*
X83613978Y-66087978D01*
D18*
X87503000Y-49657000D02*
X87503000Y-50419000D01*
D19*
X79121000Y-57428144D02*
X82642000Y-60949144D01*
X71755000Y-57531000D02*
X71857856Y-57428144D01*
D18*
X93289000Y-65786000D02*
X91059000Y-65786000D01*
X95377000Y-57277000D02*
X95377000Y-65786000D01*
D19*
X82642000Y-60949144D02*
X82642000Y-65116000D01*
X83613978Y-66087978D02*
X83635735Y-66087978D01*
D18*
X79780144Y-56769000D02*
X79121000Y-57428144D01*
X69251000Y-61044000D02*
X70394000Y-59901000D01*
X98425000Y-54229000D02*
X95377000Y-57277000D01*
D19*
%TO.N,/VDD_RF*%
X102601000Y-37973000D02*
X103810000Y-36764000D01*
X82313072Y-57928399D02*
X102268471Y-37973000D01*
X82313072Y-59418928D02*
X82313072Y-57928399D01*
X102268471Y-37973000D02*
X102601000Y-37973000D01*
%TO.N,VBUS*%
X117094000Y-70231000D02*
X116459000Y-70866000D01*
X126750000Y-64250000D02*
X127000000Y-64250000D01*
X126750000Y-67270644D02*
X128870000Y-69390644D01*
X117094000Y-69977000D02*
X117094000Y-70231000D01*
X119126000Y-72009000D02*
X117094000Y-69977000D01*
X119126000Y-73406000D02*
X119126000Y-72009000D01*
X127500000Y-64750000D02*
X127500000Y-65500000D01*
X128870000Y-69390644D02*
X128870000Y-73363000D01*
X127000000Y-64250000D02*
X127500000Y-64750000D01*
X128870000Y-73363000D02*
X127866500Y-74366500D01*
X126750000Y-64250000D02*
X126750000Y-67270644D01*
D18*
%TO.N,/VDD_BUSF*%
X80589000Y-82161000D02*
X81232000Y-82804000D01*
X81232000Y-82804000D02*
X84836000Y-82804000D01*
%TO.N,Net-(J1-Pin_3)*%
X119797000Y-79586000D02*
X120051000Y-79332000D01*
X116241000Y-79586000D02*
X119797000Y-79586000D01*
X116241000Y-79586000D02*
X117765000Y-79586000D01*
X116114000Y-79586000D02*
X116241000Y-79586000D01*
X115479000Y-78951000D02*
X116114000Y-79586000D01*
%TO.N,Net-(J3-D+-PadA6)*%
X119428000Y-69989000D02*
X119500000Y-70061000D01*
X118110000Y-69088000D02*
X119011000Y-69989000D01*
D19*
X119500000Y-70061000D02*
X128270000Y-70061000D01*
D18*
X119011000Y-69989000D02*
X119428000Y-69989000D01*
D19*
%TO.N,Net-(J3-D--PadA7)*%
X114717000Y-71918000D02*
X116332000Y-73533000D01*
X114717000Y-69553000D02*
X114717000Y-71918000D01*
%TO.N,/MICOUT*%
X69124000Y-97747000D02*
X68108000Y-98763000D01*
X69124000Y-71204000D02*
X69124000Y-97747000D01*
%TO.N,/B*%
X53557000Y-102601000D02*
X49530000Y-98574000D01*
X53557000Y-116443000D02*
X53557000Y-102601000D01*
%TO.N,/G*%
X58000000Y-111562031D02*
X58000000Y-115500000D01*
X58000000Y-115500000D02*
X59319000Y-116819000D01*
X56769000Y-98701000D02*
X59319000Y-101251000D01*
X59319000Y-101251000D02*
X59319000Y-110243031D01*
X59319000Y-110243031D02*
X58000000Y-111562031D01*
%TO.N,/LED1*%
X67310000Y-105410000D02*
X67437000Y-105537000D01*
X67310000Y-98262000D02*
X67310000Y-105410000D01*
X65532000Y-70612000D02*
X65532000Y-96484000D01*
X65532000Y-96484000D02*
X67310000Y-98262000D01*
%TO.N,/LED2*%
X59944000Y-117042529D02*
X59944000Y-107442000D01*
X59081000Y-117419000D02*
X59567529Y-117419000D01*
X88011000Y-65405000D02*
X88011000Y-91624686D01*
X66704000Y-114796000D02*
X58750000Y-122750000D01*
X58750000Y-122750000D02*
X56250000Y-120250000D01*
X59567529Y-117419000D02*
X59944000Y-117042529D01*
X66704000Y-112931685D02*
X66704000Y-114796000D01*
X88011000Y-91624686D02*
X66704000Y-112931685D01*
X56250000Y-120250000D02*
X59081000Y-117419000D01*
%TO.N,/LED3*%
X75471471Y-64008000D02*
X82042000Y-64008000D01*
X66802000Y-72677471D02*
X75471471Y-64008000D01*
X66802000Y-74930000D02*
X66802000Y-72677471D01*
%TO.N,/UART0_TX*%
X94488000Y-52959000D02*
X94524000Y-52995000D01*
X94524000Y-52995000D02*
X94524000Y-73490000D01*
X94524000Y-73490000D02*
X100175500Y-79141500D01*
D18*
%TO.N,/UART0_RX*%
X94097000Y-68745000D02*
X94097000Y-74841000D01*
X93254000Y-67902000D02*
X94097000Y-68745000D01*
X94097000Y-74841000D02*
X97953000Y-78697000D01*
X87158000Y-54310712D02*
X87158000Y-53932000D01*
X92581784Y-59734496D02*
X87158000Y-54310712D01*
X92581784Y-61769216D02*
X92581784Y-59734496D01*
%TO.N,/SPI_CS0*%
X92075000Y-64262000D02*
X89698000Y-61885000D01*
X92837000Y-56564000D02*
X92837000Y-59347659D01*
X92837000Y-59347659D02*
X93208784Y-59719443D01*
X93208784Y-63128216D02*
X92075000Y-64262000D01*
X89698000Y-61885000D02*
X89698000Y-59773072D01*
X93208784Y-59719443D02*
X93208784Y-63128216D01*
D19*
%TO.N,/SPI_WP*%
X93889000Y-66985300D02*
X92265700Y-66985300D01*
X93889000Y-57481000D02*
X93889000Y-66985300D01*
X93599000Y-57191000D02*
X93889000Y-57481000D01*
%TD*%
%TA.AperFunction,Conductor*%
%TO.N,GND*%
G36*
X140031539Y-29095185D02*
G01*
X140077294Y-29147989D01*
X140088500Y-29199500D01*
X140088500Y-126375500D01*
X140068815Y-126442539D01*
X140016011Y-126488294D01*
X139964500Y-126499500D01*
X42534500Y-126499500D01*
X42467461Y-126479815D01*
X42421706Y-126427011D01*
X42410500Y-126375500D01*
X42410500Y-109359258D01*
X46779500Y-109359258D01*
X46779500Y-109588741D01*
X46804446Y-109778215D01*
X46809452Y-109816238D01*
X46809453Y-109816240D01*
X46868842Y-110037887D01*
X46956650Y-110249876D01*
X46956657Y-110249890D01*
X47071392Y-110448617D01*
X47211081Y-110630661D01*
X47211089Y-110630670D01*
X47373330Y-110792911D01*
X47373338Y-110792918D01*
X47555382Y-110932607D01*
X47555385Y-110932608D01*
X47555388Y-110932611D01*
X47754112Y-111047344D01*
X47754117Y-111047346D01*
X47754123Y-111047349D01*
X47845480Y-111085190D01*
X47966113Y-111135158D01*
X48187762Y-111194548D01*
X48415266Y-111224500D01*
X48415273Y-111224500D01*
X50644727Y-111224500D01*
X50644734Y-111224500D01*
X50872238Y-111194548D01*
X51093887Y-111135158D01*
X51305888Y-111047344D01*
X51504612Y-110932611D01*
X51686661Y-110792919D01*
X51686665Y-110792914D01*
X51686670Y-110792911D01*
X51848911Y-110630670D01*
X51848914Y-110630665D01*
X51848919Y-110630661D01*
X51988611Y-110448612D01*
X52103344Y-110249888D01*
X52191158Y-110037887D01*
X52250548Y-109816238D01*
X52280500Y-109588734D01*
X52280500Y-109359266D01*
X52250548Y-109131762D01*
X52191158Y-108910113D01*
X52141190Y-108789480D01*
X52103349Y-108698123D01*
X52103346Y-108698117D01*
X52103344Y-108698112D01*
X51988611Y-108499388D01*
X51988608Y-108499385D01*
X51988607Y-108499382D01*
X51848918Y-108317338D01*
X51848911Y-108317330D01*
X51686670Y-108155089D01*
X51686661Y-108155081D01*
X51504617Y-108015392D01*
X51305890Y-107900657D01*
X51305876Y-107900650D01*
X51093887Y-107812842D01*
X50872238Y-107753452D01*
X50834215Y-107748446D01*
X50644741Y-107723500D01*
X50644734Y-107723500D01*
X48415266Y-107723500D01*
X48415258Y-107723500D01*
X48198715Y-107752009D01*
X48187762Y-107753452D01*
X48094076Y-107778554D01*
X47966112Y-107812842D01*
X47754123Y-107900650D01*
X47754109Y-107900657D01*
X47555382Y-108015392D01*
X47373338Y-108155081D01*
X47211081Y-108317338D01*
X47071392Y-108499382D01*
X46956657Y-108698109D01*
X46956650Y-108698123D01*
X46868842Y-108910112D01*
X46809453Y-109131759D01*
X46809451Y-109131770D01*
X46779500Y-109359258D01*
X42410500Y-109359258D01*
X42410500Y-103909258D01*
X46779500Y-103909258D01*
X46779500Y-104138741D01*
X46804446Y-104328215D01*
X46809452Y-104366238D01*
X46864452Y-104571503D01*
X46868842Y-104587887D01*
X46956650Y-104799876D01*
X46956657Y-104799890D01*
X47071392Y-104998617D01*
X47211081Y-105180661D01*
X47211089Y-105180670D01*
X47373330Y-105342911D01*
X47373338Y-105342918D01*
X47373339Y-105342919D01*
X47392667Y-105357750D01*
X47555382Y-105482607D01*
X47555385Y-105482608D01*
X47555388Y-105482611D01*
X47754112Y-105597344D01*
X47754117Y-105597346D01*
X47754123Y-105597349D01*
X47818728Y-105624109D01*
X47966113Y-105685158D01*
X48187762Y-105744548D01*
X48415266Y-105774500D01*
X48415273Y-105774500D01*
X50644727Y-105774500D01*
X50644734Y-105774500D01*
X50872238Y-105744548D01*
X51093887Y-105685158D01*
X51305888Y-105597344D01*
X51504612Y-105482611D01*
X51686661Y-105342919D01*
X51686665Y-105342914D01*
X51686670Y-105342911D01*
X51848911Y-105180670D01*
X51848914Y-105180665D01*
X51848919Y-105180661D01*
X51988611Y-104998612D01*
X52103344Y-104799888D01*
X52191158Y-104587887D01*
X52250548Y-104366238D01*
X52280500Y-104138734D01*
X52280500Y-103909266D01*
X52250548Y-103681762D01*
X52191158Y-103460113D01*
X52141190Y-103339480D01*
X52103349Y-103248123D01*
X52103346Y-103248117D01*
X52103344Y-103248112D01*
X51988611Y-103049388D01*
X51988608Y-103049385D01*
X51988607Y-103049382D01*
X51848918Y-102867338D01*
X51848911Y-102867330D01*
X51686670Y-102705089D01*
X51686661Y-102705081D01*
X51504617Y-102565392D01*
X51305890Y-102450657D01*
X51305876Y-102450650D01*
X51093887Y-102362842D01*
X50872238Y-102303452D01*
X50834215Y-102298446D01*
X50644741Y-102273500D01*
X50644734Y-102273500D01*
X48415266Y-102273500D01*
X48415258Y-102273500D01*
X48198715Y-102302009D01*
X48187762Y-102303452D01*
X48094076Y-102328554D01*
X47966112Y-102362842D01*
X47754123Y-102450650D01*
X47754109Y-102450657D01*
X47555382Y-102565392D01*
X47373338Y-102705081D01*
X47211081Y-102867338D01*
X47071392Y-103049382D01*
X46956657Y-103248109D01*
X46956650Y-103248123D01*
X46868842Y-103460112D01*
X46809453Y-103681759D01*
X46809451Y-103681770D01*
X46779500Y-103909258D01*
X42410500Y-103909258D01*
X42410500Y-97276135D01*
X46779500Y-97276135D01*
X46779500Y-99871870D01*
X46779501Y-99871876D01*
X46785908Y-99931483D01*
X46836202Y-100066328D01*
X46836206Y-100066335D01*
X46922452Y-100181544D01*
X46922455Y-100181547D01*
X47037664Y-100267793D01*
X47037671Y-100267797D01*
X47172517Y-100318091D01*
X47172516Y-100318091D01*
X47179444Y-100318835D01*
X47232127Y-100324500D01*
X50379902Y-100324499D01*
X50446941Y-100344184D01*
X50467583Y-100360818D01*
X52920181Y-102813416D01*
X52953666Y-102874739D01*
X52956500Y-102901097D01*
X52956500Y-115860587D01*
X52936815Y-115927626D01*
X52929450Y-115937896D01*
X52927186Y-115940734D01*
X52831211Y-116093476D01*
X52771631Y-116263745D01*
X52771630Y-116263750D01*
X52751435Y-116442996D01*
X52751435Y-116443003D01*
X52771630Y-116622249D01*
X52771631Y-116622254D01*
X52831211Y-116792523D01*
X52859493Y-116837533D01*
X52927184Y-116945262D01*
X53054738Y-117072816D01*
X53070233Y-117082552D01*
X53163904Y-117141410D01*
X53207478Y-117168789D01*
X53377745Y-117228368D01*
X53377750Y-117228369D01*
X53556996Y-117248565D01*
X53557000Y-117248565D01*
X53557004Y-117248565D01*
X53736249Y-117228369D01*
X53736252Y-117228368D01*
X53736255Y-117228368D01*
X53906522Y-117168789D01*
X54059262Y-117072816D01*
X54186816Y-116945262D01*
X54282789Y-116792522D01*
X54342368Y-116622255D01*
X54362565Y-116443000D01*
X54342368Y-116263745D01*
X54282789Y-116093478D01*
X54186816Y-115940738D01*
X54186814Y-115940736D01*
X54186813Y-115940734D01*
X54184550Y-115937896D01*
X54183659Y-115935715D01*
X54183111Y-115934842D01*
X54183264Y-115934745D01*
X54158144Y-115873209D01*
X54157500Y-115860587D01*
X54157500Y-110741654D01*
X54177185Y-110674615D01*
X54229989Y-110628860D01*
X54299147Y-110618916D01*
X54362703Y-110647941D01*
X54379869Y-110666159D01*
X54450081Y-110757661D01*
X54450085Y-110757665D01*
X54450089Y-110757670D01*
X54612330Y-110919911D01*
X54612338Y-110919918D01*
X54612339Y-110919919D01*
X54662962Y-110958764D01*
X54794382Y-111059607D01*
X54794385Y-111059608D01*
X54794388Y-111059611D01*
X54993112Y-111174344D01*
X54993117Y-111174346D01*
X54993123Y-111174349D01*
X55084480Y-111212190D01*
X55205113Y-111262158D01*
X55426762Y-111321548D01*
X55654266Y-111351500D01*
X57275499Y-111351500D01*
X57342538Y-111371185D01*
X57388293Y-111423989D01*
X57399499Y-111475500D01*
X57399499Y-111651077D01*
X57399500Y-111651090D01*
X57399500Y-115413330D01*
X57399499Y-115413348D01*
X57399499Y-115579054D01*
X57399498Y-115579054D01*
X57440423Y-115731785D01*
X57469358Y-115781900D01*
X57469359Y-115781904D01*
X57469360Y-115781904D01*
X57519479Y-115868714D01*
X57519481Y-115868717D01*
X57638349Y-115987585D01*
X57638355Y-115987590D01*
X58488298Y-116837533D01*
X58521783Y-116898856D01*
X58523837Y-116911330D01*
X58533631Y-116998253D01*
X58538712Y-117012773D01*
X58542275Y-117082552D01*
X58509352Y-117141410D01*
X55881284Y-119769481D01*
X55769483Y-119881281D01*
X55769481Y-119881284D01*
X55690423Y-120018214D01*
X55690423Y-120018215D01*
X55649499Y-120170943D01*
X55649499Y-120170945D01*
X55649499Y-120329054D01*
X55649498Y-120329054D01*
X55649499Y-120329057D01*
X55690423Y-120481785D01*
X55769481Y-120618716D01*
X58381284Y-123230519D01*
X58518215Y-123309577D01*
X58670943Y-123350501D01*
X58670946Y-123350501D01*
X58829054Y-123350501D01*
X58829057Y-123350501D01*
X58981785Y-123309577D01*
X59118716Y-123230519D01*
X59230519Y-123118716D01*
X59289078Y-123060157D01*
X59289091Y-123060142D01*
X67184520Y-115164716D01*
X67263577Y-115027784D01*
X67304501Y-114875057D01*
X67304501Y-114716942D01*
X67304501Y-114709347D01*
X67304500Y-114709329D01*
X67304500Y-113231782D01*
X67324185Y-113164743D01*
X67340819Y-113144101D01*
X72584270Y-107900650D01*
X88491520Y-91993402D01*
X88570577Y-91856470D01*
X88611501Y-91703743D01*
X88611501Y-91545628D01*
X88611501Y-91538033D01*
X88611500Y-91538015D01*
X88611500Y-65987412D01*
X88631185Y-65920373D01*
X88638555Y-65910097D01*
X88640810Y-65907267D01*
X88640816Y-65907262D01*
X88736789Y-65754522D01*
X88796368Y-65584255D01*
X88805861Y-65500003D01*
X88816565Y-65405003D01*
X88816565Y-65404996D01*
X88796369Y-65225750D01*
X88796368Y-65225745D01*
X88772838Y-65158500D01*
X88736789Y-65055478D01*
X88720370Y-65029348D01*
X88658077Y-64930209D01*
X88640816Y-64902738D01*
X88513262Y-64775184D01*
X88472245Y-64749411D01*
X88360521Y-64679210D01*
X88262235Y-64644819D01*
X88190255Y-64619632D01*
X88190251Y-64619631D01*
X88190247Y-64619630D01*
X88189777Y-64619577D01*
X88189492Y-64619457D01*
X88183459Y-64618080D01*
X88183700Y-64617022D01*
X88125366Y-64592504D01*
X88085816Y-64534906D01*
X88080452Y-64510241D01*
X88070369Y-64420750D01*
X88070368Y-64420745D01*
X88053459Y-64372421D01*
X88010789Y-64250478D01*
X87914816Y-64097738D01*
X87787262Y-63970184D01*
X87732730Y-63935919D01*
X87634523Y-63874211D01*
X87464254Y-63814631D01*
X87464249Y-63814630D01*
X87285004Y-63794435D01*
X87284996Y-63794435D01*
X87105750Y-63814630D01*
X87105745Y-63814631D01*
X86935476Y-63874211D01*
X86809300Y-63953494D01*
X86743328Y-63972500D01*
X84175194Y-63972500D01*
X84053970Y-63996613D01*
X84053960Y-63996616D01*
X83939771Y-64043914D01*
X83939769Y-64043915D01*
X83859220Y-64097736D01*
X83859219Y-64097738D01*
X83836991Y-64112590D01*
X83667432Y-64282148D01*
X83606108Y-64315632D01*
X83593637Y-64317686D01*
X83549745Y-64322632D01*
X83407454Y-64372421D01*
X83337675Y-64375982D01*
X83277048Y-64341253D01*
X83244821Y-64279259D01*
X83242500Y-64255379D01*
X83242500Y-61038203D01*
X83242501Y-61038190D01*
X83242501Y-60870089D01*
X83242501Y-60870087D01*
X83201577Y-60717359D01*
X83149286Y-60626789D01*
X83122520Y-60580428D01*
X83010716Y-60468624D01*
X83010715Y-60468623D01*
X83006385Y-60464293D01*
X83006374Y-60464283D01*
X82787412Y-60245321D01*
X82753927Y-60183998D01*
X82758911Y-60114306D01*
X82800783Y-60058373D01*
X82809103Y-60052658D01*
X82815334Y-60048744D01*
X82942888Y-59921190D01*
X83038861Y-59768450D01*
X83098440Y-59598183D01*
X83098441Y-59598177D01*
X83118637Y-59418931D01*
X83118637Y-59418924D01*
X83098441Y-59239678D01*
X83098440Y-59239673D01*
X83038860Y-59069404D01*
X82987524Y-58987704D01*
X82942888Y-58916666D01*
X82942886Y-58916664D01*
X82942885Y-58916662D01*
X82940622Y-58913824D01*
X82939731Y-58911643D01*
X82939183Y-58910770D01*
X82939336Y-58910673D01*
X82914216Y-58849137D01*
X82913572Y-58836515D01*
X82913572Y-58228495D01*
X82933257Y-58161456D01*
X82949886Y-58140819D01*
X86447351Y-54643353D01*
X86508672Y-54609870D01*
X86578364Y-54614854D01*
X86634297Y-54656726D01*
X86638132Y-54662145D01*
X86670588Y-54710720D01*
X86670591Y-54710723D01*
X91917965Y-59958096D01*
X91951450Y-60019419D01*
X91954284Y-60045777D01*
X91954284Y-61227544D01*
X91935278Y-61293516D01*
X91855995Y-61419692D01*
X91796415Y-61589961D01*
X91796414Y-61589966D01*
X91776219Y-61769212D01*
X91776219Y-61769219D01*
X91796414Y-61948465D01*
X91796415Y-61948470D01*
X91855995Y-62118739D01*
X91895895Y-62182239D01*
X91951968Y-62271478D01*
X92079522Y-62399032D01*
X92232262Y-62495005D01*
X92402529Y-62554584D01*
X92471168Y-62562317D01*
X92535580Y-62589382D01*
X92575136Y-62646976D01*
X92581284Y-62685537D01*
X92581284Y-62816935D01*
X92561599Y-62883974D01*
X92544965Y-62904616D01*
X92162681Y-63286900D01*
X92101358Y-63320385D01*
X92031666Y-63315401D01*
X91987319Y-63286900D01*
X90361819Y-61661400D01*
X90328334Y-61600077D01*
X90325500Y-61573719D01*
X90325500Y-60314743D01*
X90344507Y-60248770D01*
X90423788Y-60122596D01*
X90459891Y-60019419D01*
X90483368Y-59952327D01*
X90483369Y-59952321D01*
X90503565Y-59773075D01*
X90503565Y-59773068D01*
X90483369Y-59593822D01*
X90483368Y-59593817D01*
X90423788Y-59423548D01*
X90327815Y-59270809D01*
X90200262Y-59143256D01*
X90047523Y-59047283D01*
X89877254Y-58987703D01*
X89877249Y-58987702D01*
X89698004Y-58967507D01*
X89697996Y-58967507D01*
X89518750Y-58987702D01*
X89518745Y-58987703D01*
X89348476Y-59047283D01*
X89195737Y-59143256D01*
X89068184Y-59270809D01*
X88972211Y-59423548D01*
X88912631Y-59593817D01*
X88912630Y-59593822D01*
X88892435Y-59773068D01*
X88892435Y-59773075D01*
X88912630Y-59952321D01*
X88912631Y-59952326D01*
X88972211Y-60122596D01*
X89051493Y-60248770D01*
X89070500Y-60314743D01*
X89070500Y-61946807D01*
X89094612Y-62068027D01*
X89094614Y-62068035D01*
X89122964Y-62136477D01*
X89141915Y-62182229D01*
X89141920Y-62182239D01*
X89195045Y-62261745D01*
X89202765Y-62273298D01*
X89210590Y-62285010D01*
X89210591Y-62285011D01*
X91587589Y-64662008D01*
X91659369Y-64733788D01*
X91674992Y-64749411D01*
X91674993Y-64749412D01*
X91777766Y-64818082D01*
X91777767Y-64818082D01*
X91777768Y-64818083D01*
X91891965Y-64865386D01*
X92013192Y-64889499D01*
X92013196Y-64889500D01*
X92013197Y-64889500D01*
X92136805Y-64889500D01*
X92136806Y-64889499D01*
X92258035Y-64865386D01*
X92372233Y-64818083D01*
X92475008Y-64749411D01*
X92562411Y-64662008D01*
X93076819Y-64147600D01*
X93138142Y-64114115D01*
X93207834Y-64119099D01*
X93263767Y-64160971D01*
X93288184Y-64226435D01*
X93288500Y-64235281D01*
X93288500Y-64869677D01*
X93268815Y-64936716D01*
X93216011Y-64982471D01*
X93178384Y-64992897D01*
X93109750Y-65000630D01*
X92939478Y-65060210D01*
X92813300Y-65139494D01*
X92747328Y-65158500D01*
X90997192Y-65158500D01*
X90875973Y-65182612D01*
X90875965Y-65182614D01*
X90825821Y-65203385D01*
X90825820Y-65203385D01*
X90761773Y-65229913D01*
X90761766Y-65229917D01*
X90740199Y-65244328D01*
X90709534Y-65264818D01*
X90709533Y-65264819D01*
X90658989Y-65298590D01*
X90108432Y-65849147D01*
X90047109Y-65882632D01*
X90034637Y-65884686D01*
X89990745Y-65889632D01*
X89820478Y-65949210D01*
X89667737Y-66045184D01*
X89540184Y-66172737D01*
X89444211Y-66325476D01*
X89384631Y-66495745D01*
X89384630Y-66495750D01*
X89364435Y-66674996D01*
X89364435Y-66675003D01*
X89384630Y-66854249D01*
X89384631Y-66854254D01*
X89444211Y-67024523D01*
X89499783Y-67112964D01*
X89540184Y-67177262D01*
X89667738Y-67304816D01*
X89820478Y-67400789D01*
X89990745Y-67460368D01*
X89990750Y-67460369D01*
X90169996Y-67480565D01*
X90170000Y-67480565D01*
X90170004Y-67480565D01*
X90349249Y-67460369D01*
X90349252Y-67460368D01*
X90349255Y-67460368D01*
X90519522Y-67400789D01*
X90672262Y-67304816D01*
X90799816Y-67177262D01*
X90895789Y-67024522D01*
X90955368Y-66854255D01*
X90960313Y-66810361D01*
X90987378Y-66745951D01*
X90995832Y-66736585D01*
X91282601Y-66449816D01*
X91343923Y-66416334D01*
X91370281Y-66413500D01*
X91455216Y-66413500D01*
X91522255Y-66433185D01*
X91568010Y-66485989D01*
X91577954Y-66555147D01*
X91560210Y-66603472D01*
X91539911Y-66635776D01*
X91480331Y-66806045D01*
X91480330Y-66806050D01*
X91460135Y-66985296D01*
X91460135Y-66985303D01*
X91480330Y-67164549D01*
X91480331Y-67164554D01*
X91539911Y-67334823D01*
X91618797Y-67460368D01*
X91635884Y-67487562D01*
X91763438Y-67615116D01*
X91916178Y-67711089D01*
X92050911Y-67758234D01*
X92086445Y-67770668D01*
X92086450Y-67770669D01*
X92265696Y-67790865D01*
X92265699Y-67790865D01*
X92265699Y-67790864D01*
X92265700Y-67790865D01*
X92310559Y-67785810D01*
X92379378Y-67797863D01*
X92430758Y-67845211D01*
X92447662Y-67895146D01*
X92468630Y-68081250D01*
X92468631Y-68081254D01*
X92528211Y-68251523D01*
X92624184Y-68404262D01*
X92751738Y-68531816D01*
X92904478Y-68627789D01*
X93074745Y-68687368D01*
X93118635Y-68692313D01*
X93183048Y-68719378D01*
X93192433Y-68727852D01*
X93433181Y-68968600D01*
X93466666Y-69029923D01*
X93469500Y-69056281D01*
X93469500Y-74902807D01*
X93493612Y-75024027D01*
X93493614Y-75024035D01*
X93527062Y-75104785D01*
X93540916Y-75138231D01*
X93540918Y-75138235D01*
X93563517Y-75172057D01*
X93563519Y-75172060D01*
X93563523Y-75172065D01*
X93597995Y-75223657D01*
X93609590Y-75241010D01*
X93609591Y-75241011D01*
X97127146Y-78758565D01*
X97160631Y-78819888D01*
X97162685Y-78832361D01*
X97167630Y-78876249D01*
X97227210Y-79046521D01*
X97298535Y-79160033D01*
X97323184Y-79199262D01*
X97450738Y-79326816D01*
X97603478Y-79422789D01*
X97690565Y-79453262D01*
X97773745Y-79482368D01*
X97773750Y-79482369D01*
X97952996Y-79502565D01*
X97953000Y-79502565D01*
X97953004Y-79502565D01*
X98132249Y-79482369D01*
X98132252Y-79482368D01*
X98132255Y-79482368D01*
X98302522Y-79422789D01*
X98455262Y-79326816D01*
X98582816Y-79199262D01*
X98678789Y-79046522D01*
X98738368Y-78876255D01*
X98742211Y-78842143D01*
X98769276Y-78777733D01*
X98826870Y-78738176D01*
X98896707Y-78736037D01*
X98953112Y-78768347D01*
X99344798Y-79160033D01*
X99378283Y-79221356D01*
X99380337Y-79233830D01*
X99390130Y-79320749D01*
X99390131Y-79320754D01*
X99390132Y-79320755D01*
X99392253Y-79326816D01*
X99449710Y-79491021D01*
X99462424Y-79511255D01*
X99545684Y-79643762D01*
X99673238Y-79771316D01*
X99825978Y-79867289D01*
X99996245Y-79926868D01*
X99996250Y-79926869D01*
X100175496Y-79947065D01*
X100175500Y-79947065D01*
X100175504Y-79947065D01*
X100354749Y-79926869D01*
X100354752Y-79926868D01*
X100354755Y-79926868D01*
X100525022Y-79867289D01*
X100677762Y-79771316D01*
X100805316Y-79643762D01*
X100901289Y-79491022D01*
X100960868Y-79320755D01*
X100970662Y-79233830D01*
X100981065Y-79141503D01*
X100981065Y-79141496D01*
X100960869Y-78962250D01*
X100960868Y-78962245D01*
X100956932Y-78950996D01*
X114673435Y-78950996D01*
X114673435Y-78951003D01*
X114693630Y-79130249D01*
X114693631Y-79130254D01*
X114753211Y-79300523D01*
X114849184Y-79453262D01*
X114976738Y-79580816D01*
X115129478Y-79676789D01*
X115299745Y-79736368D01*
X115343635Y-79741313D01*
X115408048Y-79768378D01*
X115417433Y-79776852D01*
X115626589Y-79986008D01*
X115698369Y-80057788D01*
X115713993Y-80073412D01*
X115816760Y-80142079D01*
X115816773Y-80142086D01*
X115860106Y-80160035D01*
X115860107Y-80160035D01*
X115930966Y-80189386D01*
X116052192Y-80213499D01*
X116052196Y-80213500D01*
X116052197Y-80213500D01*
X116175804Y-80213500D01*
X116179197Y-80213500D01*
X116704095Y-80213500D01*
X116771134Y-80233185D01*
X116803049Y-80262773D01*
X116892574Y-80381324D01*
X117016572Y-80494363D01*
X117052854Y-80554074D01*
X117051093Y-80623922D01*
X117016572Y-80677637D01*
X116892574Y-80790675D01*
X116761288Y-80964527D01*
X116664184Y-81159537D01*
X116664183Y-81159541D01*
X116608447Y-81355435D01*
X116604564Y-81369081D01*
X116584464Y-81585999D01*
X116584464Y-81586000D01*
X116604564Y-81802918D01*
X116604564Y-81802920D01*
X116604565Y-81802923D01*
X116655444Y-81981744D01*
X116664184Y-82012462D01*
X116745866Y-82176500D01*
X116761288Y-82207472D01*
X116832473Y-82301737D01*
X116843049Y-82315741D01*
X116867741Y-82381102D01*
X116853176Y-82449437D01*
X116818406Y-82489735D01*
X116732809Y-82553813D01*
X116646649Y-82668906D01*
X116646645Y-82668913D01*
X116596403Y-82803620D01*
X116596401Y-82803627D01*
X116590000Y-82863155D01*
X116590000Y-83336000D01*
X117449314Y-83336000D01*
X117444920Y-83340394D01*
X117392259Y-83431606D01*
X117365000Y-83533339D01*
X117365000Y-83638661D01*
X117392259Y-83740394D01*
X117444920Y-83831606D01*
X117449314Y-83836000D01*
X116590000Y-83836000D01*
X116590000Y-84308844D01*
X116596401Y-84368372D01*
X116596403Y-84368379D01*
X116646645Y-84503086D01*
X116646649Y-84503093D01*
X116732809Y-84618187D01*
X116732812Y-84618190D01*
X116847906Y-84704350D01*
X116847913Y-84704354D01*
X116982620Y-84754596D01*
X116982627Y-84754598D01*
X117042155Y-84760999D01*
X117042172Y-84761000D01*
X117515000Y-84761000D01*
X117515000Y-83901686D01*
X117519394Y-83906080D01*
X117610606Y-83958741D01*
X117712339Y-83986000D01*
X117817661Y-83986000D01*
X117919394Y-83958741D01*
X118010606Y-83906080D01*
X118015000Y-83901686D01*
X118015000Y-84761000D01*
X118487828Y-84761000D01*
X118487844Y-84760999D01*
X118547372Y-84754598D01*
X118547379Y-84754596D01*
X118682086Y-84704354D01*
X118682093Y-84704350D01*
X118797187Y-84618190D01*
X118797190Y-84618187D01*
X118883350Y-84503093D01*
X118883354Y-84503086D01*
X118933596Y-84368379D01*
X118933598Y-84368372D01*
X118939999Y-84308844D01*
X118940000Y-84308827D01*
X118940000Y-83836000D01*
X118080686Y-83836000D01*
X118085080Y-83831606D01*
X118137741Y-83740394D01*
X118165000Y-83638661D01*
X118165000Y-83533339D01*
X118137741Y-83431606D01*
X118085080Y-83340394D01*
X118080686Y-83336000D01*
X118940000Y-83336000D01*
X118940000Y-82863172D01*
X118939999Y-82863155D01*
X118933598Y-82803627D01*
X118933596Y-82803620D01*
X118883354Y-82668913D01*
X118883350Y-82668906D01*
X118797190Y-82553812D01*
X118711593Y-82489733D01*
X118669723Y-82433799D01*
X118664739Y-82364107D01*
X118686951Y-82315741D01*
X118768712Y-82207472D01*
X118865817Y-82012459D01*
X118925435Y-81802923D01*
X118945536Y-81586000D01*
X118925435Y-81369077D01*
X118865817Y-81159541D01*
X118768712Y-80964528D01*
X118637427Y-80790678D01*
X118513423Y-80677634D01*
X118477145Y-80617927D01*
X118478905Y-80548079D01*
X118513423Y-80494365D01*
X118637427Y-80381322D01*
X118726951Y-80262773D01*
X118783060Y-80221137D01*
X118825905Y-80213500D01*
X119858804Y-80213500D01*
X119858805Y-80213499D01*
X119980035Y-80189386D01*
X120060784Y-80155937D01*
X120094233Y-80142083D01*
X120094243Y-80142075D01*
X120095520Y-80141394D01*
X120097023Y-80140926D01*
X120099866Y-80139749D01*
X120099973Y-80140008D01*
X120140098Y-80127525D01*
X120230255Y-80117368D01*
X120400522Y-80057789D01*
X120553262Y-79961816D01*
X120680816Y-79834262D01*
X120776789Y-79681522D01*
X120836368Y-79511255D01*
X120839623Y-79482368D01*
X120856565Y-79332003D01*
X120856565Y-79331996D01*
X120836369Y-79152750D01*
X120836368Y-79152745D01*
X120799199Y-79046522D01*
X120776789Y-78982478D01*
X120680816Y-78829738D01*
X120553262Y-78702184D01*
X120545012Y-78697000D01*
X120400523Y-78606211D01*
X120230254Y-78546631D01*
X120230249Y-78546630D01*
X120051004Y-78526435D01*
X120050996Y-78526435D01*
X119871750Y-78546630D01*
X119871745Y-78546631D01*
X119701476Y-78606211D01*
X119548737Y-78702184D01*
X119421182Y-78829739D01*
X119421181Y-78829741D01*
X119376737Y-78900473D01*
X119324403Y-78946763D01*
X119271744Y-78958500D01*
X118825905Y-78958500D01*
X118758866Y-78938815D01*
X118726951Y-78909227D01*
X118668904Y-78832361D01*
X118637427Y-78790678D01*
X118513423Y-78677634D01*
X118477145Y-78617927D01*
X118478905Y-78548079D01*
X118513423Y-78494365D01*
X118637427Y-78381322D01*
X118768712Y-78207472D01*
X118865817Y-78012459D01*
X118925435Y-77802923D01*
X118945536Y-77586000D01*
X118925435Y-77369077D01*
X118865817Y-77159541D01*
X118768712Y-76964528D01*
X118637427Y-76790678D01*
X118476432Y-76643912D01*
X118476428Y-76643909D01*
X118476423Y-76643906D01*
X118291213Y-76529229D01*
X118291207Y-76529226D01*
X118206113Y-76496260D01*
X118088069Y-76450530D01*
X117873926Y-76410500D01*
X117656074Y-76410500D01*
X117441931Y-76450530D01*
X117393130Y-76469435D01*
X117238792Y-76529226D01*
X117238786Y-76529229D01*
X117053576Y-76643906D01*
X117053566Y-76643913D01*
X116892574Y-76790676D01*
X116761288Y-76964527D01*
X116664184Y-77159537D01*
X116604564Y-77369081D01*
X116584464Y-77585999D01*
X116584464Y-77586000D01*
X116604564Y-77802918D01*
X116664184Y-78012462D01*
X116761288Y-78207472D01*
X116892574Y-78381324D01*
X117016572Y-78494363D01*
X117052854Y-78554074D01*
X117051093Y-78623922D01*
X117016572Y-78677637D01*
X116892574Y-78790675D01*
X116803049Y-78909227D01*
X116746940Y-78950863D01*
X116704095Y-78958500D01*
X116425281Y-78958500D01*
X116358242Y-78938815D01*
X116337600Y-78922181D01*
X116304852Y-78889433D01*
X116271367Y-78828110D01*
X116269314Y-78815648D01*
X116264368Y-78771745D01*
X116204789Y-78601478D01*
X116108816Y-78448738D01*
X115981262Y-78321184D01*
X115964733Y-78310798D01*
X115828523Y-78225211D01*
X115658254Y-78165631D01*
X115658249Y-78165630D01*
X115479004Y-78145435D01*
X115478996Y-78145435D01*
X115299750Y-78165630D01*
X115299745Y-78165631D01*
X115129476Y-78225211D01*
X114976737Y-78321184D01*
X114849184Y-78448737D01*
X114753211Y-78601476D01*
X114693631Y-78771745D01*
X114693630Y-78771750D01*
X114673435Y-78950996D01*
X100956932Y-78950996D01*
X100918844Y-78842147D01*
X100901289Y-78791978D01*
X100900470Y-78790675D01*
X100805315Y-78639237D01*
X100677762Y-78511684D01*
X100525021Y-78415710D01*
X100354749Y-78356130D01*
X100267830Y-78346337D01*
X100203416Y-78319270D01*
X100194033Y-78310798D01*
X95160819Y-73277584D01*
X95127334Y-73216261D01*
X95124500Y-73189903D01*
X95124500Y-69552996D01*
X113911435Y-69552996D01*
X113911435Y-69553003D01*
X113931630Y-69732249D01*
X113931631Y-69732254D01*
X113991211Y-69902523D01*
X114087185Y-70055263D01*
X114089445Y-70058097D01*
X114090334Y-70060275D01*
X114090889Y-70061158D01*
X114090734Y-70061255D01*
X114115855Y-70122783D01*
X114116500Y-70135412D01*
X114116500Y-71831330D01*
X114116499Y-71831348D01*
X114116499Y-71997054D01*
X114116498Y-71997054D01*
X114157423Y-72149785D01*
X114184653Y-72196947D01*
X114184654Y-72196951D01*
X114184655Y-72196951D01*
X114236479Y-72286714D01*
X114236481Y-72286717D01*
X114355349Y-72405585D01*
X114355355Y-72405590D01*
X115501298Y-73551533D01*
X115534783Y-73612856D01*
X115536837Y-73625330D01*
X115546630Y-73712249D01*
X115606210Y-73882521D01*
X115690694Y-74016976D01*
X115702184Y-74035262D01*
X115829738Y-74162816D01*
X115982478Y-74258789D01*
X116152745Y-74318368D01*
X116152750Y-74318369D01*
X116331996Y-74338565D01*
X116332000Y-74338565D01*
X116332004Y-74338565D01*
X116511249Y-74318369D01*
X116511252Y-74318368D01*
X116511255Y-74318368D01*
X116681522Y-74258789D01*
X116834262Y-74162816D01*
X116961816Y-74035262D01*
X117057789Y-73882522D01*
X117117368Y-73712255D01*
X117127162Y-73625330D01*
X117137565Y-73533003D01*
X117137565Y-73532996D01*
X117117369Y-73353750D01*
X117117368Y-73353745D01*
X117082417Y-73253860D01*
X117057789Y-73183478D01*
X117033216Y-73144371D01*
X116985826Y-73068950D01*
X116961816Y-73030738D01*
X116834262Y-72903184D01*
X116727672Y-72836209D01*
X116681521Y-72807210D01*
X116511249Y-72747630D01*
X116424330Y-72737837D01*
X116359916Y-72710770D01*
X116350533Y-72702298D01*
X115353819Y-71705584D01*
X115320334Y-71644261D01*
X115317500Y-71617903D01*
X115317500Y-70865996D01*
X115653435Y-70865996D01*
X115653435Y-70866003D01*
X115673630Y-71045249D01*
X115673631Y-71045254D01*
X115733211Y-71215523D01*
X115829184Y-71368262D01*
X115956738Y-71495816D01*
X116109478Y-71591789D01*
X116184108Y-71617903D01*
X116279745Y-71651368D01*
X116279750Y-71651369D01*
X116458996Y-71671565D01*
X116459000Y-71671565D01*
X116459004Y-71671565D01*
X116638249Y-71651369D01*
X116638252Y-71651368D01*
X116638255Y-71651368D01*
X116808522Y-71591789D01*
X116961262Y-71495816D01*
X117088816Y-71368262D01*
X117184789Y-71215522D01*
X117196984Y-71180671D01*
X117237704Y-71123894D01*
X117302656Y-71098145D01*
X117371218Y-71111600D01*
X117401707Y-71133942D01*
X118489181Y-72221416D01*
X118522666Y-72282739D01*
X118525500Y-72309097D01*
X118525500Y-72823587D01*
X118505815Y-72890626D01*
X118498450Y-72900896D01*
X118496186Y-72903734D01*
X118400211Y-73056476D01*
X118340631Y-73226745D01*
X118340630Y-73226750D01*
X118320435Y-73405996D01*
X118320435Y-73406003D01*
X118340630Y-73585249D01*
X118340631Y-73585254D01*
X118400211Y-73755523D01*
X118455504Y-73843520D01*
X118496184Y-73908262D01*
X118623738Y-74035816D01*
X118714080Y-74092582D01*
X118772903Y-74129543D01*
X118776478Y-74131789D01*
X118865148Y-74162816D01*
X118946745Y-74191368D01*
X118946750Y-74191369D01*
X119125996Y-74211565D01*
X119126000Y-74211565D01*
X119126004Y-74211565D01*
X119305249Y-74191369D01*
X119305252Y-74191368D01*
X119305255Y-74191368D01*
X119475522Y-74131789D01*
X119628262Y-74035816D01*
X119755816Y-73908262D01*
X119851789Y-73755522D01*
X119911368Y-73585255D01*
X119913168Y-73569283D01*
X119931565Y-73406003D01*
X119931565Y-73405996D01*
X119911369Y-73226750D01*
X119911368Y-73226745D01*
X119896228Y-73183478D01*
X119851789Y-73056478D01*
X119840907Y-73039160D01*
X119802747Y-72978428D01*
X119755816Y-72903738D01*
X119755814Y-72903736D01*
X119755813Y-72903734D01*
X119753550Y-72900896D01*
X119752659Y-72898715D01*
X119752111Y-72897842D01*
X119752264Y-72897745D01*
X119727144Y-72836209D01*
X119726500Y-72823587D01*
X119726500Y-72098059D01*
X119726501Y-72098046D01*
X119726501Y-71929945D01*
X119726501Y-71929943D01*
X119685577Y-71777215D01*
X119633038Y-71686215D01*
X119612920Y-71651369D01*
X119606521Y-71640285D01*
X119490385Y-71524149D01*
X119490374Y-71524139D01*
X118780787Y-70814552D01*
X118747302Y-70753229D01*
X118752286Y-70683537D01*
X118794158Y-70627604D01*
X118859622Y-70603187D01*
X118892659Y-70605253D01*
X118919823Y-70610657D01*
X118949195Y-70616500D01*
X118949196Y-70616500D01*
X118949197Y-70616500D01*
X119176695Y-70616500D01*
X119224147Y-70625939D01*
X119258893Y-70640331D01*
X119316965Y-70664385D01*
X119316969Y-70664385D01*
X119316970Y-70664386D01*
X119438193Y-70688500D01*
X119438196Y-70688500D01*
X119561805Y-70688500D01*
X119685559Y-70663883D01*
X119709751Y-70661500D01*
X127687588Y-70661500D01*
X127754627Y-70681185D01*
X127764903Y-70688555D01*
X127767736Y-70690814D01*
X127767738Y-70690816D01*
X127920478Y-70786789D01*
X128090745Y-70846368D01*
X128159384Y-70854101D01*
X128223796Y-70881166D01*
X128263352Y-70938760D01*
X128269500Y-70977321D01*
X128269500Y-73062902D01*
X128249815Y-73129941D01*
X128233181Y-73150583D01*
X127847965Y-73535798D01*
X127786642Y-73569283D01*
X127774168Y-73571337D01*
X127687250Y-73581130D01*
X127516978Y-73640710D01*
X127364237Y-73736684D01*
X127236684Y-73864237D01*
X127140711Y-74016976D01*
X127081131Y-74187245D01*
X127081130Y-74187250D01*
X127060935Y-74366496D01*
X127060935Y-74366503D01*
X127081130Y-74545749D01*
X127081131Y-74545754D01*
X127140711Y-74716023D01*
X127198590Y-74808136D01*
X127236684Y-74868762D01*
X127364238Y-74996316D01*
X127516978Y-75092289D01*
X127648284Y-75138235D01*
X127687245Y-75151868D01*
X127687250Y-75151869D01*
X127866496Y-75172065D01*
X127866500Y-75172065D01*
X127866504Y-75172065D01*
X128045749Y-75151869D01*
X128045752Y-75151868D01*
X128045755Y-75151868D01*
X128216022Y-75092289D01*
X128368762Y-74996316D01*
X128496316Y-74868762D01*
X128592289Y-74716022D01*
X128651868Y-74545755D01*
X128661661Y-74458829D01*
X128688726Y-74394418D01*
X128697190Y-74385043D01*
X128952690Y-74129543D01*
X129811499Y-74129543D01*
X129849947Y-74322829D01*
X129849950Y-74322839D01*
X129925364Y-74504907D01*
X129925371Y-74504920D01*
X130034860Y-74668781D01*
X130034863Y-74668785D01*
X130174214Y-74808136D01*
X130174218Y-74808139D01*
X130338079Y-74917628D01*
X130338092Y-74917635D01*
X130520160Y-74993049D01*
X130520165Y-74993051D01*
X130520169Y-74993051D01*
X130520170Y-74993052D01*
X130713456Y-75031500D01*
X130713459Y-75031500D01*
X132010543Y-75031500D01*
X132140582Y-75005632D01*
X132203835Y-74993051D01*
X132385914Y-74917632D01*
X132549782Y-74808139D01*
X132689139Y-74668782D01*
X132798632Y-74504914D01*
X132874051Y-74322835D01*
X132905881Y-74162816D01*
X132912500Y-74129543D01*
X134241499Y-74129543D01*
X134279947Y-74322829D01*
X134279950Y-74322839D01*
X134355364Y-74504907D01*
X134355371Y-74504920D01*
X134464860Y-74668781D01*
X134464863Y-74668785D01*
X134604214Y-74808136D01*
X134604218Y-74808139D01*
X134768079Y-74917628D01*
X134768092Y-74917635D01*
X134950160Y-74993049D01*
X134950165Y-74993051D01*
X134950169Y-74993051D01*
X134950170Y-74993052D01*
X135143456Y-75031500D01*
X135143459Y-75031500D01*
X135940543Y-75031500D01*
X136070582Y-75005632D01*
X136133835Y-74993051D01*
X136315914Y-74917632D01*
X136479782Y-74808139D01*
X136619139Y-74668782D01*
X136728632Y-74504914D01*
X136804051Y-74322835D01*
X136835881Y-74162816D01*
X136842500Y-74129543D01*
X136842500Y-73932456D01*
X136804052Y-73739170D01*
X136804051Y-73739169D01*
X136804051Y-73739165D01*
X136792902Y-73712249D01*
X136728635Y-73557092D01*
X136728628Y-73557079D01*
X136619139Y-73393218D01*
X136619136Y-73393214D01*
X136479785Y-73253863D01*
X136479781Y-73253860D01*
X136315920Y-73144371D01*
X136315907Y-73144364D01*
X136133839Y-73068950D01*
X136133829Y-73068947D01*
X135940543Y-73030500D01*
X135940541Y-73030500D01*
X135143459Y-73030500D01*
X135143457Y-73030500D01*
X134950170Y-73068947D01*
X134950160Y-73068950D01*
X134768092Y-73144364D01*
X134768079Y-73144371D01*
X134604218Y-73253860D01*
X134604214Y-73253863D01*
X134464863Y-73393214D01*
X134464860Y-73393218D01*
X134355371Y-73557079D01*
X134355364Y-73557092D01*
X134279950Y-73739160D01*
X134279947Y-73739170D01*
X134241500Y-73932456D01*
X134241500Y-73932459D01*
X134241500Y-74129541D01*
X134241500Y-74129543D01*
X134241499Y-74129543D01*
X132912500Y-74129543D01*
X132912500Y-73932456D01*
X132874052Y-73739170D01*
X132874051Y-73739169D01*
X132874051Y-73739165D01*
X132862902Y-73712249D01*
X132798635Y-73557092D01*
X132798628Y-73557079D01*
X132689139Y-73393218D01*
X132689136Y-73393214D01*
X132549785Y-73253863D01*
X132549781Y-73253860D01*
X132385920Y-73144371D01*
X132385907Y-73144364D01*
X132278184Y-73099745D01*
X132223780Y-73055905D01*
X132201715Y-72989611D01*
X132218994Y-72921911D01*
X132237952Y-72897506D01*
X132242495Y-72892964D01*
X132305095Y-72784536D01*
X132337500Y-72663601D01*
X132337500Y-72538399D01*
X132305095Y-72417464D01*
X132242495Y-72309036D01*
X132153964Y-72220505D01*
X132045536Y-72157905D01*
X132045537Y-72157905D01*
X132005224Y-72147103D01*
X131924601Y-72125500D01*
X131799399Y-72125500D01*
X131718775Y-72147103D01*
X131678463Y-72157905D01*
X131570037Y-72220504D01*
X131570034Y-72220506D01*
X131481506Y-72309034D01*
X131481504Y-72309037D01*
X131418905Y-72417463D01*
X131418905Y-72417464D01*
X131386500Y-72538399D01*
X131386500Y-72663601D01*
X131411400Y-72756528D01*
X131418905Y-72784536D01*
X131453525Y-72844501D01*
X131469996Y-72912402D01*
X131447143Y-72978428D01*
X131392222Y-73021618D01*
X131346137Y-73030500D01*
X130713457Y-73030500D01*
X130520170Y-73068947D01*
X130520160Y-73068950D01*
X130338092Y-73144364D01*
X130338079Y-73144371D01*
X130174218Y-73253860D01*
X130174214Y-73253863D01*
X130034863Y-73393214D01*
X130034860Y-73393218D01*
X129925371Y-73557079D01*
X129925364Y-73557092D01*
X129849950Y-73739160D01*
X129849947Y-73739170D01*
X129811500Y-73932456D01*
X129811500Y-73932459D01*
X129811500Y-74129541D01*
X129811500Y-74129543D01*
X129811499Y-74129543D01*
X128952690Y-74129543D01*
X129228506Y-73853728D01*
X129228511Y-73853724D01*
X129238714Y-73843520D01*
X129238716Y-73843520D01*
X129350520Y-73731716D01*
X129419605Y-73612057D01*
X129429577Y-73594785D01*
X129470500Y-73442058D01*
X129470500Y-73283943D01*
X129470500Y-69479704D01*
X129470501Y-69479691D01*
X129470501Y-69311588D01*
X129470041Y-69309870D01*
X129429577Y-69158860D01*
X129388669Y-69088004D01*
X129350524Y-69021934D01*
X129350518Y-69021926D01*
X127386819Y-67058227D01*
X127353334Y-66996904D01*
X127350500Y-66970546D01*
X127350500Y-66427476D01*
X127370185Y-66360437D01*
X127422989Y-66314682D01*
X127488385Y-66304256D01*
X127500000Y-66305565D01*
X127500001Y-66305564D01*
X127500002Y-66305565D01*
X127500004Y-66305565D01*
X127679249Y-66285369D01*
X127679252Y-66285368D01*
X127679255Y-66285368D01*
X127849522Y-66225789D01*
X128002262Y-66129816D01*
X128129816Y-66002262D01*
X128225789Y-65849522D01*
X128285368Y-65679255D01*
X128285369Y-65679249D01*
X128305565Y-65500003D01*
X128305565Y-65499996D01*
X128304387Y-65489543D01*
X129811499Y-65489543D01*
X129849947Y-65682829D01*
X129849950Y-65682839D01*
X129925364Y-65864907D01*
X129925371Y-65864920D01*
X130034860Y-66028781D01*
X130034863Y-66028785D01*
X130174214Y-66168136D01*
X130174218Y-66168139D01*
X130338079Y-66277628D01*
X130338092Y-66277635D01*
X130453597Y-66325478D01*
X130520165Y-66353051D01*
X130520169Y-66353051D01*
X130520170Y-66353052D01*
X130713456Y-66391500D01*
X130713459Y-66391500D01*
X131346137Y-66391500D01*
X131413176Y-66411185D01*
X131458931Y-66463989D01*
X131468875Y-66533147D01*
X131453525Y-66577499D01*
X131418905Y-66637463D01*
X131418905Y-66637464D01*
X131386500Y-66758399D01*
X131386500Y-66883601D01*
X131418905Y-67004536D01*
X131481505Y-67112964D01*
X131570036Y-67201495D01*
X131678464Y-67264095D01*
X131799399Y-67296500D01*
X131799401Y-67296500D01*
X131924599Y-67296500D01*
X131924601Y-67296500D01*
X132045536Y-67264095D01*
X132153964Y-67201495D01*
X132242495Y-67112964D01*
X132305095Y-67004536D01*
X132337500Y-66883601D01*
X132337500Y-66758399D01*
X132305095Y-66637464D01*
X132242495Y-66529036D01*
X132237955Y-66524496D01*
X132204470Y-66463173D01*
X132209454Y-66393481D01*
X132251326Y-66337548D01*
X132278175Y-66322258D01*
X132385914Y-66277632D01*
X132549782Y-66168139D01*
X132689139Y-66028782D01*
X132798632Y-65864914D01*
X132874051Y-65682835D01*
X132910420Y-65500000D01*
X132912500Y-65489543D01*
X134241499Y-65489543D01*
X134279947Y-65682829D01*
X134279950Y-65682839D01*
X134355364Y-65864907D01*
X134355371Y-65864920D01*
X134464860Y-66028781D01*
X134464863Y-66028785D01*
X134604214Y-66168136D01*
X134604218Y-66168139D01*
X134768079Y-66277628D01*
X134768092Y-66277635D01*
X134883597Y-66325478D01*
X134950165Y-66353051D01*
X134950169Y-66353051D01*
X134950170Y-66353052D01*
X135143456Y-66391500D01*
X135143459Y-66391500D01*
X135940543Y-66391500D01*
X136096703Y-66360437D01*
X136133835Y-66353051D01*
X136297235Y-66285369D01*
X136315907Y-66277635D01*
X136315907Y-66277634D01*
X136315914Y-66277632D01*
X136479782Y-66168139D01*
X136619139Y-66028782D01*
X136728632Y-65864914D01*
X136804051Y-65682835D01*
X136840420Y-65500000D01*
X136842500Y-65489543D01*
X136842500Y-65292456D01*
X136804052Y-65099170D01*
X136804051Y-65099169D01*
X136804051Y-65099165D01*
X136787916Y-65060211D01*
X136728635Y-64917092D01*
X136728628Y-64917079D01*
X136619139Y-64753218D01*
X136619136Y-64753214D01*
X136479785Y-64613863D01*
X136479781Y-64613860D01*
X136315920Y-64504371D01*
X136315907Y-64504364D01*
X136133839Y-64428950D01*
X136133829Y-64428947D01*
X135940543Y-64390500D01*
X135940541Y-64390500D01*
X135143459Y-64390500D01*
X135143457Y-64390500D01*
X134950170Y-64428947D01*
X134950160Y-64428950D01*
X134768092Y-64504364D01*
X134768079Y-64504371D01*
X134604218Y-64613860D01*
X134604214Y-64613863D01*
X134464863Y-64753214D01*
X134464860Y-64753218D01*
X134355371Y-64917079D01*
X134355364Y-64917092D01*
X134279950Y-65099160D01*
X134279947Y-65099170D01*
X134241500Y-65292456D01*
X134241500Y-65292459D01*
X134241500Y-65489541D01*
X134241500Y-65489543D01*
X134241499Y-65489543D01*
X132912500Y-65489543D01*
X132912500Y-65292456D01*
X132874052Y-65099170D01*
X132874051Y-65099169D01*
X132874051Y-65099165D01*
X132857916Y-65060211D01*
X132798635Y-64917092D01*
X132798628Y-64917079D01*
X132689139Y-64753218D01*
X132689136Y-64753214D01*
X132549785Y-64613863D01*
X132549781Y-64613860D01*
X132385920Y-64504371D01*
X132385907Y-64504364D01*
X132203839Y-64428950D01*
X132203829Y-64428947D01*
X132010543Y-64390500D01*
X132010541Y-64390500D01*
X130713459Y-64390500D01*
X130713457Y-64390500D01*
X130520170Y-64428947D01*
X130520160Y-64428950D01*
X130338092Y-64504364D01*
X130338079Y-64504371D01*
X130174218Y-64613860D01*
X130174214Y-64613863D01*
X130034863Y-64753214D01*
X130034860Y-64753218D01*
X129925371Y-64917079D01*
X129925364Y-64917092D01*
X129849950Y-65099160D01*
X129849947Y-65099170D01*
X129811500Y-65292456D01*
X129811500Y-65292459D01*
X129811500Y-65489541D01*
X129811500Y-65489543D01*
X129811499Y-65489543D01*
X128304387Y-65489543D01*
X128285369Y-65320750D01*
X128285368Y-65320745D01*
X128259391Y-65246506D01*
X128225789Y-65150478D01*
X128129816Y-64997738D01*
X128129814Y-64997736D01*
X128129813Y-64997734D01*
X128127550Y-64994896D01*
X128126659Y-64992715D01*
X128126111Y-64991842D01*
X128126264Y-64991745D01*
X128101144Y-64930209D01*
X128100500Y-64917587D01*
X128100500Y-64839060D01*
X128100501Y-64839047D01*
X128100501Y-64670944D01*
X128091624Y-64637814D01*
X128059577Y-64518216D01*
X128008040Y-64428950D01*
X127980524Y-64381290D01*
X127980518Y-64381282D01*
X127368717Y-63769481D01*
X127368716Y-63769480D01*
X127281904Y-63719360D01*
X127281904Y-63719359D01*
X127281900Y-63719358D01*
X127231785Y-63690423D01*
X127079057Y-63649499D01*
X126920943Y-63649499D01*
X126913347Y-63649499D01*
X126913331Y-63649500D01*
X126670943Y-63649500D01*
X126518216Y-63690423D01*
X126518209Y-63690426D01*
X126381290Y-63769475D01*
X126381282Y-63769481D01*
X126269481Y-63881282D01*
X126269475Y-63881290D01*
X126190426Y-64018209D01*
X126190423Y-64018216D01*
X126149500Y-64170943D01*
X126149500Y-67183974D01*
X126149499Y-67183992D01*
X126149499Y-67349698D01*
X126149498Y-67349698D01*
X126190423Y-67502430D01*
X126203212Y-67524579D01*
X126203213Y-67524584D01*
X126203215Y-67524584D01*
X126269479Y-67639358D01*
X126269481Y-67639361D01*
X126388349Y-67758229D01*
X126388355Y-67758234D01*
X127838074Y-69207954D01*
X127871559Y-69269277D01*
X127866575Y-69338969D01*
X127824703Y-69394902D01*
X127816366Y-69400628D01*
X127767739Y-69431182D01*
X127764903Y-69433445D01*
X127762722Y-69434335D01*
X127761843Y-69434888D01*
X127761746Y-69434733D01*
X127700217Y-69459855D01*
X127687588Y-69460500D01*
X119804129Y-69460500D01*
X119737090Y-69440815D01*
X119735239Y-69439603D01*
X119725233Y-69432917D01*
X119725230Y-69432915D01*
X119725229Y-69432915D01*
X119687828Y-69417423D01*
X119611035Y-69385614D01*
X119611027Y-69385612D01*
X119489807Y-69361500D01*
X119489803Y-69361500D01*
X119322281Y-69361500D01*
X119255242Y-69341815D01*
X119234600Y-69325181D01*
X118935852Y-69026433D01*
X118902367Y-68965110D01*
X118900314Y-68952648D01*
X118895368Y-68908745D01*
X118835789Y-68738478D01*
X118739816Y-68585738D01*
X118612262Y-68458184D01*
X118526446Y-68404262D01*
X118459523Y-68362211D01*
X118289254Y-68302631D01*
X118289249Y-68302630D01*
X118110004Y-68282435D01*
X118109996Y-68282435D01*
X117930750Y-68302630D01*
X117930745Y-68302631D01*
X117760476Y-68362211D01*
X117607737Y-68458184D01*
X117480184Y-68585737D01*
X117384211Y-68738476D01*
X117324631Y-68908745D01*
X117324630Y-68908750D01*
X117304435Y-69087996D01*
X117304435Y-69088004D01*
X117321678Y-69241048D01*
X117309623Y-69309870D01*
X117262274Y-69361249D01*
X117194663Y-69378873D01*
X117181199Y-69376891D01*
X117181112Y-69377560D01*
X117173059Y-69376499D01*
X117173057Y-69376499D01*
X117014943Y-69376499D01*
X116924894Y-69400628D01*
X116862214Y-69417423D01*
X116843419Y-69428274D01*
X116838381Y-69431184D01*
X116790346Y-69458917D01*
X116725285Y-69496479D01*
X116725282Y-69496481D01*
X116613481Y-69608282D01*
X116613480Y-69608284D01*
X116577027Y-69671423D01*
X116534423Y-69745215D01*
X116493499Y-69897943D01*
X116493499Y-69897945D01*
X116493499Y-69930903D01*
X116473814Y-69997942D01*
X116457182Y-70018581D01*
X116440463Y-70035301D01*
X116379138Y-70068784D01*
X116366668Y-70070837D01*
X116279750Y-70080630D01*
X116109478Y-70140210D01*
X115956737Y-70236184D01*
X115829184Y-70363737D01*
X115733211Y-70516476D01*
X115673631Y-70686745D01*
X115673630Y-70686750D01*
X115653435Y-70865996D01*
X115317500Y-70865996D01*
X115317500Y-70135412D01*
X115337185Y-70068373D01*
X115344555Y-70058097D01*
X115346810Y-70055267D01*
X115346816Y-70055262D01*
X115442789Y-69902522D01*
X115502368Y-69732255D01*
X115516336Y-69608284D01*
X115522565Y-69553003D01*
X115522565Y-69552996D01*
X115502369Y-69373750D01*
X115502368Y-69373745D01*
X115465813Y-69269277D01*
X115442789Y-69203478D01*
X115346816Y-69050738D01*
X115219262Y-68923184D01*
X115066523Y-68827211D01*
X114896254Y-68767631D01*
X114896249Y-68767630D01*
X114717004Y-68747435D01*
X114716996Y-68747435D01*
X114537750Y-68767630D01*
X114537745Y-68767631D01*
X114367476Y-68827211D01*
X114214737Y-68923184D01*
X114087184Y-69050737D01*
X113991211Y-69203476D01*
X113931631Y-69373745D01*
X113931630Y-69373750D01*
X113911435Y-69552996D01*
X95124500Y-69552996D01*
X95124500Y-66701871D01*
X95144185Y-66634832D01*
X95196989Y-66589077D01*
X95262384Y-66578651D01*
X95376997Y-66591565D01*
X95377000Y-66591565D01*
X95377004Y-66591565D01*
X95556249Y-66571369D01*
X95556252Y-66571368D01*
X95556255Y-66571368D01*
X95726522Y-66511789D01*
X95879262Y-66415816D01*
X96006816Y-66288262D01*
X96102789Y-66135522D01*
X96162368Y-65965255D01*
X96168238Y-65913158D01*
X96182565Y-65786003D01*
X96182565Y-65785996D01*
X96162369Y-65606750D01*
X96162368Y-65606745D01*
X96121357Y-65489543D01*
X96102789Y-65436478D01*
X96087714Y-65412487D01*
X96023506Y-65310300D01*
X96004500Y-65244328D01*
X96004500Y-57588280D01*
X96024185Y-57521241D01*
X96040814Y-57500604D01*
X98486567Y-55054850D01*
X98547888Y-55021367D01*
X98560345Y-55019315D01*
X98604255Y-55014368D01*
X98774522Y-54954789D01*
X98927262Y-54858816D01*
X99054816Y-54731262D01*
X99150789Y-54578522D01*
X99210368Y-54408255D01*
X99230565Y-54229000D01*
X99220171Y-54136752D01*
X99210369Y-54049750D01*
X99210368Y-54049745D01*
X99150788Y-53879476D01*
X99054815Y-53726737D01*
X98927262Y-53599184D01*
X98774523Y-53503211D01*
X98604254Y-53443631D01*
X98604249Y-53443630D01*
X98425004Y-53423435D01*
X98424996Y-53423435D01*
X98245750Y-53443630D01*
X98245745Y-53443631D01*
X98075476Y-53503211D01*
X97922737Y-53599184D01*
X97795184Y-53726737D01*
X97699210Y-53879478D01*
X97639632Y-54049745D01*
X97634686Y-54093637D01*
X97607618Y-54158051D01*
X97599147Y-54167432D01*
X95336181Y-56430399D01*
X95274858Y-56463884D01*
X95205166Y-56458900D01*
X95149233Y-56417028D01*
X95124816Y-56351564D01*
X95124500Y-56342718D01*
X95124500Y-53486348D01*
X95143507Y-53420376D01*
X95213787Y-53308526D01*
X95213788Y-53308523D01*
X95213789Y-53308522D01*
X95273368Y-53138255D01*
X95293565Y-52959000D01*
X95273368Y-52779745D01*
X95213789Y-52609478D01*
X95117816Y-52456738D01*
X94990262Y-52329184D01*
X94837523Y-52233211D01*
X94667254Y-52173631D01*
X94667249Y-52173630D01*
X94488004Y-52153435D01*
X94487996Y-52153435D01*
X94308750Y-52173630D01*
X94308745Y-52173631D01*
X94138476Y-52233211D01*
X93985737Y-52329184D01*
X93858184Y-52456737D01*
X93762211Y-52609476D01*
X93702631Y-52779745D01*
X93702630Y-52779750D01*
X93682435Y-52958996D01*
X93682435Y-52959003D01*
X93702630Y-53138249D01*
X93702631Y-53138254D01*
X93762211Y-53308523D01*
X93858184Y-53461262D01*
X93887181Y-53490259D01*
X93920666Y-53551582D01*
X93923500Y-53577940D01*
X93923500Y-56283291D01*
X93903815Y-56350330D01*
X93851011Y-56396085D01*
X93785273Y-56405537D01*
X93785175Y-56406411D01*
X93701002Y-56396927D01*
X93636588Y-56369861D01*
X93597845Y-56314662D01*
X93562789Y-56214478D01*
X93466816Y-56061738D01*
X93339262Y-55934184D01*
X93186523Y-55838211D01*
X93016254Y-55778631D01*
X93016249Y-55778630D01*
X92837004Y-55758435D01*
X92836996Y-55758435D01*
X92657750Y-55778630D01*
X92657745Y-55778631D01*
X92487476Y-55838211D01*
X92334737Y-55934184D01*
X92207184Y-56061737D01*
X92111211Y-56214476D01*
X92051631Y-56384745D01*
X92051630Y-56384750D01*
X92031435Y-56563996D01*
X92031435Y-56564003D01*
X92051630Y-56743249D01*
X92051631Y-56743254D01*
X92111211Y-56913524D01*
X92175863Y-57016416D01*
X92183605Y-57028737D01*
X92190493Y-57039698D01*
X92209500Y-57105671D01*
X92209500Y-58175431D01*
X92189815Y-58242470D01*
X92137011Y-58288225D01*
X92067853Y-58298169D01*
X92004297Y-58269144D01*
X91997819Y-58263112D01*
X87973212Y-54238505D01*
X87939727Y-54177182D01*
X87943334Y-54118384D01*
X87941819Y-54118039D01*
X87943364Y-54111263D01*
X87943368Y-54111255D01*
X87950298Y-54049750D01*
X87963565Y-53932003D01*
X87963565Y-53931996D01*
X87943369Y-53752750D01*
X87943368Y-53752745D01*
X87934267Y-53726737D01*
X87883789Y-53582478D01*
X87883788Y-53582477D01*
X87883787Y-53582473D01*
X87791479Y-53435567D01*
X87772478Y-53368331D01*
X87792845Y-53301496D01*
X87808786Y-53281919D01*
X102480886Y-38609820D01*
X102542209Y-38576335D01*
X102568567Y-38573501D01*
X102680054Y-38573501D01*
X102680057Y-38573501D01*
X102832785Y-38532577D01*
X102882904Y-38503639D01*
X102969716Y-38453520D01*
X103081520Y-38341716D01*
X103081520Y-38341714D01*
X103091728Y-38331507D01*
X103091730Y-38331504D01*
X103828535Y-37594698D01*
X103889856Y-37561215D01*
X103902311Y-37559163D01*
X103989255Y-37549368D01*
X104159522Y-37489789D01*
X104312262Y-37393816D01*
X104439816Y-37266262D01*
X104535789Y-37113522D01*
X104595368Y-36943255D01*
X104615565Y-36764000D01*
X104612419Y-36736082D01*
X104595369Y-36584750D01*
X104595368Y-36584745D01*
X104535788Y-36414476D01*
X104439815Y-36261737D01*
X104312262Y-36134184D01*
X104159523Y-36038211D01*
X103989254Y-35978631D01*
X103989249Y-35978630D01*
X103810004Y-35958435D01*
X103809996Y-35958435D01*
X103630750Y-35978630D01*
X103630745Y-35978631D01*
X103460476Y-36038211D01*
X103307737Y-36134184D01*
X103180184Y-36261737D01*
X103084210Y-36414478D01*
X103024630Y-36584750D01*
X103014837Y-36671668D01*
X102987770Y-36736082D01*
X102979298Y-36745465D01*
X102388585Y-37336180D01*
X102327262Y-37369665D01*
X102300904Y-37372499D01*
X102189414Y-37372499D01*
X102082058Y-37401265D01*
X102036681Y-37413424D01*
X102036680Y-37413425D01*
X101986567Y-37442359D01*
X101986566Y-37442360D01*
X101943160Y-37467420D01*
X101899756Y-37492479D01*
X101899753Y-37492481D01*
X101787949Y-37604286D01*
X81989304Y-57402930D01*
X81927981Y-57436415D01*
X81858289Y-57431431D01*
X81802356Y-57389559D01*
X81777939Y-57324095D01*
X81792791Y-57255822D01*
X81796619Y-57249293D01*
X81878789Y-57118522D01*
X81938368Y-56948255D01*
X81943313Y-56904361D01*
X81970378Y-56839951D01*
X81978842Y-56830575D01*
X87990411Y-50819008D01*
X88059083Y-50716233D01*
X88106385Y-50602035D01*
X88130500Y-50480803D01*
X88130500Y-50125820D01*
X88150185Y-50058781D01*
X88202989Y-50013026D01*
X88213536Y-50008782D01*
X88233522Y-50001789D01*
X88386262Y-49905816D01*
X88513816Y-49778262D01*
X88609789Y-49625522D01*
X88669368Y-49455255D01*
X88669369Y-49455249D01*
X88689565Y-49276003D01*
X88689565Y-49275996D01*
X88669369Y-49096750D01*
X88669368Y-49096745D01*
X88637771Y-49006447D01*
X88609789Y-48926478D01*
X88513816Y-48773738D01*
X88386262Y-48646184D01*
X88233523Y-48550211D01*
X88063254Y-48490631D01*
X88063249Y-48490630D01*
X87884004Y-48470435D01*
X87883996Y-48470435D01*
X87704750Y-48490630D01*
X87704745Y-48490631D01*
X87534476Y-48550211D01*
X87381737Y-48646184D01*
X87254184Y-48773737D01*
X87158210Y-48926478D01*
X87098632Y-49096745D01*
X87093686Y-49140637D01*
X87066618Y-49205051D01*
X87058149Y-49214430D01*
X87015590Y-49256989D01*
X87015582Y-49256999D01*
X86946233Y-49360789D01*
X86944586Y-49365393D01*
X86899614Y-49473964D01*
X86899612Y-49473972D01*
X86879868Y-49573234D01*
X86875500Y-49595192D01*
X86875500Y-50107718D01*
X86855815Y-50174757D01*
X86839181Y-50195399D01*
X81091432Y-55943147D01*
X81030109Y-55976632D01*
X81017637Y-55978686D01*
X80973745Y-55983632D01*
X80803478Y-56043210D01*
X80677300Y-56122494D01*
X80611328Y-56141500D01*
X79718338Y-56141500D01*
X79597114Y-56165613D01*
X79597104Y-56165616D01*
X79482917Y-56212913D01*
X79482904Y-56212920D01*
X79380136Y-56281588D01*
X79380132Y-56281591D01*
X78870400Y-56791325D01*
X78809077Y-56824810D01*
X78782719Y-56827644D01*
X72175948Y-56827644D01*
X72109974Y-56808636D01*
X72104526Y-56805212D01*
X72104518Y-56805209D01*
X71934262Y-56745633D01*
X71934249Y-56745630D01*
X71755004Y-56725435D01*
X71754996Y-56725435D01*
X71575750Y-56745630D01*
X71575745Y-56745631D01*
X71405476Y-56805211D01*
X71252737Y-56901184D01*
X71125184Y-57028737D01*
X71029211Y-57181476D01*
X70969631Y-57351745D01*
X70969630Y-57351750D01*
X70949435Y-57530996D01*
X70949435Y-57531003D01*
X70969630Y-57710249D01*
X70969631Y-57710254D01*
X71029211Y-57880523D01*
X71115254Y-58017458D01*
X71125184Y-58033262D01*
X71252738Y-58160816D01*
X71405478Y-58256789D01*
X71575745Y-58316368D01*
X71575750Y-58316369D01*
X71754996Y-58336565D01*
X71755000Y-58336565D01*
X71755004Y-58336565D01*
X71934249Y-58316369D01*
X71934252Y-58316368D01*
X71934255Y-58316368D01*
X72104522Y-58256789D01*
X72257262Y-58160816D01*
X72353115Y-58064963D01*
X72414438Y-58031478D01*
X72440796Y-58028644D01*
X78820903Y-58028644D01*
X78887942Y-58048329D01*
X78908584Y-58064963D01*
X82005181Y-61161560D01*
X82038666Y-61222883D01*
X82041500Y-61249241D01*
X82041500Y-63091677D01*
X82021815Y-63158716D01*
X81969011Y-63204471D01*
X81931384Y-63214897D01*
X81862750Y-63222630D01*
X81692478Y-63282210D01*
X81539736Y-63378185D01*
X81536903Y-63380445D01*
X81534724Y-63381334D01*
X81533842Y-63381889D01*
X81533744Y-63381734D01*
X81472217Y-63406855D01*
X81459588Y-63407500D01*
X75392411Y-63407500D01*
X75351490Y-63418464D01*
X75351490Y-63418465D01*
X75314222Y-63428451D01*
X75239685Y-63448423D01*
X75239680Y-63448426D01*
X75102761Y-63527475D01*
X75102753Y-63527481D01*
X66344181Y-72286054D01*
X66282858Y-72319539D01*
X66213166Y-72314555D01*
X66157233Y-72272683D01*
X66132816Y-72207219D01*
X66132500Y-72198373D01*
X66132500Y-71194412D01*
X66152185Y-71127373D01*
X66159555Y-71117097D01*
X66161810Y-71114267D01*
X66161816Y-71114262D01*
X66257789Y-70961522D01*
X66317368Y-70791255D01*
X66317369Y-70791249D01*
X66337565Y-70612003D01*
X66337565Y-70611996D01*
X66317369Y-70432750D01*
X66317368Y-70432745D01*
X66257788Y-70262476D01*
X66177948Y-70135412D01*
X66161816Y-70109738D01*
X66034262Y-69982184D01*
X65952649Y-69930903D01*
X65881523Y-69886211D01*
X65711254Y-69826631D01*
X65711249Y-69826630D01*
X65532004Y-69806435D01*
X65531996Y-69806435D01*
X65352750Y-69826630D01*
X65352745Y-69826631D01*
X65182476Y-69886211D01*
X65029737Y-69982184D01*
X64902184Y-70109737D01*
X64806211Y-70262476D01*
X64746631Y-70432745D01*
X64746630Y-70432750D01*
X64726435Y-70611996D01*
X64726435Y-70612003D01*
X64746630Y-70791249D01*
X64746631Y-70791254D01*
X64806211Y-70961523D01*
X64845940Y-71024750D01*
X64900511Y-71111600D01*
X64902185Y-71114263D01*
X64904445Y-71117097D01*
X64905334Y-71119275D01*
X64905889Y-71120158D01*
X64905734Y-71120255D01*
X64930855Y-71181783D01*
X64931500Y-71194412D01*
X64931500Y-96397330D01*
X64931499Y-96397348D01*
X64931499Y-96563054D01*
X64931498Y-96563054D01*
X64972423Y-96715785D01*
X65001358Y-96765900D01*
X65001359Y-96765904D01*
X65001360Y-96765904D01*
X65051480Y-96852716D01*
X65054012Y-96856016D01*
X65055281Y-96859300D01*
X65055544Y-96859755D01*
X65055473Y-96859795D01*
X65079204Y-96921186D01*
X65065164Y-96989630D01*
X65016349Y-97039619D01*
X64955634Y-97055500D01*
X61456129Y-97055500D01*
X61456123Y-97055501D01*
X61396516Y-97061908D01*
X61261671Y-97112202D01*
X61261664Y-97112206D01*
X61146455Y-97198452D01*
X61146452Y-97198455D01*
X61060206Y-97313664D01*
X61060202Y-97313671D01*
X61009908Y-97448517D01*
X61003501Y-97508116D01*
X61003500Y-97508135D01*
X61003500Y-100103870D01*
X61003501Y-100103876D01*
X61009908Y-100163483D01*
X61060202Y-100298328D01*
X61060206Y-100298335D01*
X61146452Y-100413544D01*
X61146455Y-100413547D01*
X61261664Y-100499793D01*
X61261671Y-100499797D01*
X61396517Y-100550091D01*
X61396516Y-100550091D01*
X61403444Y-100550835D01*
X61456127Y-100556500D01*
X66051872Y-100556499D01*
X66111483Y-100550091D01*
X66246331Y-100499796D01*
X66361546Y-100413546D01*
X66447796Y-100298331D01*
X66469318Y-100240628D01*
X66511189Y-100184694D01*
X66576653Y-100160277D01*
X66644926Y-100175128D01*
X66694332Y-100224533D01*
X66709500Y-100283961D01*
X66709500Y-103848742D01*
X66689815Y-103915781D01*
X66637011Y-103961536D01*
X66567853Y-103971480D01*
X66504297Y-103942455D01*
X66466523Y-103883677D01*
X66465725Y-103880835D01*
X66457126Y-103848742D01*
X66415158Y-103692113D01*
X66327344Y-103480112D01*
X66212611Y-103281388D01*
X66212608Y-103281385D01*
X66212607Y-103281382D01*
X66111764Y-103149962D01*
X66072919Y-103099339D01*
X66072918Y-103099338D01*
X66072911Y-103099330D01*
X65910670Y-102937089D01*
X65910661Y-102937081D01*
X65728617Y-102797392D01*
X65529890Y-102682657D01*
X65529876Y-102682650D01*
X65317887Y-102594842D01*
X65257080Y-102578549D01*
X65096238Y-102535452D01*
X65058215Y-102530446D01*
X64868741Y-102505500D01*
X64868734Y-102505500D01*
X62639266Y-102505500D01*
X62639258Y-102505500D01*
X62422715Y-102534009D01*
X62411762Y-102535452D01*
X62318076Y-102560554D01*
X62190112Y-102594842D01*
X61978123Y-102682650D01*
X61978109Y-102682657D01*
X61779382Y-102797392D01*
X61597338Y-102937081D01*
X61435081Y-103099338D01*
X61295392Y-103281382D01*
X61180657Y-103480109D01*
X61180650Y-103480123D01*
X61092842Y-103692112D01*
X61033453Y-103913759D01*
X61033451Y-103913770D01*
X61003500Y-104141258D01*
X61003500Y-104370741D01*
X61025913Y-104540974D01*
X61033452Y-104598238D01*
X61050083Y-104660306D01*
X61092842Y-104819887D01*
X61180650Y-105031876D01*
X61180656Y-105031888D01*
X61276526Y-105197941D01*
X61295392Y-105230617D01*
X61435081Y-105412661D01*
X61435089Y-105412670D01*
X61597330Y-105574911D01*
X61597338Y-105574918D01*
X61779382Y-105714607D01*
X61779385Y-105714608D01*
X61779388Y-105714611D01*
X61978112Y-105829344D01*
X61978117Y-105829346D01*
X61978123Y-105829349D01*
X62069480Y-105867190D01*
X62190113Y-105917158D01*
X62411762Y-105976548D01*
X62639266Y-106006500D01*
X62639273Y-106006500D01*
X64868727Y-106006500D01*
X64868734Y-106006500D01*
X65096238Y-105976548D01*
X65317887Y-105917158D01*
X65529888Y-105829344D01*
X65728612Y-105714611D01*
X65910661Y-105574919D01*
X65910665Y-105574914D01*
X65910670Y-105574911D01*
X66072911Y-105412670D01*
X66072914Y-105412665D01*
X66072919Y-105412661D01*
X66212611Y-105230612D01*
X66327344Y-105031888D01*
X66415158Y-104819887D01*
X66465726Y-104631162D01*
X66502090Y-104571503D01*
X66564937Y-104540974D01*
X66634312Y-104549269D01*
X66688190Y-104593754D01*
X66709465Y-104660306D01*
X66709500Y-104663257D01*
X66709500Y-105171297D01*
X66702542Y-105212251D01*
X66651632Y-105357742D01*
X66651630Y-105357750D01*
X66631435Y-105536996D01*
X66631435Y-105537003D01*
X66651630Y-105716249D01*
X66651631Y-105716254D01*
X66711211Y-105886523D01*
X66786598Y-106006500D01*
X66807184Y-106039262D01*
X66934738Y-106166816D01*
X67087478Y-106262789D01*
X67257745Y-106322368D01*
X67257750Y-106322369D01*
X67436996Y-106342565D01*
X67437000Y-106342565D01*
X67437004Y-106342565D01*
X67616249Y-106322369D01*
X67616252Y-106322368D01*
X67616255Y-106322368D01*
X67786522Y-106262789D01*
X67939262Y-106166816D01*
X68066816Y-106039262D01*
X68162789Y-105886522D01*
X68222368Y-105716255D01*
X68222399Y-105715981D01*
X68242565Y-105537003D01*
X68242565Y-105536996D01*
X68222369Y-105357750D01*
X68222368Y-105357745D01*
X68175784Y-105224615D01*
X68162789Y-105187478D01*
X68066816Y-105034738D01*
X67946818Y-104914740D01*
X67913334Y-104853417D01*
X67910500Y-104827059D01*
X67910500Y-99685068D01*
X67930185Y-99618029D01*
X67982989Y-99572274D01*
X68048384Y-99561848D01*
X68107997Y-99568565D01*
X68108000Y-99568565D01*
X68108004Y-99568565D01*
X68287249Y-99548369D01*
X68287252Y-99548368D01*
X68287255Y-99548368D01*
X68457522Y-99488789D01*
X68610262Y-99392816D01*
X68737816Y-99265262D01*
X68833789Y-99112522D01*
X68893368Y-98942255D01*
X68903161Y-98855329D01*
X68930226Y-98790918D01*
X68938690Y-98781543D01*
X69482506Y-98237728D01*
X69482511Y-98237724D01*
X69492714Y-98227520D01*
X69492716Y-98227520D01*
X69604520Y-98115716D01*
X69676319Y-97991356D01*
X69676320Y-97991355D01*
X69679264Y-97986254D01*
X69683577Y-97978785D01*
X69724501Y-97826057D01*
X69724501Y-97667943D01*
X69724501Y-97660348D01*
X69724500Y-97660330D01*
X69724500Y-82160996D01*
X79783435Y-82160996D01*
X79783435Y-82161003D01*
X79803630Y-82340249D01*
X79803631Y-82340254D01*
X79863211Y-82510523D01*
X79934982Y-82624745D01*
X79959184Y-82663262D01*
X80086738Y-82790816D01*
X80239478Y-82886789D01*
X80409745Y-82946368D01*
X80453635Y-82951313D01*
X80518048Y-82978378D01*
X80527433Y-82986852D01*
X80744589Y-83204008D01*
X80806501Y-83265920D01*
X80831993Y-83291412D01*
X80934760Y-83360079D01*
X80934773Y-83360086D01*
X81048960Y-83407383D01*
X81048965Y-83407385D01*
X81048969Y-83407385D01*
X81048970Y-83407386D01*
X81170194Y-83431500D01*
X81170197Y-83431500D01*
X84294328Y-83431500D01*
X84360299Y-83450505D01*
X84486478Y-83529789D01*
X84656745Y-83589368D01*
X84656750Y-83589369D01*
X84835996Y-83609565D01*
X84836000Y-83609565D01*
X84836004Y-83609565D01*
X85015249Y-83589369D01*
X85015252Y-83589368D01*
X85015255Y-83589368D01*
X85185522Y-83529789D01*
X85338262Y-83433816D01*
X85465816Y-83306262D01*
X85561789Y-83153522D01*
X85621368Y-82983255D01*
X85625524Y-82946368D01*
X85641565Y-82804003D01*
X85641565Y-82803996D01*
X85621369Y-82624750D01*
X85621368Y-82624745D01*
X85581400Y-82510523D01*
X85561789Y-82454478D01*
X85465816Y-82301738D01*
X85338262Y-82174184D01*
X85317280Y-82161000D01*
X85185523Y-82078211D01*
X85015254Y-82018631D01*
X85015249Y-82018630D01*
X84836004Y-81998435D01*
X84835996Y-81998435D01*
X84656750Y-82018630D01*
X84656745Y-82018631D01*
X84486476Y-82078211D01*
X84360300Y-82157494D01*
X84294328Y-82176500D01*
X81543281Y-82176500D01*
X81476242Y-82156815D01*
X81455600Y-82140181D01*
X81414852Y-82099433D01*
X81381367Y-82038110D01*
X81379314Y-82025648D01*
X81374368Y-81981745D01*
X81314789Y-81811478D01*
X81309410Y-81802918D01*
X81218815Y-81658737D01*
X81091262Y-81531184D01*
X80938523Y-81435211D01*
X80768254Y-81375631D01*
X80768249Y-81375630D01*
X80589004Y-81355435D01*
X80588996Y-81355435D01*
X80409750Y-81375630D01*
X80409745Y-81375631D01*
X80239476Y-81435211D01*
X80086737Y-81531184D01*
X79959184Y-81658737D01*
X79863211Y-81811476D01*
X79803631Y-81981745D01*
X79803630Y-81981750D01*
X79783435Y-82160996D01*
X69724500Y-82160996D01*
X69724500Y-71786412D01*
X69744185Y-71719373D01*
X69751555Y-71709097D01*
X69753810Y-71706267D01*
X69753816Y-71706262D01*
X69849789Y-71553522D01*
X69909368Y-71383255D01*
X69909369Y-71383249D01*
X69929565Y-71204003D01*
X69929565Y-71203996D01*
X69909369Y-71024750D01*
X69909368Y-71024745D01*
X69887245Y-70961522D01*
X69849789Y-70854478D01*
X69849788Y-70854477D01*
X69849787Y-70854473D01*
X69757479Y-70707567D01*
X69738478Y-70640331D01*
X69758845Y-70573496D01*
X69774786Y-70553919D01*
X75683887Y-64644819D01*
X75745210Y-64611334D01*
X75771568Y-64608500D01*
X81459588Y-64608500D01*
X81526627Y-64628185D01*
X81536903Y-64635555D01*
X81539736Y-64637814D01*
X81539738Y-64637816D01*
X81692478Y-64733789D01*
X81862745Y-64793368D01*
X81931384Y-64801101D01*
X81995796Y-64828166D01*
X82035352Y-64885760D01*
X82041500Y-64924321D01*
X82041500Y-65029330D01*
X82041499Y-65029348D01*
X82041499Y-65195054D01*
X82041498Y-65195054D01*
X82076528Y-65325788D01*
X82082423Y-65347785D01*
X82104122Y-65385368D01*
X82153031Y-65470081D01*
X82161479Y-65484714D01*
X82161481Y-65484717D01*
X82280349Y-65603585D01*
X82280355Y-65603590D01*
X82807795Y-66131030D01*
X82841280Y-66192353D01*
X82843334Y-66204826D01*
X82850365Y-66267227D01*
X82909945Y-66437499D01*
X82994061Y-66571368D01*
X83005919Y-66590240D01*
X83133473Y-66717794D01*
X83198097Y-66758400D01*
X83280798Y-66810365D01*
X83286213Y-66813767D01*
X83401904Y-66854249D01*
X83456480Y-66873346D01*
X83456485Y-66873347D01*
X83635731Y-66893543D01*
X83635735Y-66893543D01*
X83635739Y-66893543D01*
X83814984Y-66873347D01*
X83814987Y-66873346D01*
X83814990Y-66873346D01*
X83985257Y-66813767D01*
X84137997Y-66717794D01*
X84265551Y-66590240D01*
X84361524Y-66437500D01*
X84421103Y-66267233D01*
X84432268Y-66168139D01*
X84441300Y-66087981D01*
X84441300Y-66087974D01*
X84421104Y-65908728D01*
X84421103Y-65908723D01*
X84405776Y-65864920D01*
X84361524Y-65738456D01*
X84361349Y-65738178D01*
X84361291Y-65737972D01*
X84358506Y-65732190D01*
X84359519Y-65731702D01*
X84342347Y-65670944D01*
X84361347Y-65606233D01*
X84454789Y-65457522D01*
X84506218Y-65310545D01*
X84546940Y-65253770D01*
X84611892Y-65228022D01*
X84623260Y-65227500D01*
X86743328Y-65227500D01*
X86809300Y-65246506D01*
X86927450Y-65320745D01*
X86935478Y-65325789D01*
X86998339Y-65347785D01*
X87105745Y-65385368D01*
X87105750Y-65385369D01*
X87106209Y-65385421D01*
X87106484Y-65385536D01*
X87112532Y-65386917D01*
X87112290Y-65387976D01*
X87170623Y-65412487D01*
X87210179Y-65470081D01*
X87215547Y-65494757D01*
X87225630Y-65584250D01*
X87225631Y-65584254D01*
X87285211Y-65754523D01*
X87344668Y-65849147D01*
X87370106Y-65889632D01*
X87381185Y-65907263D01*
X87383445Y-65910097D01*
X87384334Y-65912275D01*
X87384889Y-65913158D01*
X87384734Y-65913255D01*
X87409855Y-65974783D01*
X87410500Y-65987412D01*
X87410500Y-91324587D01*
X87390815Y-91391626D01*
X87374181Y-91412268D01*
X66223481Y-112562967D01*
X66223479Y-112562970D01*
X66173361Y-112649779D01*
X66173359Y-112649781D01*
X66144425Y-112699894D01*
X66144424Y-112699895D01*
X66144423Y-112699900D01*
X66103499Y-112852628D01*
X66103499Y-112852630D01*
X66103499Y-113020731D01*
X66103500Y-113020744D01*
X66103500Y-114495901D01*
X66083815Y-114562940D01*
X66067181Y-114583582D01*
X58837680Y-121813083D01*
X58776357Y-121846568D01*
X58706665Y-121841584D01*
X58662318Y-121813083D01*
X57186916Y-120337681D01*
X57153431Y-120276358D01*
X57158415Y-120206666D01*
X57186916Y-120162319D01*
X59293417Y-118055819D01*
X59354740Y-118022334D01*
X59381098Y-118019500D01*
X59480860Y-118019500D01*
X59480876Y-118019501D01*
X59488472Y-118019501D01*
X59646583Y-118019501D01*
X59646586Y-118019501D01*
X59799314Y-117978577D01*
X59849433Y-117949639D01*
X59936245Y-117899520D01*
X60048049Y-117787716D01*
X60048049Y-117787714D01*
X60058257Y-117777507D01*
X60058259Y-117777504D01*
X60302506Y-117533257D01*
X60302511Y-117533253D01*
X60312714Y-117523049D01*
X60312716Y-117523049D01*
X60424520Y-117411245D01*
X60503577Y-117274313D01*
X60544500Y-117121586D01*
X60544500Y-109591258D01*
X61003500Y-109591258D01*
X61003500Y-109820741D01*
X61028446Y-110010215D01*
X61033452Y-110048238D01*
X61033453Y-110048240D01*
X61092842Y-110269887D01*
X61180650Y-110481876D01*
X61180656Y-110481888D01*
X61276526Y-110647941D01*
X61295392Y-110680617D01*
X61435081Y-110862661D01*
X61435089Y-110862670D01*
X61597330Y-111024911D01*
X61597338Y-111024918D01*
X61779382Y-111164607D01*
X61779385Y-111164608D01*
X61779388Y-111164611D01*
X61978112Y-111279344D01*
X61978117Y-111279346D01*
X61978123Y-111279349D01*
X62069480Y-111317190D01*
X62190113Y-111367158D01*
X62411762Y-111426548D01*
X62639266Y-111456500D01*
X62639273Y-111456500D01*
X64868727Y-111456500D01*
X64868734Y-111456500D01*
X65096238Y-111426548D01*
X65317887Y-111367158D01*
X65529888Y-111279344D01*
X65728612Y-111164611D01*
X65910661Y-111024919D01*
X65910665Y-111024914D01*
X65910670Y-111024911D01*
X66072911Y-110862670D01*
X66072914Y-110862665D01*
X66072919Y-110862661D01*
X66212611Y-110680612D01*
X66327344Y-110481888D01*
X66415158Y-110269887D01*
X66474548Y-110048238D01*
X66504500Y-109820734D01*
X66504500Y-109591266D01*
X66474548Y-109363762D01*
X66415158Y-109142113D01*
X66327344Y-108930112D01*
X66212611Y-108731388D01*
X66212608Y-108731385D01*
X66212607Y-108731382D01*
X66111764Y-108599962D01*
X66072919Y-108549339D01*
X66072918Y-108549338D01*
X66072911Y-108549330D01*
X65910670Y-108387089D01*
X65910661Y-108387081D01*
X65728617Y-108247392D01*
X65529890Y-108132657D01*
X65529876Y-108132650D01*
X65317887Y-108044842D01*
X65257080Y-108028549D01*
X65096238Y-107985452D01*
X65058215Y-107980446D01*
X64868741Y-107955500D01*
X64868734Y-107955500D01*
X62639266Y-107955500D01*
X62639258Y-107955500D01*
X62422715Y-107984009D01*
X62411762Y-107985452D01*
X62318076Y-108010554D01*
X62190112Y-108044842D01*
X61978123Y-108132650D01*
X61978109Y-108132657D01*
X61779382Y-108247392D01*
X61597338Y-108387081D01*
X61435081Y-108549338D01*
X61295392Y-108731382D01*
X61180657Y-108930109D01*
X61180650Y-108930123D01*
X61092842Y-109142112D01*
X61033453Y-109363759D01*
X61033451Y-109363770D01*
X61003500Y-109591258D01*
X60544500Y-109591258D01*
X60544500Y-108024412D01*
X60564185Y-107957373D01*
X60571555Y-107947097D01*
X60573810Y-107944267D01*
X60573816Y-107944262D01*
X60669789Y-107791522D01*
X60729368Y-107621255D01*
X60749565Y-107442000D01*
X60729368Y-107262745D01*
X60669789Y-107092478D01*
X60573816Y-106939738D01*
X60446262Y-106812184D01*
X60293523Y-106716211D01*
X60123254Y-106656631D01*
X60123249Y-106656630D01*
X60029617Y-106646081D01*
X59965203Y-106619015D01*
X59925647Y-106561420D01*
X59919500Y-106522861D01*
X59919500Y-101340060D01*
X59919501Y-101340047D01*
X59919501Y-101171944D01*
X59878576Y-101019214D01*
X59878573Y-101019209D01*
X59799524Y-100882290D01*
X59799518Y-100882282D01*
X59387978Y-100470742D01*
X59354493Y-100409419D01*
X59359477Y-100339727D01*
X59376393Y-100308749D01*
X59376543Y-100308547D01*
X59376546Y-100308546D01*
X59462796Y-100193331D01*
X59513091Y-100058483D01*
X59519500Y-99998873D01*
X59519499Y-97403128D01*
X59513091Y-97343517D01*
X59501959Y-97313671D01*
X59462797Y-97208671D01*
X59462793Y-97208664D01*
X59376547Y-97093455D01*
X59376544Y-97093452D01*
X59261335Y-97007206D01*
X59261328Y-97007202D01*
X59126482Y-96956908D01*
X59126483Y-96956908D01*
X59066883Y-96950501D01*
X59066881Y-96950500D01*
X59066873Y-96950500D01*
X59066864Y-96950500D01*
X54471129Y-96950500D01*
X54471123Y-96950501D01*
X54411516Y-96956908D01*
X54276671Y-97007202D01*
X54276664Y-97007206D01*
X54161455Y-97093452D01*
X54161452Y-97093455D01*
X54075206Y-97208664D01*
X54075202Y-97208671D01*
X54024908Y-97343517D01*
X54018501Y-97403116D01*
X54018501Y-97403123D01*
X54018500Y-97403135D01*
X54018500Y-99998870D01*
X54018501Y-99998876D01*
X54024908Y-100058483D01*
X54075202Y-100193328D01*
X54075206Y-100193335D01*
X54161452Y-100308544D01*
X54161455Y-100308547D01*
X54276664Y-100394793D01*
X54276671Y-100394797D01*
X54411517Y-100445091D01*
X54411516Y-100445091D01*
X54418444Y-100445835D01*
X54471127Y-100451500D01*
X57618901Y-100451499D01*
X57685940Y-100471184D01*
X57706582Y-100487818D01*
X58682181Y-101463416D01*
X58715666Y-101524739D01*
X58718500Y-101551097D01*
X58718500Y-102463988D01*
X58698815Y-102531027D01*
X58646011Y-102576782D01*
X58576853Y-102586726D01*
X58547048Y-102578549D01*
X58332887Y-102489842D01*
X58236397Y-102463988D01*
X58111238Y-102430452D01*
X58073215Y-102425446D01*
X57883741Y-102400500D01*
X57883734Y-102400500D01*
X55654266Y-102400500D01*
X55654258Y-102400500D01*
X55437715Y-102429009D01*
X55426762Y-102430452D01*
X55351381Y-102450650D01*
X55205112Y-102489842D01*
X54993123Y-102577650D01*
X54993109Y-102577657D01*
X54794382Y-102692392D01*
X54612338Y-102832081D01*
X54450081Y-102994338D01*
X54379875Y-103085832D01*
X54323447Y-103127035D01*
X54253701Y-103131189D01*
X54192781Y-103096976D01*
X54160029Y-103035258D01*
X54157500Y-103010345D01*
X54157500Y-102690059D01*
X54157501Y-102690046D01*
X54157501Y-102521945D01*
X54157501Y-102521943D01*
X54116577Y-102369215D01*
X54078609Y-102303453D01*
X54078608Y-102303451D01*
X54078607Y-102303450D01*
X54037521Y-102232286D01*
X54037520Y-102232284D01*
X53925716Y-102120480D01*
X53925715Y-102120479D01*
X53921385Y-102116149D01*
X53921374Y-102116139D01*
X52148978Y-100343743D01*
X52115493Y-100282420D01*
X52120477Y-100212728D01*
X52137393Y-100181751D01*
X52223793Y-100066335D01*
X52223792Y-100066335D01*
X52223796Y-100066331D01*
X52274091Y-99931483D01*
X52280500Y-99871873D01*
X52280499Y-97276128D01*
X52274091Y-97216517D01*
X52267354Y-97198455D01*
X52223797Y-97081671D01*
X52223793Y-97081664D01*
X52137547Y-96966455D01*
X52137544Y-96966452D01*
X52022335Y-96880206D01*
X52022328Y-96880202D01*
X51887482Y-96829908D01*
X51887483Y-96829908D01*
X51827883Y-96823501D01*
X51827881Y-96823500D01*
X51827873Y-96823500D01*
X51827864Y-96823500D01*
X47232129Y-96823500D01*
X47232123Y-96823501D01*
X47172516Y-96829908D01*
X47037671Y-96880202D01*
X47037664Y-96880206D01*
X46922455Y-96966452D01*
X46922452Y-96966455D01*
X46836206Y-97081664D01*
X46836202Y-97081671D01*
X46785908Y-97216517D01*
X46779501Y-97276116D01*
X46779501Y-97276123D01*
X46779500Y-97276135D01*
X42410500Y-97276135D01*
X42410500Y-62440996D01*
X68445435Y-62440996D01*
X68445435Y-62441003D01*
X68465630Y-62620249D01*
X68465631Y-62620254D01*
X68525211Y-62790523D01*
X68541807Y-62816935D01*
X68621184Y-62943262D01*
X68748738Y-63070816D01*
X68901478Y-63166789D01*
X69009167Y-63204471D01*
X69071745Y-63226368D01*
X69071750Y-63226369D01*
X69250996Y-63246565D01*
X69251000Y-63246565D01*
X69251004Y-63246565D01*
X69430249Y-63226369D01*
X69430252Y-63226368D01*
X69430255Y-63226368D01*
X69600522Y-63166789D01*
X69753262Y-63070816D01*
X69880816Y-62943262D01*
X69976789Y-62790522D01*
X70036368Y-62620255D01*
X70042896Y-62562316D01*
X70056565Y-62441003D01*
X70056565Y-62440996D01*
X70036369Y-62261750D01*
X70036368Y-62261745D01*
X70008548Y-62182239D01*
X69976789Y-62091478D01*
X69897505Y-61965299D01*
X69878500Y-61899328D01*
X69878500Y-61355280D01*
X69898185Y-61288241D01*
X69914815Y-61267603D01*
X70455567Y-60726850D01*
X70516888Y-60693367D01*
X70529345Y-60691315D01*
X70573255Y-60686368D01*
X70743522Y-60626789D01*
X70896262Y-60530816D01*
X71023816Y-60403262D01*
X71119789Y-60250522D01*
X71179368Y-60080255D01*
X71179369Y-60080249D01*
X71199565Y-59901003D01*
X71199565Y-59900996D01*
X71179369Y-59721750D01*
X71179368Y-59721745D01*
X71136131Y-59598182D01*
X71119789Y-59551478D01*
X71023816Y-59398738D01*
X70896262Y-59271184D01*
X70846113Y-59239673D01*
X70743523Y-59175211D01*
X70573254Y-59115631D01*
X70573249Y-59115630D01*
X70394004Y-59095435D01*
X70393996Y-59095435D01*
X70214750Y-59115630D01*
X70214745Y-59115631D01*
X70044476Y-59175211D01*
X69891737Y-59271184D01*
X69764184Y-59398737D01*
X69668210Y-59551478D01*
X69608632Y-59721745D01*
X69603686Y-59765637D01*
X69576618Y-59830051D01*
X69568147Y-59839432D01*
X69004319Y-60403262D01*
X68850992Y-60556589D01*
X68827153Y-60580428D01*
X68763586Y-60643994D01*
X68763585Y-60643996D01*
X68694233Y-60747789D01*
X68692586Y-60752393D01*
X68647614Y-60860963D01*
X68645799Y-60870090D01*
X68645798Y-60870093D01*
X68623500Y-60982192D01*
X68623500Y-61899328D01*
X68604494Y-61965300D01*
X68525211Y-62091476D01*
X68465631Y-62261745D01*
X68465630Y-62261750D01*
X68445435Y-62440996D01*
X42410500Y-62440996D01*
X42410500Y-46819999D01*
X61268202Y-46819999D01*
X61268202Y-46820000D01*
X61287353Y-47026676D01*
X61344158Y-47226327D01*
X61436673Y-47412123D01*
X61436681Y-47412136D01*
X61441254Y-47418191D01*
X61975356Y-46884089D01*
X62001622Y-46982114D01*
X62056916Y-47077886D01*
X62135114Y-47156084D01*
X62230886Y-47211378D01*
X62328909Y-47237642D01*
X61797785Y-47768767D01*
X61797785Y-47768768D01*
X61891625Y-47826872D01*
X61891634Y-47826877D01*
X62085186Y-47901859D01*
X62289219Y-47940000D01*
X62415578Y-47940000D01*
X62482617Y-47959685D01*
X62528372Y-48012489D01*
X62539049Y-48075441D01*
X62537700Y-48089999D01*
X62537700Y-48090000D01*
X62539049Y-48104559D01*
X62525634Y-48173129D01*
X62477277Y-48223560D01*
X62415578Y-48240000D01*
X62289219Y-48240000D01*
X62085186Y-48278140D01*
X62085185Y-48278140D01*
X61891634Y-48353121D01*
X61891633Y-48353122D01*
X61797784Y-48411231D01*
X62328909Y-48942356D01*
X62230886Y-48968622D01*
X62135114Y-49023916D01*
X62056916Y-49102114D01*
X62001622Y-49197886D01*
X61975356Y-49295909D01*
X61441254Y-48761807D01*
X61441253Y-48761808D01*
X61436679Y-48767866D01*
X61436675Y-48767872D01*
X61344158Y-48953672D01*
X61287353Y-49153323D01*
X61268202Y-49359999D01*
X61268202Y-49360000D01*
X61287353Y-49566676D01*
X61344158Y-49766327D01*
X61436673Y-49952123D01*
X61436681Y-49952136D01*
X61441254Y-49958191D01*
X61975356Y-49424089D01*
X62001622Y-49522114D01*
X62056916Y-49617886D01*
X62135114Y-49696084D01*
X62230886Y-49751378D01*
X62328909Y-49777643D01*
X61797785Y-50308767D01*
X61797785Y-50308768D01*
X61891625Y-50366872D01*
X61891634Y-50366877D01*
X62085186Y-50441859D01*
X62289219Y-50480000D01*
X62496781Y-50480000D01*
X62700813Y-50441859D01*
X62700814Y-50441859D01*
X62894370Y-50366875D01*
X62988214Y-50308768D01*
X62988214Y-50308767D01*
X62457090Y-49777642D01*
X62555114Y-49751378D01*
X62650886Y-49696084D01*
X62729084Y-49617886D01*
X62784378Y-49522114D01*
X62810643Y-49424089D01*
X63344744Y-49958190D01*
X63344745Y-49958190D01*
X63349324Y-49952127D01*
X63349326Y-49952124D01*
X63441840Y-49766330D01*
X63441841Y-49766329D01*
X63498646Y-49566676D01*
X63517797Y-49360001D01*
X63516495Y-49345943D01*
X63529909Y-49277373D01*
X63578265Y-49226941D01*
X63639966Y-49210500D01*
X63686034Y-49210500D01*
X63753073Y-49230185D01*
X63798828Y-49282989D01*
X63809505Y-49345943D01*
X63808202Y-49360001D01*
X63827353Y-49566676D01*
X63884158Y-49766327D01*
X63976673Y-49952123D01*
X63976681Y-49952136D01*
X63981254Y-49958191D01*
X64515356Y-49424089D01*
X64541622Y-49522114D01*
X64596916Y-49617886D01*
X64675114Y-49696084D01*
X64770886Y-49751378D01*
X64868909Y-49777643D01*
X64337785Y-50308767D01*
X64337785Y-50308768D01*
X64431625Y-50366872D01*
X64431634Y-50366877D01*
X64625186Y-50441859D01*
X64829219Y-50480000D01*
X65036781Y-50480000D01*
X65240813Y-50441859D01*
X65240814Y-50441859D01*
X65434370Y-50366875D01*
X65528214Y-50308768D01*
X65528214Y-50308767D01*
X64997090Y-49777642D01*
X65095114Y-49751378D01*
X65190886Y-49696084D01*
X65269084Y-49617886D01*
X65324378Y-49522114D01*
X65350643Y-49424090D01*
X65884744Y-49958190D01*
X65884745Y-49958190D01*
X65889324Y-49952127D01*
X65889326Y-49952124D01*
X65981840Y-49766330D01*
X65981841Y-49766329D01*
X66038646Y-49566676D01*
X66057798Y-49360000D01*
X66057798Y-49359999D01*
X66038646Y-49153323D01*
X65981841Y-48953670D01*
X65981840Y-48953669D01*
X65889328Y-48767879D01*
X65889324Y-48767873D01*
X65884744Y-48761808D01*
X65350643Y-49295909D01*
X65324378Y-49197886D01*
X65269084Y-49102114D01*
X65190886Y-49023916D01*
X65095114Y-48968622D01*
X64997089Y-48942356D01*
X65528214Y-48411231D01*
X65528213Y-48411229D01*
X65434374Y-48353126D01*
X65240813Y-48278140D01*
X65036781Y-48240000D01*
X64910422Y-48240000D01*
X64843383Y-48220315D01*
X64797628Y-48167511D01*
X64786951Y-48104559D01*
X64788300Y-48090000D01*
X64788300Y-48089999D01*
X64786951Y-48075441D01*
X64800366Y-48006871D01*
X64848723Y-47956440D01*
X64910422Y-47940000D01*
X65036781Y-47940000D01*
X65240813Y-47901859D01*
X65240814Y-47901859D01*
X65434370Y-47826875D01*
X65528214Y-47768768D01*
X65528214Y-47768767D01*
X64997090Y-47237643D01*
X65095114Y-47211378D01*
X65190886Y-47156084D01*
X65269084Y-47077886D01*
X65324378Y-46982114D01*
X65350643Y-46884090D01*
X65884744Y-47418190D01*
X65884745Y-47418190D01*
X65889324Y-47412127D01*
X65889326Y-47412124D01*
X65981840Y-47226330D01*
X65981841Y-47226329D01*
X66038646Y-47026676D01*
X66057798Y-46820000D01*
X66057798Y-46819999D01*
X66038646Y-46613323D01*
X65981841Y-46413670D01*
X65981840Y-46413669D01*
X65889328Y-46227879D01*
X65889324Y-46227873D01*
X65884744Y-46221808D01*
X65350643Y-46755909D01*
X65324378Y-46657886D01*
X65269084Y-46562114D01*
X65190886Y-46483916D01*
X65095114Y-46428622D01*
X64997089Y-46402356D01*
X65528214Y-45871231D01*
X65528213Y-45871229D01*
X65434374Y-45813126D01*
X65240813Y-45738140D01*
X65036781Y-45700000D01*
X64829219Y-45700000D01*
X64625186Y-45738140D01*
X64625185Y-45738140D01*
X64431634Y-45813121D01*
X64431633Y-45813122D01*
X64337784Y-45871231D01*
X64868910Y-46402356D01*
X64770886Y-46428622D01*
X64675114Y-46483916D01*
X64596916Y-46562114D01*
X64541622Y-46657886D01*
X64515356Y-46755909D01*
X63981254Y-46221807D01*
X63981253Y-46221808D01*
X63976679Y-46227866D01*
X63976675Y-46227872D01*
X63884158Y-46413672D01*
X63827353Y-46613323D01*
X63808202Y-46819998D01*
X63809505Y-46834057D01*
X63796091Y-46902627D01*
X63747734Y-46953060D01*
X63686034Y-46969500D01*
X63639966Y-46969500D01*
X63572927Y-46949815D01*
X63527172Y-46897011D01*
X63516495Y-46834057D01*
X63517797Y-46819998D01*
X63498646Y-46613323D01*
X63441841Y-46413670D01*
X63441840Y-46413669D01*
X63349328Y-46227879D01*
X63349324Y-46227873D01*
X63344744Y-46221808D01*
X62810642Y-46755909D01*
X62784378Y-46657886D01*
X62729084Y-46562114D01*
X62650886Y-46483916D01*
X62555114Y-46428622D01*
X62457089Y-46402356D01*
X62988214Y-45871231D01*
X62988213Y-45871229D01*
X62894374Y-45813126D01*
X62700813Y-45738140D01*
X62496781Y-45700000D01*
X62289219Y-45700000D01*
X62085186Y-45738140D01*
X62085185Y-45738140D01*
X61891634Y-45813121D01*
X61891633Y-45813122D01*
X61797784Y-45871231D01*
X62328910Y-46402356D01*
X62230886Y-46428622D01*
X62135114Y-46483916D01*
X62056916Y-46562114D01*
X62001622Y-46657886D01*
X61975356Y-46755909D01*
X61441254Y-46221807D01*
X61441253Y-46221808D01*
X61436679Y-46227866D01*
X61436675Y-46227872D01*
X61344158Y-46413672D01*
X61287353Y-46613323D01*
X61268202Y-46819999D01*
X42410500Y-46819999D01*
X42410500Y-29199500D01*
X42430185Y-29132461D01*
X42482989Y-29086706D01*
X42534500Y-29075500D01*
X139964500Y-29075500D01*
X140031539Y-29095185D01*
G37*
%TD.AperFunction*%
%TD*%
M02*
